G04 DipTrace 5.0.0.1*
G04 mem-ext-512-sip.GTO*
%MOIN*%
G04 #@! TF.FileFunction,Legend,Top*
G04 #@! TF.Part,Single*
%ADD10C,0.009843*%
%ADD13C,0.004724*%
%ADD17C,0.003937*%
%ADD18C,0.005906*%
%ADD35C,0.004632*%
%FSLAX26Y26*%
G04*
G70*
G90*
G75*
G01*
G04 TopSilk*
%LPD*%
X1096850Y1566142D2*
D18*
X1081102D1*
Y1121260D1*
X1096850D1*
X1890551Y1566142D2*
X1906299D1*
Y1121260D1*
X1890551D1*
G36*
X1079921Y1052756D2*
X1080005Y1054041D1*
X1080257Y1055303D1*
X1080670Y1056522D1*
X1081240Y1057677D1*
X1081955Y1058748D1*
X1082804Y1059716D1*
X1083772Y1060565D1*
X1084843Y1061280D1*
X1085997Y1061849D1*
X1087216Y1062263D1*
X1088479Y1062514D1*
X1089764Y1062598D1*
X1091048Y1062514D1*
X1092311Y1062263D1*
X1093530Y1061849D1*
X1094685Y1061280D1*
X1095756Y1060565D1*
X1096723Y1059716D1*
X1097572Y1058748D1*
X1098288Y1057677D1*
X1098857Y1056522D1*
X1099271Y1055303D1*
X1099522Y1054041D1*
X1099606Y1052756D1*
D1*
X1099522Y1051471D1*
X1099271Y1050208D1*
X1098857Y1048989D1*
X1098288Y1047835D1*
X1097572Y1046764D1*
X1096723Y1045796D1*
X1095756Y1044947D1*
X1094685Y1044232D1*
X1093530Y1043663D1*
X1092311Y1043249D1*
X1091048Y1042998D1*
X1089764Y1042913D1*
X1088479Y1042998D1*
X1087216Y1043249D1*
X1085997Y1043663D1*
X1084843Y1044232D1*
X1083772Y1044947D1*
X1082804Y1045796D1*
X1081955Y1046764D1*
X1081240Y1047835D1*
X1080670Y1048989D1*
X1080257Y1050208D1*
X1080005Y1051471D1*
X1079921Y1052756D1*
D1*
G37*
X2480033Y1562402D2*
D17*
Y1574606D1*
X2180820D1*
Y1562402D1*
X2480033Y1075000D2*
Y1062795D1*
X2180820D1*
Y1075000D1*
G36*
X2118615Y1580118D2*
X2119900Y1580034D1*
X2121163Y1579783D1*
X2122382Y1579369D1*
X2123537Y1578799D1*
X2124607Y1578084D1*
X2125575Y1577235D1*
X2126424Y1576267D1*
X2127139Y1575197D1*
X2127709Y1574042D1*
X2128123Y1572823D1*
X2128374Y1571560D1*
X2128458Y1570276D1*
X2128374Y1568991D1*
X2128123Y1567728D1*
X2127709Y1566509D1*
X2127139Y1565354D1*
X2126424Y1564284D1*
X2125575Y1563316D1*
X2124607Y1562467D1*
X2123537Y1561752D1*
X2122382Y1561182D1*
X2121163Y1560768D1*
X2119900Y1560517D1*
X2118615Y1560433D1*
D1*
X2117331Y1560517D1*
X2116068Y1560768D1*
X2114849Y1561182D1*
X2113694Y1561752D1*
X2112624Y1562467D1*
X2111656Y1563316D1*
X2110807Y1564284D1*
X2110092Y1565354D1*
X2109522Y1566509D1*
X2109108Y1567728D1*
X2108857Y1568991D1*
X2108773Y1570276D1*
X2108857Y1571560D1*
X2109108Y1572823D1*
X2109522Y1574042D1*
X2110092Y1575197D1*
X2110807Y1576267D1*
X2111656Y1577235D1*
X2112624Y1578084D1*
X2113694Y1578799D1*
X2114849Y1579369D1*
X2116068Y1579783D1*
X2117331Y1580034D1*
X2118615Y1580118D1*
D1*
G37*
X3093301Y1562408D2*
D17*
X3093300Y1574613D1*
X2794087Y1574600D1*
X2794088Y1562395D1*
X3093322Y1075006D2*
Y1062802D1*
X2794110Y1062789D1*
X2794109Y1074994D1*
G36*
X2731882Y1580109D2*
X2733167Y1580025D1*
X2734430Y1579774D1*
X2735649Y1579360D1*
X2736804Y1578791D1*
X2737874Y1578075D1*
X2738842Y1577226D1*
X2739691Y1576259D1*
X2740407Y1575188D1*
X2740976Y1574033D1*
X2741390Y1572814D1*
X2741641Y1571552D1*
X2741725Y1570267D1*
X2741641Y1568982D1*
X2741390Y1567719D1*
X2740976Y1566500D1*
X2740407Y1565346D1*
X2739692Y1564275D1*
X2738843Y1563307D1*
X2737875Y1562458D1*
X2736804Y1561743D1*
X2735650Y1561173D1*
X2734431Y1560759D1*
X2733168Y1560508D1*
X2731883Y1560424D1*
D1*
X2730599Y1560508D1*
X2729336Y1560759D1*
X2728117Y1561173D1*
X2726962Y1561742D1*
X2725891Y1562458D1*
X2724923Y1563306D1*
X2724075Y1564274D1*
X2723359Y1565345D1*
X2722790Y1566499D1*
X2722376Y1567719D1*
X2722125Y1568981D1*
X2722040Y1570266D1*
X2722124Y1571551D1*
X2722376Y1572813D1*
X2722789Y1574033D1*
X2723359Y1575187D1*
X2724074Y1576258D1*
X2724923Y1577226D1*
X2725891Y1578075D1*
X2726961Y1578790D1*
X2728116Y1579360D1*
X2729335Y1579773D1*
X2730598Y1580025D1*
X2731882Y1580109D1*
D1*
G37*
X3248620Y1572429D2*
D13*
X3246258D1*
X3246270Y1414948D1*
X3248632D1*
X3588778Y1572454D2*
X3591140D1*
X3591151Y1414974D1*
X3588789Y1414973D1*
G36*
X3231312Y1366916D2*
X3231397Y1368200D1*
X3231648Y1369463D1*
X3232061Y1370682D1*
X3232631Y1371837D1*
X3233346Y1372908D1*
X3234195Y1373876D1*
X3235163Y1374725D1*
X3236233Y1375440D1*
X3237388Y1376009D1*
X3238607Y1376423D1*
X3239870Y1376675D1*
X3241154Y1376759D1*
X3242439Y1376675D1*
X3243702Y1376424D1*
X3244921Y1376010D1*
X3246076Y1375441D1*
X3247146Y1374725D1*
X3248114Y1373877D1*
X3248963Y1372909D1*
X3249678Y1371838D1*
X3250248Y1370684D1*
X3250662Y1369464D1*
X3250913Y1368202D1*
X3250998Y1366917D1*
D1*
X3250913Y1365632D1*
X3250662Y1364370D1*
X3250249Y1363150D1*
X3249679Y1361996D1*
X3248964Y1360925D1*
X3248115Y1359957D1*
X3247147Y1359108D1*
X3246077Y1358393D1*
X3244922Y1357823D1*
X3243703Y1357409D1*
X3242440Y1357158D1*
X3241156Y1357074D1*
X3239871Y1357158D1*
X3238608Y1357409D1*
X3237389Y1357823D1*
X3236234Y1358392D1*
X3235164Y1359107D1*
X3234196Y1359956D1*
X3233347Y1360924D1*
X3232631Y1361994D1*
X3232062Y1363149D1*
X3231648Y1364368D1*
X3231397Y1365631D1*
X3231312Y1366916D1*
D1*
G37*
X3423618Y1197424D2*
D13*
X3421256D1*
X3421272Y1039944D1*
X3423634D1*
X3763776Y1197458D2*
X3766138Y1197459D1*
X3766154Y1039978D1*
X3763791D1*
G36*
X3406316Y991911D2*
X3406400Y993195D1*
X3406651Y994458D1*
X3407065Y995677D1*
X3407634Y996832D1*
X3408349Y997903D1*
X3409198Y998871D1*
X3410166Y999720D1*
X3411236Y1000435D1*
X3412391Y1001005D1*
X3413610Y1001419D1*
X3414873Y1001670D1*
X3416157Y1001754D1*
X3417442Y1001670D1*
X3418705Y1001419D1*
X3419924Y1001005D1*
X3421079Y1000436D1*
X3422149Y999721D1*
X3423117Y998872D1*
X3423966Y997904D1*
X3424682Y996834D1*
X3425251Y995679D1*
X3425665Y994460D1*
X3425917Y993197D1*
X3426001Y991913D1*
D1*
X3425917Y990628D1*
X3425666Y989365D1*
X3425252Y988146D1*
X3424683Y986991D1*
X3423968Y985921D1*
X3423119Y984953D1*
X3422151Y984104D1*
X3421080Y983388D1*
X3419926Y982819D1*
X3418707Y982405D1*
X3417444Y982154D1*
X3416159Y982069D1*
X3414875Y982153D1*
X3413612Y982404D1*
X3412393Y982818D1*
X3411238Y983387D1*
X3410167Y984103D1*
X3409199Y984951D1*
X3408350Y985919D1*
X3407635Y986990D1*
X3407065Y988144D1*
X3406651Y989363D1*
X3406400Y990626D1*
X3406316Y991911D1*
D1*
G37*
X3593698Y833697D2*
D13*
X3593704Y753697D1*
X3603704Y743698D1*
X3683704Y743704D1*
X3693704Y753704D1*
X3693698Y833704D1*
X3683697Y843704D1*
X3603697Y843698D1*
X3593698Y833697D1*
X803704Y1693698D2*
X883704Y1693703D1*
X893703Y1703704D1*
X893698Y1783704D1*
X883698Y1793703D1*
X803698Y1793698D1*
X793698Y1783698D1*
X793703Y1703698D1*
X803704Y1693698D1*
X803703Y1193699D2*
X883703Y1193703D1*
X893703Y1203703D1*
X893699Y1283703D1*
X883698Y1293703D1*
X803698Y1293699D1*
X793699Y1283698D1*
X793703Y1203698D1*
X803703Y1193699D1*
X793698Y1883697D2*
X793704Y1803697D1*
X803704Y1793698D1*
X883704Y1793704D1*
X893704Y1803704D1*
X893698Y1883704D1*
X883697Y1893704D1*
X803697Y1893698D1*
X793698Y1883697D1*
X803702Y1393699D2*
X883702Y1393702D1*
X893702Y1403702D1*
X893699Y1483702D1*
X883699Y1493702D1*
X803699Y1493699D1*
X793699Y1483699D1*
X793702Y1403699D1*
X803702Y1393699D1*
X507903Y1097898D2*
X587903Y1097903D1*
X597903Y1107903D1*
X597898Y1187903D1*
X587897Y1197903D1*
X507897Y1197898D1*
X497898Y1187897D1*
X497903Y1107897D1*
X507903Y1097898D1*
X503702Y1393700D2*
X583702Y1393702D1*
X593702Y1403702D1*
X593700Y1483702D1*
X583700Y1493702D1*
X503700Y1493700D1*
X493700Y1483700D1*
X493702Y1403700D1*
X503702Y1393700D1*
X503701Y1193701D2*
X583701D1*
X593701Y1203701D1*
Y1283701D1*
X583701Y1293701D1*
X503701D1*
X493701Y1283701D1*
Y1203701D1*
X503701Y1193701D1*
X803703Y1293699D2*
X883703Y1293703D1*
X893703Y1303703D1*
X893699Y1383703D1*
X883698Y1393703D1*
X803698Y1393699D1*
X793699Y1383698D1*
X793703Y1303698D1*
X803703Y1293699D1*
X803702Y1493699D2*
X883702Y1493702D1*
X893702Y1503702D1*
X893699Y1583702D1*
X883699Y1593702D1*
X803699Y1593699D1*
X793699Y1583699D1*
X793702Y1503699D1*
X803702Y1493699D1*
X803703Y1097898D2*
X883703Y1097902D1*
X893703Y1107903D1*
X893699Y1187903D1*
X883698Y1197902D1*
X803698Y1197898D1*
X793699Y1187898D1*
X793703Y1107898D1*
X803703Y1097898D1*
X503702Y1293699D2*
X583702Y1293702D1*
X593702Y1303702D1*
X593699Y1383702D1*
X583699Y1393702D1*
X503699Y1393699D1*
X493699Y1383699D1*
X493702Y1303699D1*
X503702Y1293699D1*
X2493698Y1783698D2*
X2493703Y1703698D1*
X2503704Y1693698D1*
X2583704Y1693703D1*
X2593703Y1703704D1*
X2593698Y1783704D1*
X2583698Y1793703D1*
X2503698Y1793698D1*
X2493698Y1783698D1*
X1693698D2*
X1693703Y1703698D1*
X1703704Y1693698D1*
X1783704Y1693703D1*
X1793703Y1703704D1*
X1793698Y1783704D1*
X1783698Y1793703D1*
X1703698Y1793698D1*
X1693698Y1783698D1*
X493702Y1783702D2*
X493700Y1703702D1*
X503699Y1693702D1*
X583699Y1693700D1*
X593700Y1703699D1*
X593702Y1783699D1*
X583702Y1793700D1*
X503702Y1793702D1*
X493702Y1783702D1*
X893698Y1783697D2*
X893704Y1703697D1*
X903704Y1693698D1*
X983704Y1693704D1*
X993704Y1703704D1*
X993698Y1783704D1*
X983697Y1793704D1*
X903697Y1793698D1*
X893698Y1783697D1*
X2093698Y1783698D2*
X2093703Y1703698D1*
X2103704Y1693698D1*
X2183704Y1693703D1*
X2193703Y1703704D1*
X2193698Y1783704D1*
X2183698Y1793703D1*
X2103698Y1793698D1*
X2093698Y1783698D1*
X2897898D2*
X2897903Y1703698D1*
X2907903Y1693698D1*
X2987903Y1693703D1*
X2997903Y1703704D1*
X2997898Y1783704D1*
X2987897Y1793703D1*
X2907897Y1793698D1*
X2897898Y1783698D1*
X3293698D2*
X3293703Y1703698D1*
X3303704Y1693698D1*
X3383704Y1693703D1*
X3393703Y1703704D1*
X3393698Y1783704D1*
X3383698Y1793703D1*
X3303698Y1793698D1*
X3293698Y1783698D1*
X1293702Y1783702D2*
X1293700Y1703702D1*
X1303699Y1693702D1*
X1383699Y1693700D1*
X1393700Y1703699D1*
X1393702Y1783699D1*
X1383702Y1793700D1*
X1303702Y1793702D1*
X1293702Y1783702D1*
X2803704Y643698D2*
X2883704Y643703D1*
X2893703Y653704D1*
X2893698Y733704D1*
X2883698Y743703D1*
X2803698Y743698D1*
X2793698Y733698D1*
X2793703Y653698D1*
X2803704Y643698D1*
X2003704D2*
X2083704Y643703D1*
X2093703Y653704D1*
X2093698Y733704D1*
X2083698Y743703D1*
X2003698Y743698D1*
X1993698Y733698D1*
X1993703Y653698D1*
X2003704Y643698D1*
X807903Y647898D2*
X887903Y647903D1*
X897903Y657903D1*
X897898Y737903D1*
X887897Y747903D1*
X807897Y747898D1*
X797898Y737897D1*
X797903Y657897D1*
X807903Y647898D1*
X1207904Y647897D2*
X1287904Y647903D1*
X1297903Y657904D1*
X1297897Y737904D1*
X1287896Y747903D1*
X1207896Y747897D1*
X1197897Y737896D1*
X1197903Y657896D1*
X1207904Y647897D1*
X2403704Y643698D2*
X2483704Y643703D1*
X2493703Y653704D1*
X2493698Y733704D1*
X2483698Y743703D1*
X2403698Y743698D1*
X2393698Y733698D1*
X2393703Y653698D1*
X2403704Y643698D1*
X3203704D2*
X3283704Y643703D1*
X3293703Y653704D1*
X3293698Y733704D1*
X3283698Y743703D1*
X3203698Y743698D1*
X3193698Y733698D1*
X3193703Y653698D1*
X3203704Y643698D1*
X3603703Y643699D2*
X3683703Y643703D1*
X3693703Y653703D1*
X3693699Y733703D1*
X3683698Y743703D1*
X3603698Y743699D1*
X3593699Y733698D1*
X3593703Y653698D1*
X3603703Y643699D1*
X1603704Y643698D2*
X1683704Y643703D1*
X1693703Y653704D1*
X1693698Y733704D1*
X1683698Y743703D1*
X1603698Y743698D1*
X1593698Y733698D1*
X1593703Y653698D1*
X1603704Y643698D1*
X507898Y643702D2*
X587898Y643699D1*
X597899Y653699D1*
X597902Y733699D1*
X587902Y743699D1*
X507902Y743702D1*
X497902Y733703D1*
X497899Y653703D1*
X507898Y643702D1*
X3041146Y934645D2*
X3041145Y952755D1*
X3096264Y934647D2*
X3096263Y952757D1*
X3793707Y1393700D2*
D10*
X3893707Y1393702D1*
X3793694Y1893700D2*
X3793707Y1393700D1*
X3893694Y1893702D2*
X3893707Y1393702D1*
X3793694Y1893700D2*
X3893694Y1893702D1*
X593701Y1893701D2*
D17*
X793701D1*
Y1093701D1*
X593701D1*
Y1893701D1*
X1393701Y1693701D2*
Y1893701D1*
X1593701D1*
Y1693701D1*
X1793701D2*
Y1893701D1*
X1993701D1*
Y1093701D1*
X593701Y593701D2*
Y943701D1*
X793701D1*
Y593701D1*
X993701D2*
Y943701D1*
X1193701D1*
Y593701D1*
X2193701Y1693701D2*
Y1893701D1*
X2393701D1*
Y1693701D1*
X2593701D2*
Y1893701D1*
X2793701D1*
Y1693701D1*
X2993701D2*
Y1893701D1*
X3193701D1*
Y1693701D1*
X3393701Y1093701D2*
Y1893701D1*
X3593701D1*
Y1843701D1*
X1393701Y593701D2*
Y943701D1*
X1593701D1*
Y593701D1*
X1793701D2*
Y943701D1*
X1993701D1*
Y593701D1*
X2193701D2*
Y943701D1*
X2393701D1*
Y593701D1*
X2593701D2*
Y943701D1*
X2793701D1*
Y593701D1*
X2993701D2*
Y943701D1*
X3193701D1*
Y593701D1*
X3393701D2*
Y943701D1*
X3593701D1*
Y593701D1*
X993701Y1093701D2*
Y1893701D1*
X1193701D1*
Y1693701D1*
G36*
X1034499Y839733D2*
X1066702Y844963D1*
X1125740Y855423D1*
X1216981Y871113D1*
X1243817Y876343D1*
X1252762Y881572D1*
X1261707D1*
X1270652Y876343D1*
X1265285Y871113D1*
X1243817Y860653D1*
X1216981Y844963D1*
X1211614Y839733D1*
X1179411Y824043D1*
X970094Y756054D1*
X964727Y750824D1*
X1174044Y818813D1*
X1206247Y834503D1*
X1286754Y881572D1*
X1292121Y886802D1*
X1281387Y902492D1*
X1254551Y933872D1*
X1243817Y944332D1*
X1222348Y954792D1*
X1195513Y965252D1*
X1152576Y980941D1*
X1125740Y991401D1*
X1082803Y1007091D1*
X1029132Y1028011D1*
X986195Y1043701D1*
X975461D1*
X959360Y1038471D1*
X970094D1*
X974103Y1041830D1*
X976884Y1041524D1*
X980828Y1038471D1*
Y1012321D1*
X986195Y939102D1*
X991562Y871113D1*
X996929Y865883D1*
Y839733D1*
X991562Y834503D1*
X970094Y829273D1*
X894954Y808353D1*
X841283Y792663D1*
X835592Y786983D1*
X832813Y787832D1*
X830549Y792663D1*
Y829273D1*
X835916Y834503D1*
X841283Y944332D1*
Y991401D1*
X846650Y996631D1*
X911056Y1017551D1*
X970094Y1038471D1*
X959360D1*
X927157Y1028011D1*
X920613Y1022553D1*
X916423Y1022781D1*
X908372Y1033241D1*
Y1034548D1*
X903005D1*
Y1033241D1*
X910012Y1026489D1*
X911056Y1022781D1*
X900321Y1017551D1*
X852017Y1001861D1*
X841283Y996631D1*
X830549Y986171D1*
X834558Y989530D1*
X837339Y989225D1*
X841283Y986171D1*
Y944332D1*
X835916Y939102D1*
X830549Y829273D1*
Y792663D1*
X825182Y787433D1*
X814448Y782203D1*
X750042Y761284D1*
X674903Y735134D1*
X648067Y724674D1*
X640911Y719444D1*
X633755D1*
X626599Y724674D1*
Y735134D1*
X631966Y740364D1*
X642700Y771744D1*
X664168Y797893D1*
X707105Y844963D1*
X819815Y970482D1*
X821713Y973862D1*
X832447Y984322D1*
X828652Y988021D1*
X817917Y977561D1*
X707105Y850193D1*
X664168Y803123D1*
X642700Y776974D1*
X637333Y766514D1*
X626599Y735134D1*
Y724674D1*
X618705Y720324D1*
X625000Y723221D1*
X627844Y722380D1*
X629598Y717077D1*
X626485Y713769D1*
X623416Y714635D1*
X621232Y719444D1*
Y714214D1*
X680270Y708984D1*
X750042D1*
X809081Y719444D1*
X948625Y745594D1*
X953993Y750824D1*
X921790Y745594D1*
X782245Y719444D1*
X728574Y708984D1*
X701738D1*
X674903Y714214D1*
X642700Y719444D1*
X658801Y724674D1*
X809081Y776974D1*
X819815Y782203D1*
X825182Y787433D1*
X829191Y790792D1*
X831972Y790487D1*
X835916Y787433D1*
X857385Y792663D1*
X911056Y808353D1*
X948625Y818813D1*
X964727Y824043D1*
X1007664Y834503D1*
X1034499Y839733D1*
X1013031D1*
X1006487Y834275D1*
X1000281Y834951D1*
X996929Y839733D1*
Y865883D1*
X991562Y933872D1*
X986195Y1007091D1*
X980828Y1012321D1*
Y1038471D1*
X984837Y1041830D1*
X987618Y1041524D1*
X991562Y1038471D1*
X1002297Y1033241D1*
X1045234Y1017551D1*
X1098905Y996631D1*
X1141842Y980941D1*
X1168677Y970482D1*
X1211614Y954792D1*
X1227715Y949562D1*
X1249184Y939102D1*
X1253508Y932349D1*
X1254551Y928642D1*
X1281387Y897262D1*
X1284856Y890183D1*
X1281387Y886802D1*
X1249184Y881572D1*
X1157943Y865883D1*
X1039866Y844963D1*
X1013031Y839733D1*
X1034499D1*
G37*
G36*
X1152576Y844963D2*
X1157943Y839733D1*
Y829273D1*
X1168677Y839733D1*
Y850193D1*
X1152576D1*
Y844963D1*
X1158321Y848086D1*
X1162886Y847498D1*
X1167317Y842796D1*
X1167201Y838589D1*
X1163021Y834027D1*
X1160206Y834904D1*
X1157943Y839733D1*
X1152576Y844963D1*
G37*
G36*
X1002297Y818813D2*
X959360Y813583D1*
X937891Y808353D1*
X943258Y797893D1*
X959360Y776974D1*
X964727Y771744D1*
X970094D1*
X1013031Y787433D1*
X1034499Y797893D1*
X1023765Y813583D1*
Y808353D1*
X1028089Y801601D1*
X1029132Y797893D1*
X1018398Y792663D1*
X986195Y782203D1*
X975461Y776974D1*
X968917Y771516D1*
X962694Y772187D1*
X957608Y778241D1*
X959360Y782203D1*
X943258Y797893D1*
Y803123D1*
X953993Y808353D1*
X996929Y813583D1*
X1013031Y818813D1*
X1002297D1*
G37*
G36*
X900321Y797893D2*
X889587Y792663D1*
X857385Y782203D1*
X835916Y771744D1*
X857385Y750824D1*
X868119D1*
X911056Y761284D1*
X927157Y766514D1*
X921790Y776974D1*
X911056Y792663D1*
Y787433D1*
X921790Y776974D1*
X920026Y770629D1*
X916423Y766514D1*
X873486Y756054D1*
X866330Y750824D1*
X859173D1*
X852017Y756054D1*
X841283Y766514D1*
Y771744D1*
X852017Y776974D1*
X884220Y787433D1*
X894954Y792663D1*
X900321Y797893D1*
G37*
G36*
X739308Y735134D2*
X742778Y728055D1*
X737320Y724332D1*
X732026Y725106D1*
X728574Y729904D1*
X723207Y724674D1*
X750042D1*
X739308Y735134D1*
G37*
G36*
X3470980Y1993701D2*
X3416857Y1939675D1*
X3391878Y1902272D1*
X3371061Y1860714D1*
X3366898Y1848246D1*
X3362735Y1839935D1*
X3358571Y1827467D1*
X3350245Y1794220D1*
X3346081Y1773441D1*
X3341918Y1740194D1*
Y1694480D1*
X3346081Y1657077D1*
X3350245Y1636298D1*
X3354408Y1619675D1*
X3366898Y1582272D1*
X3396041Y1524090D1*
X3404367Y1511623D1*
X3429347Y1478376D1*
X3466817Y1440974D1*
X3487633Y1424350D1*
X3525103Y1399415D1*
X3566735Y1378636D1*
X3604205Y1366168D1*
X3633348Y1357857D1*
X3658328Y1353701D1*
X3758246D1*
X3779063Y1357857D1*
X3812369Y1366168D1*
X3849839Y1378636D1*
X3891472Y1399415D1*
X3912288Y1411883D1*
X3928941Y1424350D1*
X3953921Y1445129D1*
X3987227Y1478376D1*
Y1528246D1*
X3978900Y1519935D1*
X3966411Y1503311D1*
Y1499155D1*
X3928941Y1461753D1*
X3920615Y1457597D1*
X3903961Y1445129D1*
X3878982Y1428506D1*
X3874818Y1424350D1*
X3849839Y1411883D1*
X3824859Y1403571D1*
X3816532Y1399415D1*
X3804043Y1395259D1*
X3787389Y1391103D1*
X3766573Y1386948D1*
X3720777Y1382792D1*
X3712450Y1378636D1*
X3704124D1*
X3695797Y1382792D1*
X3650001Y1386948D1*
X3629185Y1391103D1*
X3612532Y1395259D1*
X3587552Y1403571D1*
X3570899Y1411883D1*
X3558409Y1416038D1*
X3541756Y1424350D1*
X3537592Y1428506D1*
X3512613Y1445129D1*
X3495960Y1457597D1*
X3487633Y1461753D1*
X3450164Y1499155D1*
Y1503311D1*
X3425184Y1536558D1*
X3416857Y1549025D1*
X3400204Y1582272D1*
X3396041Y1594740D1*
X3391878Y1603051D1*
X3387714Y1615519D1*
X3379388Y1648766D1*
X3375224Y1677857D1*
X3371061Y1682012D1*
Y1752662D1*
X3375224Y1756818D1*
X3379388Y1781753D1*
X3383551Y1802532D1*
X3387714Y1814999D1*
X3391878Y1831623D1*
X3396041Y1839935D1*
X3400204Y1852402D1*
X3412694Y1877337D1*
X3429347Y1902272D1*
X3441837Y1918896D1*
X3462653Y1943831D1*
Y1947987D1*
X3475143Y1960454D1*
X3483470Y1964610D1*
X3508449Y1985389D1*
X3516776Y1993701D1*
X3470980D1*
G37*
G36*
X3899798D2*
X3908125Y1985389D1*
X3928941Y1968766D1*
X3937268Y1964610D1*
X3958084Y1943831D1*
Y1939675D1*
X3978900Y1914740D1*
X3987227Y1902272D1*
Y1952142D1*
X3974737Y1968766D1*
X3970574Y1972922D1*
X3945594Y1993701D1*
X3899798D1*
G37*
G36*
X2990424Y1988464D2*
X2991796Y1986214D1*
X2995353Y1988375D1*
X2993981Y1990625D1*
X2990424Y1988464D1*
G37*
G36*
X2201179Y1839935D2*
Y1835779D1*
X2205342D1*
Y1839935D1*
X2201179D1*
G37*
G36*
X2317751Y1810844D2*
D1*
G37*
G36*
X2288608Y1744350D2*
X2263628Y1769285D1*
X2242811Y1785909D1*
X2238648D1*
X2234485Y1777597D1*
X2238648D1*
X2241757Y1780266D1*
X2243915Y1780023D1*
X2246975Y1777597D1*
X2263628Y1760974D1*
X2271954Y1756818D1*
X2274646Y1751192D1*
X2271954Y1748506D1*
X2246975Y1740194D1*
X2226158Y1731883D1*
X2217832Y1727727D1*
X2213417Y1723213D1*
X2211272Y1723879D1*
X2208554Y1728524D1*
X2210011Y1731059D1*
X2213668Y1736038D1*
X2221995Y1748506D1*
X2226158Y1756818D1*
X2234485Y1769285D1*
X2238648Y1777597D1*
X2234485D1*
X2230322Y1773441D1*
X2226158Y1765129D1*
X2209505Y1740194D1*
X2201179Y1723571D1*
X2221995D1*
X2234485Y1727727D1*
X2263628Y1740194D1*
X2268084Y1742676D1*
X2271626Y1742209D1*
X2275015Y1738423D1*
X2274715Y1735021D1*
X2271954Y1731883D1*
X2267791Y1723571D1*
X2255301Y1686168D1*
Y1677857D1*
X2250225Y1673520D1*
X2246975Y1673701D1*
X2205342Y1715259D1*
X2209505Y1719415D1*
X2221995Y1723571D1*
X2201179D1*
X2197015Y1719415D1*
X2251138Y1665389D1*
X2263628Y1669545D1*
X2280281Y1677857D1*
X2267791D1*
X2262715Y1673520D1*
X2257888Y1674053D1*
X2253923Y1678921D1*
X2255689Y1681363D1*
X2259465Y1686168D1*
X2267791Y1702792D1*
X2280281Y1740194D1*
X2283390Y1742863D1*
X2285548Y1742620D1*
X2288608Y1740194D1*
X2296934Y1727727D1*
X2305261Y1723571D1*
X2308615Y1718205D1*
X2309424Y1715259D1*
X2321914Y1702792D1*
X2288608Y1686168D1*
X2276118Y1682012D1*
X2267791Y1677857D1*
X2280281D1*
X2321914Y1694480D1*
X2326077Y1698636D1*
Y1702792D1*
X2313587Y1719415D1*
X2288608Y1744350D1*
X2280281D1*
X2275867Y1739836D1*
X2273715Y1740503D1*
X2270067Y1746534D1*
X2274857Y1747545D1*
X2277193Y1746930D1*
X2280281Y1744350D1*
X2288608D1*
G37*
G36*
X2674015Y1772361D2*
X2675387Y1770111D1*
X2678943Y1772271D1*
X2677571Y1774522D1*
X2674015Y1772361D1*
G37*
G36*
X2684119Y1382792D2*
X2679956Y1378636D1*
X2675793Y1370324D1*
X2667466Y1345389D1*
X2671630D1*
X2679956Y1353701D1*
X2696609Y1378636D1*
X2698707Y1382765D1*
X2700962Y1386603D1*
X2703918Y1389549D1*
X2705993Y1389251D1*
X2708192Y1385653D1*
X2707677Y1381791D1*
X2704936Y1378636D1*
X2696609Y1366168D1*
X2692446Y1353701D1*
X2688283Y1345389D1*
X2679956Y1332922D1*
X2671630Y1316298D1*
X2663303Y1303831D1*
Y1295519D1*
X2658889Y1291005D1*
X2656733Y1291680D1*
X2654976Y1295519D1*
Y1345389D1*
X2659140Y1349545D1*
X2663303Y1362012D1*
X2667466Y1370324D1*
X2675793Y1395259D1*
X2679956Y1403571D1*
X2688283Y1428506D1*
X2700773Y1453441D1*
X2704936Y1470064D1*
X2709099Y1478376D1*
X2717426Y1503311D1*
X2734079Y1536558D1*
X2738242Y1549025D1*
X2775712Y1623831D1*
X2779875Y1636298D1*
X2792365Y1661233D1*
X2800691Y1673701D1*
X2804855Y1686168D1*
X2806936Y1690324D1*
X2809208Y1694110D1*
X2813220Y1698546D1*
X2817345Y1702792D1*
Y1706948D1*
X2825671Y1715259D1*
X2833998Y1719415D1*
X2842324Y1731883D1*
X2833998D1*
X2829834Y1727727D1*
X2804855Y1698636D1*
X2796528Y1686168D1*
X2792365Y1673701D1*
X2754895Y1598896D1*
X2750732Y1586428D1*
X2738242Y1561493D1*
X2729916Y1549025D1*
X2725752Y1536558D1*
X2717426Y1519935D1*
X2713262Y1507467D1*
X2709099Y1499155D1*
X2704936Y1486688D1*
X2696609Y1470064D1*
X2692446Y1453441D1*
X2688283Y1445129D1*
X2679956Y1420194D1*
X2671630Y1403571D1*
X2667466Y1391103D1*
X2663303Y1382792D1*
X2650813Y1345389D1*
Y1291363D1*
X2667466D1*
X2692446Y1341233D1*
X2700773Y1353701D1*
X2721589Y1395259D1*
X2722269Y1398473D1*
X2724823Y1401880D1*
X2726875Y1401782D1*
X2729916Y1399415D1*
Y1386948D1*
X2725752Y1382792D1*
X2721589Y1370324D1*
X2717426Y1353701D1*
X2713262Y1341233D1*
X2709099Y1324610D1*
X2704936Y1312142D1*
X2700773Y1295519D1*
X2696609Y1283051D1*
X2692446Y1266428D1*
X2690931Y1261318D1*
X2686627Y1257795D1*
X2684119Y1258116D1*
X2675793Y1266428D1*
X2667466Y1270584D1*
X2654976Y1274740D1*
X2663303Y1283051D1*
X2667466Y1291363D1*
X2650813D1*
Y1270584D1*
X2654976Y1266428D1*
X2663303Y1262272D1*
X2684119Y1253961D1*
X2696609D1*
X2704936Y1258116D1*
X2721589Y1270584D1*
X2709099D1*
X2704685Y1266070D1*
X2702529Y1266745D1*
X2700773Y1270584D1*
Y1278896D1*
X2704936Y1283051D1*
X2709099Y1295519D1*
X2717426Y1328766D1*
X2721589Y1341233D1*
X2725752Y1357857D1*
X2734079Y1382792D1*
X2746569Y1432662D1*
X2750732Y1445129D1*
Y1453441D1*
X2753841Y1456110D1*
X2755999Y1455867D1*
X2759059Y1453441D1*
X2767385Y1445129D1*
X2788202Y1428506D1*
X2804855Y1416038D1*
X2829834Y1395259D1*
X2842324Y1386948D1*
X2850651Y1382792D1*
X2858977Y1374480D1*
X2854814Y1370324D1*
X2846487Y1366168D1*
X2829834Y1353701D1*
X2817345Y1345389D1*
X2800691Y1332922D1*
X2750732Y1299675D1*
X2734079Y1287207D1*
X2709099Y1270584D1*
X2721589D1*
X2771548Y1303831D1*
X2788202Y1316298D1*
X2800691Y1324610D1*
X2817345Y1337077D1*
X2867304Y1370324D1*
X2871467Y1382792D1*
X2867304D1*
X2862890Y1378278D1*
X2860734Y1378953D1*
X2858977Y1382792D1*
X2854814Y1386948D1*
X2833998Y1403571D1*
X2817345Y1416038D1*
X2796528Y1432662D1*
X2784038Y1440974D1*
X2775712Y1445129D1*
X2754895Y1465909D1*
X2759059Y1470064D1*
X2767385Y1486688D1*
X2771548Y1499155D1*
X2775712Y1507467D1*
X2779875Y1519935D1*
X2792365Y1544870D1*
Y1553181D1*
X2800691Y1561493D1*
X2804855D1*
X2817345Y1549025D1*
X2879794Y1507467D1*
X2900610Y1494999D1*
X2908937Y1490844D1*
X2911628Y1485218D1*
X2908937Y1482532D1*
X2896447Y1457597D1*
X2892284Y1445129D1*
X2888120Y1436818D1*
X2883957Y1424350D1*
X2879794Y1416038D1*
X2875630Y1403571D1*
X2871467Y1395259D1*
X2867304Y1382792D1*
X2871467D1*
X2883957Y1407727D1*
X2888120Y1420194D1*
X2892284Y1428506D1*
X2896447Y1440974D1*
X2904773Y1457597D1*
X2908937Y1470064D1*
X2917263Y1486688D1*
Y1499155D1*
X2913100D1*
X2908686Y1494642D1*
X2906530Y1495317D1*
X2904773Y1499155D1*
X2900610Y1503311D1*
X2825671Y1553181D1*
X2809018Y1561493D1*
X2800691Y1569805D1*
X2804855Y1573961D1*
X2821508Y1598896D1*
X2825671Y1607207D1*
X2850651Y1644610D1*
X2858977Y1661233D1*
X2883957Y1698636D1*
X2888120Y1706948D1*
X2888800Y1710162D1*
X2891354Y1713568D1*
X2893406Y1713471D1*
X2896447Y1711103D1*
Y1677857D1*
X2900610Y1636298D1*
X2908937Y1511623D1*
X2913100Y1499155D1*
X2917263D1*
Y1519935D1*
X2913100Y1569805D1*
X2908937Y1627987D1*
X2904773Y1682012D1*
X2900610Y1727727D1*
X2883957Y1744350D1*
X2863141Y1760974D1*
X2850651Y1748506D1*
X2863141D1*
X2866250Y1751175D1*
X2868407Y1750932D1*
X2871467Y1748506D1*
X2892284Y1727727D1*
X2890915Y1722685D1*
X2888120Y1719415D1*
X2879794Y1706948D1*
X2871467Y1690324D1*
X2858977Y1673701D1*
X2854814Y1665389D1*
X2846487Y1652922D1*
X2842324Y1644610D1*
X2833998Y1632142D1*
X2831899Y1627976D1*
X2829482Y1623635D1*
X2825414Y1619307D1*
X2823271Y1619991D1*
X2821508Y1623831D1*
Y1632142D1*
X2825671Y1636298D1*
X2829834Y1648766D1*
X2833998Y1657077D1*
X2838161Y1673701D1*
X2846487Y1698636D1*
X2850651Y1706948D1*
X2863141Y1744350D1*
Y1748506D1*
X2850651D1*
X2838161Y1736038D1*
X2846487D1*
X2849597Y1738707D1*
X2851653Y1738283D1*
X2852988Y1734163D1*
X2850563Y1731529D1*
X2848182Y1732217D1*
X2846487Y1736038D1*
X2838161D1*
X2833998Y1731883D1*
X2842324D1*
X2845433Y1734551D1*
X2847591Y1734309D1*
X2850651Y1731883D1*
Y1723571D1*
X2846487Y1719415D1*
X2833998Y1682012D1*
X2829834Y1673701D1*
X2821508Y1648766D1*
Y1640454D1*
X2817093Y1635940D1*
X2814938Y1636615D1*
X2813181Y1640454D1*
Y1648766D1*
X2809018D1*
X2804604Y1644252D1*
X2802452Y1644919D1*
X2798804Y1650949D1*
X2803594Y1651961D1*
X2805930Y1651345D1*
X2809018Y1648766D1*
X2813181D1*
Y1652922D1*
X2808767Y1648408D1*
X2806621Y1649074D1*
X2803914Y1653699D1*
X2805263Y1656463D1*
X2808048Y1659606D1*
X2810135Y1659462D1*
X2812716Y1656335D1*
X2813181Y1652922D1*
X2817345Y1661233D1*
X2821508Y1673701D1*
Y1690324D1*
X2817345D1*
X2792365Y1640454D1*
X2817345Y1636298D1*
Y1627987D1*
X2813181Y1623831D1*
Y1619675D1*
X2817345D1*
X2820454Y1622344D1*
X2822559Y1621995D1*
X2824807Y1618424D1*
X2824525Y1614637D1*
X2821278Y1610983D1*
X2819113Y1611673D1*
X2816436Y1616247D1*
X2817345Y1619675D1*
X2813181D1*
X2809018Y1611363D1*
X2813181D1*
X2816290Y1614032D1*
X2818396Y1613684D1*
X2820644Y1610112D1*
X2820362Y1606325D1*
X2817115Y1602671D1*
X2814949Y1603361D1*
X2812273Y1607936D1*
X2813181Y1611363D1*
X2809018D1*
X2804855Y1598896D1*
X2809018D1*
X2812127Y1601564D1*
X2814183Y1601140D1*
X2815519Y1597020D1*
X2813093Y1594387D1*
X2810712Y1595074D1*
X2809018Y1598896D1*
X2804855D1*
X2800691Y1586428D1*
X2796528Y1578116D1*
X2792365Y1565649D1*
X2788202Y1557337D1*
X2784038Y1544870D1*
X2779875Y1536558D1*
X2775712Y1524090D1*
X2763222Y1499155D1*
X2759059Y1486688D1*
X2750732Y1470064D1*
X2746569Y1457597D1*
X2738242Y1445129D1*
X2725752Y1420194D1*
Y1416038D1*
X2729916D1*
X2733025Y1418707D1*
X2735081Y1418283D1*
X2736417Y1414163D1*
X2733991Y1411529D1*
X2731610Y1412217D1*
X2729916Y1416038D1*
X2725752D1*
X2721589Y1411883D1*
Y1407727D1*
X2725752D1*
X2728861Y1410396D1*
X2730967Y1410047D1*
X2733215Y1406476D1*
X2732933Y1402689D1*
X2729686Y1399035D1*
X2727520Y1399725D1*
X2724844Y1404299D1*
X2725752Y1407727D1*
X2721589D1*
X2717426Y1403571D1*
X2713262Y1395259D1*
X2712205Y1390356D1*
X2708856Y1386564D1*
X2706710Y1387255D1*
X2704027Y1391833D1*
X2704936Y1395259D1*
X2688283D1*
X2684119Y1391103D1*
Y1386948D1*
X2688283D1*
X2691392Y1389616D1*
X2693448Y1389192D1*
X2694784Y1385072D1*
X2692358Y1382438D1*
X2689977Y1383126D1*
X2688283Y1386948D1*
X2684119D1*
Y1382792D1*
X2687229Y1385461D1*
X2689334Y1385112D1*
X2691582Y1381541D1*
X2691300Y1377754D1*
X2688053Y1374100D1*
X2685888Y1374790D1*
X2683211Y1379364D1*
X2684119Y1382792D1*
G37*
G36*
X2615729Y1739114D2*
X2617101Y1736864D1*
X2620657Y1739024D1*
X2619285Y1741275D1*
X2615729Y1739114D1*
G37*
G36*
X1401828Y1702792D2*
D1*
G37*
G36*
X2567548Y1690324D2*
D1*
G37*
G36*
X1659952Y1553181D2*
X1655015Y1557853D1*
X1655789Y1561493D1*
X1634972Y1603051D1*
X1601666Y1636298D1*
X1597503D1*
X1589176Y1627987D1*
X1593339D1*
X1597788Y1630761D1*
X1601666Y1632142D1*
X1626646Y1607207D1*
X1605829Y1603051D1*
X1600753Y1598714D1*
X1595939Y1599252D1*
X1593339Y1603051D1*
X1588925Y1598538D1*
X1586769Y1599213D1*
X1585013Y1603051D1*
X1576686Y1598896D1*
X1568360D1*
X1560033Y1603051D1*
X1568360Y1607207D1*
X1589176Y1623831D1*
X1593339Y1627987D1*
X1589176D1*
X1580849Y1623831D1*
X1564196Y1611363D1*
X1551706Y1598896D1*
X1555870Y1594740D1*
X1560033D1*
X1582237Y1598896D1*
X1604442D1*
X1626646Y1594740D1*
X1618319Y1586428D1*
X1593339Y1553181D1*
X1588925Y1548668D1*
X1586779Y1549334D1*
X1584106Y1553909D1*
X1585013Y1557337D1*
X1572523Y1573961D1*
X1568360Y1582272D1*
X1560033Y1594740D1*
X1555870D1*
Y1590584D1*
X1580849Y1553181D1*
X1585013Y1549025D1*
X1593339D1*
X1596448Y1551694D1*
X1598505Y1551270D1*
X1599840Y1547150D1*
X1597414Y1544516D1*
X1595033Y1545204D1*
X1593339Y1549025D1*
X1585013D1*
X1589176Y1544870D1*
X1659952D1*
Y1553181D1*
X1655789D1*
X1636360Y1549025D1*
X1616931D1*
X1597503Y1553181D1*
X1605829Y1561493D1*
X1626646Y1586428D1*
X1627325Y1589642D1*
X1629879Y1593049D1*
X1631931Y1592951D1*
X1634773Y1590164D1*
X1637006Y1586347D1*
X1651625Y1557337D1*
X1655789Y1553181D1*
X1659952D1*
G37*
G36*
X2482504Y1626906D2*
X2483876Y1624656D1*
X2487432Y1626817D1*
X2486060Y1629067D1*
X2482504Y1626906D1*
G37*
G36*
X2334404Y1603051D2*
X2333035Y1598010D1*
X2330240Y1594740D1*
Y1586428D1*
X2338567Y1578116D1*
X2351057D1*
X2355220Y1582272D1*
X2359383Y1590584D1*
Y1594740D1*
X2351057Y1603051D1*
X2334404D1*
G37*
G36*
X2729916Y1507467D2*
Y1499155D1*
X2725752Y1494999D1*
X2721589Y1482532D1*
X2717426Y1474220D1*
X2713262Y1461753D1*
X2709099Y1453441D1*
X2704936Y1440974D1*
Y1436818D1*
X2717426Y1432662D1*
X2721589D1*
X2725752Y1436818D1*
X2738242Y1461753D1*
X2742405Y1474220D1*
X2759059Y1507467D1*
Y1511623D1*
X2750732Y1515779D1*
X2763222Y1519935D1*
X2767385Y1524090D1*
X2775712Y1549025D1*
X2779875Y1557337D1*
X2784038Y1569805D1*
X2788202Y1578116D1*
X2792365Y1590584D1*
Y1598896D1*
X2779875Y1603051D1*
X2775712D1*
X2771548Y1594740D1*
X2775712D1*
X2780168Y1597221D1*
X2783709Y1596755D1*
X2787099Y1592968D1*
X2786798Y1589567D1*
X2784038Y1586428D1*
X2779875Y1573961D1*
X2775712Y1565649D1*
X2771548Y1553181D1*
X2763222Y1536558D1*
Y1528246D1*
X2757671Y1524090D1*
X2752120D1*
X2746569Y1528246D1*
X2747378Y1531192D1*
X2750732Y1536558D1*
X2767385Y1569805D1*
X2771548Y1582272D1*
X2775712Y1590584D1*
Y1594740D1*
X2771548D1*
X2759059Y1569805D1*
X2754895Y1557337D1*
X2742405Y1532402D1*
Y1524090D1*
X2750732Y1519935D1*
X2734079Y1515779D1*
X2729916Y1507467D1*
X2738242D1*
X2743793Y1511623D1*
X2749344D1*
X2754895Y1507467D1*
X2750732Y1503311D1*
X2725752Y1453441D1*
Y1445129D1*
X2717426Y1436818D1*
X2712349Y1436999D1*
X2707834Y1442302D1*
X2713262Y1445129D1*
X2717426Y1457597D1*
X2721589Y1465909D1*
X2725752Y1478376D1*
X2734079Y1494999D1*
X2738242Y1507467D1*
X2729916D1*
G37*
G36*
X2217832Y1594740D2*
X2209505Y1590584D1*
Y1586428D1*
X2212655Y1580838D1*
X2212238Y1577095D1*
X2209505Y1573961D1*
X2205091Y1569447D1*
X2202945Y1570113D1*
X2200271Y1574689D1*
X2201179Y1578116D1*
X2188689D1*
X2180362Y1569805D1*
X2184525Y1561493D1*
X2188689Y1557337D1*
X2192852D1*
X2201179Y1561493D1*
X2205635Y1563974D1*
X2209176Y1563508D1*
X2212566Y1559721D1*
X2212265Y1556320D1*
X2209505Y1553181D1*
Y1540714D1*
X2221995D1*
X2226158Y1544870D1*
Y1561493D1*
X2229267Y1564162D1*
X2231425Y1563919D1*
X2234485Y1561493D1*
X2238648Y1536558D1*
X2255301Y1532402D1*
Y1519935D1*
X2259465Y1515779D1*
X2267791D1*
Y1532402D1*
X2251138Y1536558D1*
X2251947Y1539504D1*
X2255301Y1544870D1*
Y1549025D1*
X2251138Y1557337D1*
X2234485Y1561493D1*
X2229548Y1566165D1*
X2230322Y1569805D1*
X2225384Y1574477D1*
X2226670Y1577252D1*
X2230322Y1582272D1*
Y1586428D1*
X2226158Y1594740D1*
X2217832D1*
G37*
G36*
X2244893Y1578116D2*
Y1573961D1*
X2249056D1*
Y1578116D1*
X2244893D1*
G37*
G36*
X2367710Y1565649D2*
X2363547Y1561493D1*
Y1549025D1*
X2371873Y1540714D1*
X2380200D1*
X2388526Y1549025D1*
Y1557337D1*
X2384363Y1561493D1*
X2376037Y1565649D1*
X2367710D1*
G37*
G36*
X2192852Y1549025D2*
X2184525Y1540714D1*
Y1536558D1*
X2188689Y1528246D1*
X2192852D1*
X2201179Y1532402D1*
Y1536558D1*
X2197015Y1544870D1*
X2192852Y1549025D1*
G37*
G36*
X2288608Y1490844D2*
X2296934Y1482532D1*
Y1465909D1*
X2301097Y1461753D1*
X2317751Y1453441D1*
X2330240D1*
X2338567Y1461753D1*
Y1465909D1*
X2334404Y1474220D1*
X2317751Y1478376D1*
Y1486688D1*
X2330240Y1490844D1*
X2334404Y1494999D1*
Y1511623D1*
X2330240Y1528246D1*
X2326077Y1532402D1*
X2317751D1*
X2313587Y1528246D1*
Y1515779D1*
X2316278Y1510153D1*
X2312045Y1507195D1*
X2307939Y1507810D1*
X2305261Y1511623D1*
X2288608D1*
X2284444Y1499155D1*
X2288608Y1490844D1*
X2305261D1*
X2309717Y1493325D1*
X2313168Y1492686D1*
X2315099Y1488155D1*
X2312306Y1486472D1*
X2307873Y1487041D1*
X2305261Y1490844D1*
X2288608D1*
G37*
G36*
X2380200Y1532402D2*
X2378831Y1527360D1*
X2376037Y1524090D1*
X2380200Y1519935D1*
Y1511623D1*
X2371873Y1503311D1*
Y1494999D1*
X2380200Y1486688D1*
X2388526D1*
X2396853Y1494999D1*
Y1499155D1*
X2392690Y1507467D1*
X2384363Y1511623D1*
X2392690Y1519935D1*
Y1532402D1*
X2380200D1*
G37*
G36*
X2405179Y1524090D2*
X2403811Y1519049D1*
X2401016Y1515779D1*
Y1511623D1*
X2409343Y1503311D1*
X2413506D1*
X2421833Y1507467D1*
Y1519935D1*
X2417669Y1524090D1*
X2405179D1*
G37*
G36*
X2442649Y1515779D2*
X2438486Y1511623D1*
Y1503311D1*
X2442649Y1499155D1*
X2446812D1*
X2450976Y1503311D1*
Y1511623D1*
X2446812Y1515779D1*
X2442649D1*
G37*
G36*
X1372685Y1407727D2*
X1347706Y1416038D1*
X1339379Y1420194D1*
X1306073Y1432662D1*
X1285256Y1445129D1*
X1235297D1*
X1260277Y1436818D1*
X1268603Y1432662D1*
X1285256Y1416038D1*
X1297746D1*
X1300855Y1418707D1*
X1302912Y1418283D1*
X1304247Y1414163D1*
X1301821Y1411529D1*
X1299440Y1412217D1*
X1297746Y1416038D1*
X1285256D1*
X1289420Y1411883D1*
X1301909D1*
X1306366Y1414364D1*
X1309981Y1414097D1*
X1314399Y1411883D1*
X1326889Y1403571D1*
X1364359Y1382792D1*
X1397665Y1366168D1*
X1401828Y1362012D1*
X1464278Y1328766D1*
X1555870Y1278896D1*
X1618319Y1245649D1*
X1647462Y1229025D1*
X1709911Y1195779D1*
X1755707Y1170844D1*
X1793177Y1150064D1*
X1851463Y1120974D1*
X1855626Y1116818D1*
X1863953Y1112662D1*
X1813993Y1100194D1*
X1726564Y1075259D1*
X1664115Y1058636D1*
X1622482Y1046168D1*
X1609992Y1042012D1*
X1603053Y1037857D1*
X1596115D1*
X1589176Y1042012D1*
X1572523Y1058636D1*
Y1062792D1*
X1560033Y1079415D1*
X1543380Y1100194D1*
X1535053Y1112662D1*
X1518400Y1133441D1*
X1493420Y1166688D1*
X1476767Y1187467D1*
X1468441Y1199935D1*
X1447624Y1220714D1*
Y1224870D1*
X1435135Y1241493D1*
X1418481Y1262272D1*
X1393502Y1295519D1*
X1376849Y1316298D1*
X1368522Y1328766D1*
X1347706Y1353701D1*
X1339379Y1366168D1*
X1322726Y1386948D1*
X1314399Y1399415D1*
X1301909Y1411883D1*
X1289420D1*
X1297746Y1395259D1*
X1322726Y1370324D1*
Y1366168D1*
X1331052Y1353701D1*
X1351869Y1328766D1*
X1360195Y1316298D1*
X1376849Y1295519D1*
X1426808Y1229025D1*
X1443461Y1208246D1*
X1455951Y1191623D1*
X1464278Y1179155D1*
X1485094Y1158376D1*
Y1154220D1*
X1497584Y1137597D1*
X1514237Y1116818D1*
X1539217Y1083571D1*
X1555870Y1062792D1*
X1564196Y1050324D1*
X1576686Y1037857D1*
X1639135D1*
X1672442Y1046168D1*
X1759871Y1071103D1*
X1851463Y1096038D1*
X1859789Y1100194D1*
X1865340Y1104350D1*
X1870892D1*
X1876443Y1100194D1*
Y1050324D1*
X1888932Y863311D1*
X1893096Y805129D1*
X1897259Y738636D1*
X1901422Y692922D1*
X1909749Y576558D1*
X1913912Y572402D1*
Y551623D1*
X1909498Y547109D1*
X1907352Y547775D1*
X1904678Y552351D1*
X1905586Y555779D1*
X1901422Y564090D1*
X1876443Y601493D1*
X1872279Y609805D1*
X1838973Y659675D1*
X1834810Y667987D1*
X1822320Y684610D1*
X1813993Y697077D1*
X1809830Y705389D1*
X1751544Y792662D1*
X1747381Y800974D1*
X1714074Y850844D1*
X1709911Y859155D1*
X1701585Y871623D1*
X1689095Y888246D1*
X1680768Y900714D1*
X1676605Y909025D1*
X1643299Y958896D1*
X1639135Y967207D1*
X1626646Y983831D1*
X1622482Y992142D1*
X1605829Y1017077D1*
X1597503Y1025389D1*
X1614156Y1029545D1*
X1639135Y1037857D1*
X1576686D1*
X1580849Y1029545D1*
X1647462Y929805D1*
X1651625Y921493D1*
X1684932Y871623D1*
X1689095Y863311D1*
X1755707Y763571D1*
X1759871Y755259D1*
X1793177Y705389D1*
X1797340Y697077D1*
X1805667Y684610D1*
X1818157Y667987D1*
X1822320Y659675D1*
X1847300Y622272D1*
X1851463Y613961D1*
X1859789Y601493D1*
X1872279Y584870D1*
X1880606Y572402D1*
X1884769Y564090D1*
X1893096Y551623D1*
X1897259Y543311D1*
X1913912Y518376D1*
X1918075Y505909D1*
X1922239Y489285D1*
X1926402Y476818D1*
X1930565Y460194D1*
X1934729Y451883D1*
X1938892Y439415D1*
X1943055Y422792D1*
X1947218Y410324D1*
X1951382Y393701D1*
X1963871D1*
Y402012D1*
X1959708Y414480D1*
X1955545Y431103D1*
X1943055Y468506D1*
X1938892Y485129D1*
X1933955Y489801D1*
X1935136Y492805D1*
X1937915Y495975D1*
X1940007Y495828D1*
X1943055Y493441D1*
X1951382Y485129D1*
X1959708Y480974D1*
X1963062Y475608D1*
X1963871Y472662D1*
X1997178Y443571D1*
X2047137Y397857D1*
X2055464Y393701D1*
X2072117D1*
X2063790Y402012D1*
X2017994Y443571D1*
X1968035Y489285D1*
X1959708Y493441D1*
X1930565Y522532D1*
Y530844D1*
X1934729Y534999D1*
X1943055Y551623D1*
X1930565D1*
X1926151Y547109D1*
X1923999Y547776D1*
X1920351Y553806D1*
X1925141Y554818D1*
X1927477Y554202D1*
X1930565Y551623D1*
X1943055D1*
X1947218Y559935D1*
X1934729D1*
X1929652Y555598D1*
X1924839Y556135D1*
X1922239Y559935D1*
Y609805D1*
X1913912Y717857D1*
X1905586Y834220D1*
X1901422Y900714D1*
X1897259Y954740D1*
X1888932Y1071103D1*
X1884769Y1075259D1*
Y1096038D1*
X1887878Y1098707D1*
X1890036Y1098465D1*
X1893096Y1096038D1*
X1901422Y1087727D1*
X1913912Y1079415D1*
X1980525Y1029545D1*
X2005504Y1012922D1*
X2026321Y996298D1*
X2063790Y971363D1*
X2072117Y963051D1*
X2097097Y946428D1*
X2105423Y942272D1*
X2117913Y929805D1*
X2116544Y924763D1*
X2113750Y921493D1*
X1938892Y572402D1*
X1934729Y559935D1*
X1947218D1*
X1993014Y651363D1*
X1997178Y663831D1*
X2005504Y680454D1*
X2013831Y692922D1*
X2017994Y705389D1*
X2113750Y896558D1*
X2114430Y899772D1*
X2116983Y903179D1*
X2119035Y903081D1*
X2122076Y900714D1*
Y651363D1*
X2126240Y393701D1*
X2134566D1*
Y697077D1*
X2130403Y929805D1*
X2126240Y938116D1*
X2117913Y950584D1*
X2105423Y963051D1*
X2097097D1*
X2092682Y958538D1*
X2090526Y959213D1*
X2088770Y963051D1*
X2080443Y971363D1*
X2067954Y979675D1*
X2034647Y1004610D1*
X2022157Y1012922D1*
X2001341Y1029545D1*
X1988851Y1037857D1*
X1972198Y1050324D1*
X1959708Y1058636D1*
X1926402Y1083571D1*
X1913912Y1091883D1*
X1897259Y1104350D1*
X1888932Y1108506D1*
X1883297Y1114131D1*
X1888932Y1116818D1*
X1893096Y1129285D1*
X1901422Y1141753D1*
X1905586Y1154220D1*
X1918075Y1179155D1*
X1918938Y1181975D1*
X1922710Y1185412D1*
X1926096Y1185212D1*
X1929651Y1181747D1*
X1930565Y1179155D1*
X1943055Y1162532D1*
X1959708Y1141753D1*
X1997178Y1091883D1*
X2013831Y1071103D1*
X2022157Y1058636D1*
X2038811Y1037857D1*
X2051300Y1021233D1*
X2072117Y996298D1*
X2080443Y983831D1*
X2097097Y963051D1*
X2105423D1*
Y967207D1*
X2088770Y987987D1*
X2080443Y1000454D1*
X2059627Y1025389D1*
X2051300Y1037857D1*
X2038811Y1054480D1*
X2022157Y1075259D1*
X2009668Y1091883D1*
X1993014Y1112662D1*
X1955545Y1162532D1*
X1938892Y1183311D1*
X1934729Y1187467D1*
X1909749D1*
X1905586Y1179155D1*
X1897259Y1166688D1*
X1893096Y1154220D1*
X1880606Y1129285D1*
Y1125129D1*
X1875055Y1120974D1*
X1869504D1*
X1863953Y1125129D1*
X1834810Y1141753D1*
X1789014Y1166688D1*
X1726564Y1199935D1*
X1689095Y1220714D1*
X1634972Y1249805D1*
X1605829Y1266428D1*
X1547543Y1295519D1*
X1543380Y1299675D1*
X1480931Y1332922D1*
X1443461Y1353701D1*
X1389338Y1382792D1*
X1372685Y1391103D1*
X1378236Y1395259D1*
X1383788D1*
X1389338Y1391103D1*
X1464278Y1362012D1*
X1526727Y1341233D1*
X1535053Y1337077D1*
X1555870Y1328766D1*
X1605829Y1312142D1*
X1614156Y1307987D1*
X1714074Y1270584D1*
X1759871Y1253961D1*
X1893096Y1204090D1*
X1905586Y1199935D1*
X1913912Y1195779D1*
X1912544Y1190737D1*
X1909749Y1187467D1*
X1934729D1*
X1926402Y1199935D1*
X1922239Y1204090D1*
X1905586Y1212402D1*
X1843136Y1241493D1*
X1826483D1*
X1822069Y1236979D1*
X1819917Y1237646D1*
X1816269Y1243676D1*
X1821059Y1244688D1*
X1823395Y1244073D1*
X1826483Y1241493D1*
X1843136D1*
X1834810Y1245649D1*
X1818157D1*
X1813742Y1241135D1*
X1811591Y1241802D1*
X1807943Y1247832D1*
X1812732Y1248844D1*
X1815069Y1248228D1*
X1818157Y1245649D1*
X1834810D1*
X1826483Y1249805D1*
X1809830D1*
X1804754Y1245468D1*
X1800777Y1245804D1*
X1796030Y1251163D1*
X1801610Y1252792D1*
X1805388Y1252192D1*
X1809830Y1249805D1*
X1826483D1*
X1768197Y1278896D1*
X1755707Y1283051D1*
X1739054Y1291363D1*
X1734891Y1295519D1*
X1726564Y1299675D1*
X1605829Y1357857D1*
X1589176Y1366168D1*
X1576686Y1370324D1*
X1526727Y1395259D1*
X1522563Y1399415D1*
X1443461Y1436818D1*
X1430971Y1440974D1*
X1405992Y1453441D1*
X1401828Y1457597D1*
X1306073Y1503311D1*
X1264440D1*
X1222807Y1499155D1*
X1189501Y1494999D1*
X1281093D1*
X1284202Y1497668D1*
X1286308Y1497320D1*
X1288512Y1493705D1*
X1287997Y1489843D1*
X1285256Y1486688D1*
X1276930Y1461753D1*
Y1453441D1*
X1268603Y1445129D1*
X1262501Y1445551D1*
X1260277Y1449285D1*
X1239460Y1457597D1*
X1181174Y1478376D1*
X1168684Y1482532D1*
X1210317Y1486688D1*
X1281093Y1494999D1*
X1189501D1*
X1152031Y1490844D1*
X1143705Y1486688D1*
Y1478376D1*
X1152031Y1461753D1*
X1168684Y1436818D1*
X1177011Y1420194D1*
X1193664Y1395259D1*
X1197827Y1386948D1*
X1206154Y1374480D1*
X1214481Y1357857D1*
X1222807Y1345389D1*
X1231134Y1328766D1*
X1239460Y1316298D1*
X1243624Y1307987D1*
X1260277Y1283051D1*
X1272766Y1258116D1*
X1289420Y1233181D1*
X1297746Y1216558D1*
X1306073Y1204090D1*
X1310236Y1195779D1*
X1318563Y1183311D1*
X1331052Y1158376D1*
X1347706Y1133441D1*
X1351869Y1125129D1*
X1360195Y1112662D1*
X1368522Y1096038D1*
X1385175Y1071103D1*
X1397665Y1046168D1*
X1405992Y1033701D1*
X1410155Y1025389D1*
X1418481Y1012922D1*
X1426808Y996298D1*
X1451788Y963051D1*
X1455951Y954740D1*
X1472604Y929805D1*
X1485094Y913181D1*
X1526727Y850844D1*
X1539217Y834220D1*
X1597503Y746948D1*
X1609992Y730324D1*
X1626646Y709545D1*
X1639135Y692922D1*
X1659952Y667987D1*
X1672442Y651363D1*
X1705748Y609805D1*
X1718238Y593181D1*
X1739054Y568246D1*
X1755707Y547467D1*
X1768197Y530844D1*
X1789014Y505909D1*
X1797340Y493441D1*
X1822320Y468506D1*
Y464350D1*
X1830646Y451883D1*
X1863953Y410324D1*
X1880606Y393701D1*
X1893096D1*
X1843136Y456038D1*
X1834810Y468506D1*
X1809830Y497597D1*
X1793177Y518376D1*
X1768197Y551623D1*
X1747381Y572402D1*
Y576558D1*
X1734891Y593181D1*
X1714074Y613961D1*
Y618116D1*
X1701585Y634740D1*
X1680768Y655519D1*
Y659675D1*
X1668278Y676298D1*
X1647462Y701233D1*
X1634972Y717857D1*
X1618319Y738636D1*
X1609992Y751103D1*
X1597503Y767727D1*
X1572523Y805129D1*
X1560033Y821753D1*
X1526727Y871623D1*
X1514237Y888246D1*
X1505910Y900714D1*
X1501747Y909025D1*
X1489257Y925649D1*
X1485094Y933961D1*
X1460114Y967207D1*
X1426808Y1017077D1*
X1418481Y1033701D1*
X1410155Y1046168D1*
X1401828Y1062792D1*
X1393502Y1075259D1*
X1389338Y1083571D1*
X1381012Y1096038D1*
X1376849Y1104350D1*
X1368522Y1116818D1*
X1360195Y1133441D1*
X1351869Y1145909D1*
X1347706Y1154220D1*
X1339379Y1166688D1*
X1335216Y1174999D1*
X1318563Y1199935D1*
X1301909Y1233181D1*
X1285256Y1258116D1*
X1281093Y1266428D1*
X1272766Y1278896D1*
X1268603Y1287207D1*
X1260277Y1299675D1*
X1256113Y1307987D1*
X1247787Y1320454D1*
X1235297Y1345389D1*
X1226970Y1357857D1*
X1222807Y1366168D1*
X1214481Y1378636D1*
X1210317Y1386948D1*
X1193664Y1411883D1*
X1189501Y1420194D1*
X1181174Y1432662D1*
X1168684Y1457597D1*
X1160358Y1465909D1*
X1161038Y1469123D1*
X1163591Y1472529D1*
X1165644Y1472432D1*
X1168684Y1470064D1*
X1197827Y1457597D1*
X1235297Y1445129D1*
X1285256D1*
X1297746Y1482532D1*
Y1490844D1*
X1302203Y1493325D1*
X1305818Y1493058D1*
X1326889Y1482532D1*
X1339379Y1478376D1*
X1364359Y1465909D1*
X1368522Y1461753D1*
X1464278Y1416038D1*
X1476767Y1411883D1*
X1501747Y1399415D1*
X1505910Y1395259D1*
X1560033Y1370324D1*
X1643299Y1328766D1*
X1780687Y1262272D1*
X1793177Y1258116D1*
X1801503Y1253961D1*
X1795953Y1249805D1*
X1790401D1*
X1784850Y1253961D1*
X1755707Y1266428D1*
X1709911Y1283051D1*
X1672442Y1295519D1*
X1664115Y1299675D1*
X1618319Y1316298D1*
X1576686Y1332922D1*
X1518400Y1353701D1*
X1485094Y1366168D1*
X1439298Y1382792D1*
X1418481Y1391103D1*
X1405992Y1395259D1*
X1376849D1*
X1371772Y1390922D1*
X1367795Y1391258D1*
X1363049Y1396618D1*
X1368629Y1398247D1*
X1372406Y1397647D1*
X1376849Y1395259D1*
X1405992D1*
X1393502Y1399415D1*
X1368522D1*
X1363446Y1395078D1*
X1359469Y1395414D1*
X1354722Y1400774D1*
X1360302Y1402403D1*
X1364080Y1401803D1*
X1368522Y1399415D1*
X1393502D1*
X1385175Y1403571D1*
X1360195D1*
X1355119Y1399234D1*
X1351142Y1399570D1*
X1346396Y1404929D1*
X1351976Y1406559D1*
X1355753Y1405958D1*
X1360195Y1403571D1*
X1385175D1*
X1372685Y1407727D1*
X1347706D1*
X1343291Y1403213D1*
X1341140Y1403880D1*
X1337492Y1409910D1*
X1342281Y1410922D1*
X1344618Y1410306D1*
X1347706Y1407727D1*
X1372685D1*
G37*
G36*
X2163709Y1494999D2*
X2155383Y1486688D1*
Y1478376D1*
X2159546Y1474220D1*
X2167872Y1470064D1*
X2159546Y1465909D1*
X2147056Y1453441D1*
Y1445129D1*
X2159546Y1440974D1*
X2163709D1*
X2176199Y1449285D1*
Y1461753D1*
X2167872Y1470064D1*
X2172329Y1472546D1*
X2175944Y1472279D1*
X2180362Y1470064D1*
X2184525D1*
X2185205Y1473279D1*
X2187759Y1476685D1*
X2189811Y1476587D1*
X2192852Y1474220D1*
X2205342D1*
X2209505Y1478376D1*
Y1490844D1*
X2205342Y1494999D1*
X2188689D1*
X2183612Y1490662D1*
X2178799Y1491200D1*
X2176199Y1494999D1*
X2163709D1*
G37*
G36*
X2205342Y1353701D2*
X2213668Y1345389D1*
X2212611Y1340486D1*
X2209262Y1336694D1*
X2207106Y1337394D1*
X2205342Y1341233D1*
X2197015D1*
X2192601Y1336720D1*
X2190445Y1337395D1*
X2188689Y1341233D1*
X2176199D1*
X2172036Y1337077D1*
Y1332922D1*
X2176199Y1324610D1*
X2188689D1*
X2192852Y1328766D1*
X2195961Y1331435D1*
X2198119Y1331192D1*
X2201179Y1328766D1*
X2209505D1*
X2212614Y1331435D1*
X2214772Y1331192D1*
X2217634Y1328352D1*
X2219866Y1324530D1*
X2221995Y1320454D1*
X2226158D1*
X2238648Y1324610D1*
X2242811Y1328766D1*
X2243125Y1332526D1*
X2244997Y1336911D1*
X2247294Y1340614D1*
X2251138Y1345389D1*
Y1357857D1*
X2254247Y1360526D1*
X2256405Y1360283D1*
X2258999Y1357116D1*
X2259378Y1353608D1*
X2259465Y1349545D1*
Y1337077D1*
X2267791Y1328766D1*
Y1299675D1*
X2280281D1*
X2284444Y1316298D1*
Y1332922D1*
X2271954Y1337077D1*
X2288608Y1341233D1*
X2292771Y1345389D1*
Y1362012D1*
X2305261Y1366168D1*
X2326077Y1374480D1*
X2330240Y1378636D1*
Y1391103D1*
X2317751Y1395259D1*
X2312200Y1391103D1*
X2306648D1*
X2301097Y1395259D1*
Y1411883D1*
X2305261Y1416038D1*
Y1432662D1*
X2301097Y1440974D1*
X2292771D1*
X2284444Y1436818D1*
X2278893Y1432662D1*
X2273342D1*
X2267791Y1436818D1*
X2246975Y1440974D1*
X2213668Y1445129D1*
X2234485Y1449285D1*
Y1461753D1*
X2229548Y1466425D1*
X2230834Y1469200D1*
X2234485Y1474220D1*
Y1478376D1*
X2230322Y1482532D1*
X2217832D1*
Y1449285D1*
X2213668Y1445129D1*
Y1432662D1*
X2209254Y1428148D1*
X2207098Y1428823D1*
X2205342Y1432662D1*
X2192852D1*
X2188689Y1424350D1*
X2197015Y1416038D1*
X2205342D1*
X2209505Y1420194D1*
Y1428506D1*
X2212614Y1431175D1*
X2214772Y1430932D1*
X2217832Y1428506D1*
X2230322D1*
X2233431Y1431175D1*
X2235588Y1430932D1*
X2238600Y1428381D1*
X2251138Y1416038D1*
X2234485Y1411883D1*
Y1391103D1*
X2242811Y1386948D1*
X2245503Y1381322D1*
X2241381Y1378376D1*
X2240120Y1380105D1*
X2235957Y1384261D1*
X2233013Y1381322D1*
X2241339Y1373011D1*
X2237261Y1370324D1*
X2231709D1*
X2226158Y1374480D1*
X2213668D1*
X2205342Y1366168D1*
Y1357857D1*
X2230322D1*
X2233431Y1360526D1*
X2235487Y1360101D1*
X2236823Y1355982D1*
X2234397Y1353348D1*
X2232016Y1354035D1*
X2230322Y1357857D1*
X2205342D1*
Y1353701D1*
X2226158D1*
X2229267Y1356370D1*
X2231425Y1356127D1*
X2234019Y1352960D1*
X2234312Y1349370D1*
X2233411Y1344624D1*
X2230080Y1340850D1*
X2227922Y1341550D1*
X2226158Y1345389D1*
X2213668Y1349545D1*
X2226158Y1353701D1*
X2205342D1*
G37*
G36*
X2346894Y1482532D2*
X2342730Y1478376D1*
Y1474220D1*
X2351057Y1465909D1*
X2355220D1*
X2363547Y1474220D1*
X2355220Y1482532D1*
X2346894D1*
G37*
G36*
X1633194Y1473140D2*
X1634566Y1470890D1*
X1638122Y1473050D1*
X1636750Y1475301D1*
X1633194Y1473140D1*
G37*
G36*
X2263628Y1470064D2*
Y1453441D1*
X2280281D1*
Y1470064D1*
X2263628D1*
G37*
G36*
X2363547Y1461753D2*
X2359383Y1457597D1*
Y1440974D1*
X2363547Y1436818D1*
X2376037D1*
X2380200Y1440974D1*
Y1457597D1*
X2376037Y1461753D1*
X2363547D1*
G37*
G36*
X2059627Y1436818D2*
Y1424350D1*
X2072117D1*
X2076280Y1428506D1*
Y1432662D1*
X2072117Y1436818D1*
X2059627D1*
G37*
G36*
X2392690Y1424350D2*
Y1411883D1*
X2409343D1*
Y1424350D1*
X2392690D1*
G37*
G36*
X2317751Y1416038D2*
Y1403571D1*
X2330240D1*
Y1416038D1*
X2317751D1*
G37*
G36*
X1670664Y1410802D2*
X1672035Y1408552D1*
X1675592Y1410713D1*
X1674220Y1412963D1*
X1670664Y1410802D1*
G37*
G36*
X2338567Y1411883D2*
Y1395259D1*
X2355220D1*
X2355900Y1398473D1*
X2358454Y1401880D1*
X2360506Y1401782D1*
X2363547Y1399415D1*
Y1391103D1*
X2376037Y1395259D1*
Y1399415D1*
X2371873Y1407727D1*
X2367710D1*
X2362634Y1403390D1*
X2357807Y1403923D1*
X2353862Y1408734D1*
X2355220Y1411883D1*
X2338567D1*
G37*
G36*
X2442649Y1407727D2*
Y1395259D1*
X2450976D1*
X2455139Y1399415D1*
Y1403571D1*
X2450976Y1407727D1*
X2442649D1*
G37*
G36*
X2172036Y1399415D2*
Y1382792D1*
X2180362Y1374480D1*
X2192852D1*
X2201179Y1378636D1*
Y1382792D1*
X2192852Y1399415D1*
X2172036D1*
G37*
G36*
X2392690Y1395259D2*
X2388526Y1391103D1*
Y1378636D1*
X2405179D1*
Y1395259D1*
X2392690D1*
G37*
G36*
X1285256Y1312142D2*
X1288610Y1306777D1*
X1289420Y1303831D1*
X1293583Y1295519D1*
X1297746Y1283051D1*
X1331052Y1216558D1*
X1335216D1*
X1339379Y1220714D1*
X1351869Y1258116D1*
Y1266428D1*
X1343542Y1278896D1*
X1326889Y1299675D1*
X1301909Y1328766D1*
X1281093Y1353701D1*
X1272766Y1366168D1*
X1268603Y1370324D1*
X1260277D1*
Y1362012D1*
X1272766Y1337077D1*
X1276930Y1332922D1*
X1281093D1*
X1284202Y1335590D1*
X1286258Y1335166D1*
X1287594Y1331046D1*
X1285168Y1328412D1*
X1282787Y1329100D1*
X1281093Y1332922D1*
X1276930D1*
Y1328766D1*
X1281093Y1324610D1*
X1285256D1*
X1288365Y1327279D1*
X1290422Y1326854D1*
X1291757Y1322735D1*
X1289331Y1320101D1*
X1286950Y1320788D1*
X1285256Y1324610D1*
X1281093D1*
Y1320454D1*
X1289420D1*
X1292529Y1323123D1*
X1294635Y1322775D1*
X1296882Y1319203D1*
X1296600Y1315416D1*
X1293354Y1311762D1*
X1291188Y1312452D1*
X1288512Y1317027D1*
X1289420Y1320454D1*
X1281093D1*
X1285256Y1312142D1*
X1293583D1*
X1296692Y1314811D1*
X1298849Y1314569D1*
X1301909Y1312142D1*
X1314399Y1295519D1*
X1331052Y1274740D1*
X1339379Y1258116D1*
Y1249805D1*
X1335216Y1245649D1*
Y1237337D1*
X1330801Y1232823D1*
X1328656Y1233490D1*
X1325982Y1238065D1*
X1326889Y1241493D1*
X1318563Y1258116D1*
X1314399Y1270584D1*
X1306073Y1287207D1*
X1301909Y1299675D1*
X1293583Y1312142D1*
X1285256D1*
G37*
G36*
X2346894Y1345389D2*
X2342730Y1341233D1*
Y1328766D1*
X2359383D1*
Y1341233D1*
X2351057Y1345389D1*
X2346894D1*
G37*
G36*
X2409343Y1341233D2*
X2407974Y1336191D1*
X2405179Y1332922D1*
Y1324610D1*
X2409343Y1320454D1*
X2417669Y1316298D1*
X2430159Y1320454D1*
X2438486Y1324610D1*
Y1337077D1*
X2425996Y1341233D1*
X2409343D1*
G37*
G36*
X2363547Y1312142D2*
D1*
G37*
G36*
X2109586Y1307987D2*
X2105423Y1303831D1*
X2097097Y1299675D1*
Y1295519D1*
X2105423Y1283051D1*
X2113750Y1287207D1*
X2117913Y1291363D1*
Y1299675D1*
X2109586Y1307987D1*
G37*
G36*
X2184525Y1303831D2*
X2180362Y1299675D1*
Y1295519D1*
X2188689Y1278896D1*
X2201179D1*
X2209505Y1287207D1*
Y1291363D1*
X2205342Y1299675D1*
X2192852Y1303831D1*
X2184525D1*
G37*
G36*
X2376037Y1278896D2*
X2367710Y1274740D1*
X2363547Y1270584D1*
Y1266428D1*
X2371873Y1258116D1*
X2376037D1*
X2388526Y1270584D1*
X2380200Y1278896D1*
X2376037D1*
G37*
G36*
X2209505Y1274740D2*
Y1270584D1*
X2201179Y1266428D1*
X2197015Y1253961D1*
X2205342Y1249805D1*
X2217832D1*
X2226158Y1258116D1*
X2230322Y1266428D1*
Y1270584D1*
X2226158Y1274740D1*
X2209505D1*
G37*
G36*
X2092933Y1262272D2*
X2088770Y1258116D1*
X2080443Y1253961D1*
X2084607Y1245649D1*
X2088770Y1241493D1*
X2097097D1*
X2105423Y1249805D1*
Y1253961D1*
X2101260Y1262272D1*
X2092933D1*
G37*
G36*
X2284444D2*
X2276118Y1253961D1*
X2280281Y1241493D1*
X2284444Y1237337D1*
X2296934D1*
Y1262272D1*
X2284444D1*
G37*
G36*
X2405179D2*
X2396853Y1253961D1*
Y1249805D1*
X2409343Y1237337D1*
X2421833D1*
X2425996Y1245649D1*
Y1249805D1*
X2417669Y1258116D1*
X2409343Y1262272D1*
X2405179D1*
G37*
G36*
X2130403Y1233181D2*
X2122076Y1224870D1*
X2134566Y1212402D1*
X2142893Y1220714D1*
Y1224870D1*
X2134566Y1233181D1*
X2130403D1*
G37*
G36*
X2317751Y1224870D2*
X2313587Y1220714D1*
X2305261Y1216558D1*
Y1204090D1*
X2330240D1*
X2338567Y1208246D1*
Y1212402D1*
X2334404Y1224870D1*
X2317751D1*
G37*
G36*
X2134566Y1199935D2*
Y1195779D1*
X2126240Y1187467D1*
Y1179155D1*
X2130403Y1174999D1*
X2138729D1*
X2142893Y1179155D1*
X2147056Y1191623D1*
Y1195779D1*
X2142893Y1199935D1*
X2134566D1*
G37*
G36*
X2421833D2*
X2417669Y1195779D1*
Y1191623D1*
X2421833Y1187467D1*
X2430159D1*
X2434322Y1191623D1*
Y1195779D1*
X2430159Y1199935D1*
X2421833D1*
G37*
G36*
X2230322Y1174999D2*
X2221995Y1170844D1*
Y1158376D1*
X2226158Y1154220D1*
X2238648D1*
X2242811Y1158376D1*
Y1166688D1*
X2234485Y1174999D1*
X2230322D1*
G37*
G36*
X1410155Y1150064D2*
X1408786Y1145023D1*
X1405992Y1141753D1*
X1401828Y1129285D1*
X1397665Y1120974D1*
Y1112662D1*
X1410155Y1096038D1*
X1418481Y1083571D1*
X1422645Y1075259D1*
X1480931Y987987D1*
X1485094Y979675D1*
X1497584Y963051D1*
X1505910Y950584D1*
X1510074Y942272D1*
X1518400Y929805D1*
X1526727Y921493D1*
X1530890D1*
X1535053Y925649D1*
X1539217Y938116D1*
X1551706Y963051D1*
X1560033Y987987D1*
X1543380Y1008766D1*
X1526727Y1033701D1*
X1510074Y1054480D1*
X1501747Y1066948D1*
X1476767Y1100194D1*
X1468441Y1112662D1*
X1451788Y1129285D1*
Y1133441D1*
X1426808Y1166688D1*
X1422645Y1170844D1*
X1418481D1*
X1414318Y1166688D1*
X1410155Y1154220D1*
Y1150064D1*
X1418481D1*
X1421591Y1152733D1*
X1423696Y1152385D1*
X1426066Y1148949D1*
X1426808Y1145909D1*
X1443461Y1125129D1*
X1455951Y1108506D1*
X1464278Y1096038D1*
X1489257Y1062792D1*
X1497584Y1050324D1*
X1514237Y1029545D1*
X1522563Y1017077D1*
X1539217Y996298D1*
X1547543Y987987D1*
Y979675D1*
X1543380Y975519D1*
X1539217Y967207D1*
X1535053Y954740D1*
X1530890Y946428D1*
X1529833Y941525D1*
X1526484Y937733D1*
X1524327Y938433D1*
X1522563Y942272D1*
X1518400Y950584D1*
X1476767Y1012922D1*
X1472604Y1021233D1*
X1439298Y1071103D1*
X1435135Y1079415D1*
X1418481Y1104350D1*
X1410155Y1112662D1*
Y1129285D1*
X1414318Y1133441D1*
X1418481Y1145909D1*
Y1150064D1*
X1410155D1*
G37*
G36*
X2969608Y1165607D2*
X2970980Y1163357D1*
X2974536Y1165518D1*
X2973164Y1167768D1*
X2969608Y1165607D1*
G37*
G36*
X3604205Y1062792D2*
Y1075259D1*
X3600042Y1108506D1*
X3595878Y1112662D1*
X3583389Y1116818D1*
X3537592Y1129285D1*
X3462653Y1150064D1*
X3446000Y1154220D1*
X3437674D1*
Y1150064D1*
X3441837Y1141753D1*
X3458490D1*
X3462946Y1144234D1*
X3466397Y1143595D1*
X3468328Y1139064D1*
X3465536Y1137381D1*
X3461103Y1137951D1*
X3458490Y1141753D1*
X3441837D1*
X3446000Y1137597D1*
X3450164D1*
X3453273Y1140266D1*
X3455329Y1139841D1*
X3456664Y1135722D1*
X3454239Y1133088D1*
X3451858Y1133775D1*
X3450164Y1137597D1*
X3446000D1*
X3450164Y1133441D1*
X3454327D1*
X3458783Y1135923D1*
X3462398Y1135656D1*
X3466817Y1133441D1*
X3491796Y1116818D1*
X3512613Y1104350D1*
X3541756Y1087727D1*
X3562572Y1075259D1*
X3587552Y1058636D1*
X3595878Y1054480D1*
X3558409Y1042012D1*
X3541756Y1037857D1*
X3536205Y1033701D1*
X3530654D1*
X3525103Y1037857D1*
X3516776Y1046168D1*
Y1050324D1*
X3491796Y1083571D1*
X3475143Y1108506D1*
X3458490Y1129285D1*
X3454327Y1133441D1*
X3450164D1*
X3454327Y1125129D1*
X3462653Y1112662D1*
X3475143Y1096038D1*
X3491796Y1075259D1*
X3500123Y1062792D1*
X3525103Y1029545D1*
X3537592D1*
X3579225Y1042012D1*
X3604205Y1050324D1*
Y1062792D1*
X3600042D1*
X3595627Y1058278D1*
X3593472Y1058953D1*
X3591715Y1062792D1*
X3587552Y1066948D1*
X3545919Y1091883D1*
X3533429Y1100194D1*
X3504286Y1116818D1*
X3483470Y1129285D1*
X3466817Y1137597D1*
X3472368Y1141753D1*
X3477919D1*
X3483470Y1137597D1*
X3495960Y1133441D1*
X3541756Y1120974D1*
X3570899Y1112662D1*
X3587552Y1108506D1*
X3595878Y1104350D1*
Y1079415D1*
X3600042Y1062792D1*
X3604205D1*
G37*
G36*
X3799879Y1150064D2*
D1*
G37*
G36*
X2557139Y1112662D2*
Y1108506D1*
X2561303D1*
Y1112662D1*
X2557139D1*
G37*
G36*
X2500935Y1075259D2*
D1*
G37*
G36*
X3189958Y1058636D2*
Y1054480D1*
X3194122D1*
Y1058636D1*
X3189958D1*
G37*
G36*
X3908125Y1046168D2*
D1*
G37*
G36*
X2170257Y1040932D2*
X2171629Y1038682D1*
X2175186Y1040843D1*
X2173814Y1043093D1*
X2170257Y1040932D1*
G37*
G36*
X3477225Y1021233D2*
Y1017077D1*
X3481388D1*
Y1021233D1*
X3477225D1*
G37*
G36*
X1564196Y938116D2*
X1560033Y933961D1*
X1551706Y917337D1*
X1547543Y904870D1*
X1543380Y896558D1*
Y892402D1*
X1555870Y875779D1*
X1564196Y863311D1*
X1580849Y842532D1*
X1589176Y830064D1*
X1639135Y763571D1*
X1664115Y726168D1*
X1676605Y709545D1*
X1684932Y701233D1*
X1689095D1*
X1693258Y705389D1*
X1701585Y717857D1*
X1705748Y726168D1*
X1709911Y738636D1*
X1714074Y746948D1*
Y755259D1*
X1705748Y767727D1*
X1701585Y776038D1*
X1689095Y792662D1*
X1684932Y800974D1*
X1634972Y875779D1*
X1622482Y892402D1*
X1618319Y900714D1*
X1576686Y963051D1*
X1572523D1*
X1564196Y946428D1*
Y938116D1*
X1572523D1*
X1575632Y940785D1*
X1577789Y940543D1*
X1580652Y937702D1*
X1582884Y933880D1*
X1589176Y921493D1*
X1605829Y896558D1*
X1618319Y879935D1*
X1622482Y871623D1*
X1639135Y846688D1*
X1651625Y830064D1*
X1655789Y821753D1*
X1697421Y759415D1*
X1701585Y746948D1*
X1700216Y741906D1*
X1697421Y738636D1*
X1691159Y726158D1*
X1688742Y721817D1*
X1684675Y717489D1*
X1682531Y718173D1*
X1680768Y722012D1*
X1676605Y730324D1*
X1668278Y742792D1*
X1655789Y759415D1*
X1647462Y771883D1*
X1609992Y821753D1*
X1601666Y834220D1*
X1576686Y867467D1*
X1568360Y879935D1*
X1555870Y892402D1*
Y900714D1*
X1560033Y904870D1*
X1564196Y917337D1*
X1568360Y925649D1*
X1572523Y938116D1*
X1564196D1*
G37*
G36*
X2101260Y933961D2*
D1*
G37*
G36*
X3493878Y788506D2*
Y784350D1*
X3498041D1*
Y788506D1*
X3493878D1*
G37*
G36*
X3508449Y622272D2*
X3504035Y617759D1*
X3501889Y618425D1*
X3499216Y623000D1*
X3500123Y626428D1*
X3495960D1*
X3491796Y618116D1*
X3495960D1*
X3499069Y620785D1*
X3501226Y620543D1*
X3504286Y618116D1*
Y609805D1*
X3499872Y605291D1*
X3497716Y605966D1*
X3495960Y609805D1*
Y618116D1*
X3491796D1*
X3487633Y605649D1*
X3491796D1*
X3494905Y608318D1*
X3497063Y608075D1*
X3500123Y605649D1*
Y597337D1*
X3495709Y592823D1*
X3493553Y593498D1*
X3491796Y597337D1*
Y605649D1*
X3487633D1*
X3483470Y593181D1*
X3487633D1*
X3490742Y595850D1*
X3492900Y595607D1*
X3495960Y593181D1*
Y584870D1*
X3500123D1*
X3508449Y601493D1*
X3516776Y613961D1*
X3525103Y630584D1*
X3541756Y655519D1*
X3554246Y680454D1*
X3566735Y697077D1*
X3568833Y701206D1*
X3571088Y705045D1*
X3574044Y707990D1*
X3576171Y707796D1*
X3579225Y705389D1*
Y697077D1*
X3570899Y688766D1*
X3562572Y676298D1*
X3550082Y651363D1*
X3541756Y638896D1*
X3537592Y630584D1*
X3529266Y618116D1*
X3520939Y601493D1*
X3504286Y576558D1*
X3491796Y551623D1*
X3479307Y534999D1*
Y526688D1*
X3474892Y522174D1*
X3472736Y522849D1*
X3470980Y526688D1*
X3466043Y531360D1*
X3467329Y534135D1*
X3470980Y539155D1*
X3475143Y547467D1*
X3487633Y584870D1*
Y593181D1*
X3483470D1*
X3479307Y584870D1*
X3462653Y534999D1*
Y530844D1*
X3470980Y522532D1*
X3479307D1*
X3487633Y530844D1*
X3491796Y539155D1*
X3508449Y564090D1*
X3525103Y597337D1*
X3541756Y622272D1*
X3550082Y638896D1*
X3566735Y663831D1*
X3579225Y688766D1*
X3579905Y691980D1*
X3582459Y695386D1*
X3584511Y695289D1*
X3587552Y692922D1*
X3612532Y663831D1*
X3641675Y630584D1*
X3695797Y576558D1*
Y572402D1*
X3729103Y534999D1*
X3749920Y514220D1*
X3724940Y510064D1*
X3699961D1*
X3674981Y514220D1*
X3479307Y522532D1*
X3470980D1*
Y518376D1*
X3554246Y431103D1*
X3591715Y393701D1*
X3600042D1*
X3583389Y414480D1*
X3508449Y489285D1*
Y493441D1*
X3495960Y505909D1*
X3487633Y510064D1*
X3518164Y514220D1*
X3548695D1*
X3579225Y510064D1*
X3674981Y505909D1*
X3762410D1*
X3766573Y514220D1*
Y518376D1*
X3762410D1*
X3757995Y513862D1*
X3755840Y514537D1*
X3754083Y518376D1*
X3741593Y534999D1*
X3699961Y580714D1*
X3650001Y630584D1*
Y634740D1*
X3608368Y680454D1*
X3591715Y697077D1*
Y701233D1*
X3616695Y709545D1*
X3633348Y713701D1*
X3741593Y751103D1*
X3749920Y755259D1*
X3762410Y759415D1*
X3779063Y763571D1*
X3787389Y767727D1*
X3790499Y770396D1*
X3792604Y770047D1*
X3794809Y766433D1*
X3794293Y762570D1*
X3791553Y759415D1*
X3787389Y734480D1*
Y701233D1*
X3783226Y697077D1*
X3774900Y638896D1*
X3770736Y605649D1*
X3766573Y576558D1*
X3762410Y555779D1*
Y518376D1*
X3766573D1*
X3770736Y547467D1*
X3774900Y580714D1*
X3779063Y609805D1*
X3783226Y634740D1*
X3791553Y692922D1*
X3795716Y726168D1*
X3799879Y751103D1*
Y759415D1*
X3802988Y762084D1*
X3805146Y761841D1*
X3808009Y759001D1*
X3810240Y755179D1*
X3812369Y751103D1*
X3829022Y730324D1*
X3858165Y697077D1*
X3874818Y676298D1*
X3895635Y651363D1*
X3912288Y630584D1*
X3920615D1*
Y634740D1*
X3816532Y759415D1*
X3799879Y780194D1*
X3791553Y788506D1*
X3762410D1*
X3704124Y780194D1*
X3766573D1*
X3774900Y784350D1*
X3783226D1*
X3791553Y780194D1*
X3787389Y776038D1*
X3762410Y767727D1*
X3754083Y763571D1*
X3741593Y759415D1*
X3724940Y755259D1*
X3712450Y751103D1*
X3704124Y746948D1*
X3679144Y738636D1*
X3662491Y734480D1*
X3591715Y709545D1*
X3586639Y705208D1*
X3581812Y705741D1*
X3577867Y710552D1*
X3579225Y713701D1*
X3604205Y722012D1*
X3612532Y726168D1*
X3650001Y738636D1*
X3666654Y742792D1*
X3699961Y755259D1*
X3724940Y763571D1*
Y767727D1*
X3704124Y771883D1*
X3737430Y776038D1*
X3766573Y780194D1*
X3704124D1*
X3616695Y767727D1*
X3674981D1*
X3684695Y771883D1*
X3694410D1*
X3704124Y767727D1*
X3694410Y763571D1*
X3684695D1*
X3674981Y767727D1*
X3616695D1*
X3591715Y763571D1*
X3645838D1*
X3656940Y767727D1*
X3668042D1*
X3679144Y763571D1*
X3668042Y759415D1*
X3656940D1*
X3645838Y763571D1*
X3591715D1*
X3558409Y759415D1*
X3612532D1*
X3623634Y763571D1*
X3634736D1*
X3645838Y759415D1*
X3634736Y755259D1*
X3623634D1*
X3612532Y759415D1*
X3558409D1*
X3541756Y755259D1*
X3579225D1*
X3590328Y759415D1*
X3601429D1*
X3612532Y755259D1*
X3601429Y751103D1*
X3590328D1*
X3579225Y755259D1*
X3541756D1*
X3537592Y751103D1*
X3550082D1*
X3559797Y755259D1*
X3569511D1*
X3579225Y751103D1*
X3569511Y746948D1*
X3559797D1*
X3550082Y751103D1*
X3537592D1*
Y746948D1*
X3608368D1*
X3637511Y751103D1*
X3662491Y755259D1*
X3669430Y759415D1*
X3676368D1*
X3683307Y755259D1*
X3670818Y751103D1*
X3654164Y746948D1*
X3591715Y726168D1*
X3583389Y722012D1*
X3578312Y717675D1*
X3575062Y717857D1*
X3562572Y730324D1*
Y734480D1*
X3558409Y738636D1*
X3579225Y742792D1*
X3608368Y746948D1*
X3537592D1*
X3533429Y742792D1*
Y738636D1*
X3537592D1*
X3540702Y741305D1*
X3542807Y740956D1*
X3545055Y737385D1*
X3544773Y733598D1*
X3541526Y729944D1*
X3539361Y730634D1*
X3536684Y735209D1*
X3537592Y738636D1*
X3533429D1*
X3529266Y730324D1*
X3545919D1*
X3550375Y732806D1*
X3553917Y732339D1*
X3557496Y728772D1*
X3558409Y726168D1*
X3566735Y717857D1*
Y709545D1*
X3562572Y705389D1*
X3558409Y697077D1*
X3550082Y684610D1*
X3541756Y667987D1*
X3533429Y655519D1*
X3525103Y638896D1*
X3524046Y633993D1*
X3520696Y630201D1*
X3518540Y630901D1*
X3516776Y634740D1*
Y643051D1*
X3520939Y647207D1*
X3529266Y672142D1*
X3533429Y680454D1*
X3537592Y697077D1*
X3545919Y722012D1*
Y730324D1*
X3529266D1*
Y726168D1*
X3533429D1*
X3536538Y728837D1*
X3538644Y728489D1*
X3540892Y724917D1*
X3540610Y721131D1*
X3537363Y717476D1*
X3535197Y718166D1*
X3532521Y722741D1*
X3533429Y726168D1*
X3529266D1*
X3525103Y717857D1*
Y713701D1*
X3529266D1*
X3532375Y716370D1*
X3534481Y716021D1*
X3536729Y712450D1*
X3536446Y708663D1*
X3533200Y705009D1*
X3531034Y705699D1*
X3528358Y710273D1*
X3529266Y713701D1*
X3525103D1*
X3520939Y705389D1*
Y701233D1*
X3525103D1*
X3528212Y703902D1*
X3530318Y703554D1*
X3532565Y699982D1*
X3532283Y696196D1*
X3529037Y692541D1*
X3526871Y693231D1*
X3524195Y697806D1*
X3525103Y701233D1*
X3520939D1*
Y692922D1*
X3524048Y695590D1*
X3526206Y695348D1*
X3529266Y692922D1*
Y684610D1*
X3524852Y680096D1*
X3522696Y680771D1*
X3520939Y684610D1*
Y692922D1*
X3516776Y688766D1*
X3512613Y680454D1*
X3516776D1*
X3519885Y683123D1*
X3522043Y682880D1*
X3525103Y680454D1*
Y672142D1*
X3520688Y667629D1*
X3518533Y668304D1*
X3516776Y672142D1*
Y680454D1*
X3512613D1*
X3508449Y667987D1*
X3512613D1*
X3515722Y670655D1*
X3517879Y670413D1*
X3520939Y667987D1*
Y659675D1*
X3516525Y655161D1*
X3514369Y655836D1*
X3512613Y659675D1*
Y667987D1*
X3508449D1*
X3504286Y655519D1*
X3508449D1*
X3511559Y658188D1*
X3513716Y657945D1*
X3516776Y655519D1*
Y647207D1*
X3512362Y642694D1*
X3510206Y643369D1*
X3508449Y647207D1*
Y655519D1*
X3504286D1*
X3500123Y643051D1*
X3504286D1*
X3507395Y645720D1*
X3509553Y645478D1*
X3512613Y643051D1*
Y634740D1*
X3508198Y630226D1*
X3506043Y630901D1*
X3504286Y634740D1*
Y643051D1*
X3500123D1*
X3495960Y630584D1*
X3512613D1*
X3515722Y633253D1*
X3517778Y632828D1*
X3519114Y628709D1*
X3516688Y626075D1*
X3514307Y626762D1*
X3512613Y630584D1*
X3495960D1*
Y626428D1*
X3500123D1*
X3503232Y629097D1*
X3505338Y628749D1*
X3507707Y625312D1*
X3508449Y622272D1*
X3511559Y624941D1*
X3513615Y624516D1*
X3514950Y620397D1*
X3512525Y617763D1*
X3510144Y618451D1*
X3508449Y622272D1*
G37*
G36*
X1522563Y771883D2*
D1*
G37*
G36*
X1543380Y709545D2*
D1*
G37*
G36*
X1164521Y638896D2*
Y634740D1*
X1168684D1*
Y638896D1*
X1164521D1*
G37*
G36*
X1838973Y518376D2*
X1876443Y480974D1*
X1880606D1*
Y489285D1*
X1872279Y505909D1*
X1855626Y530844D1*
X1847300Y547467D1*
X1838973Y559935D1*
X1834810Y568246D1*
X1818157Y593181D1*
X1809830Y609805D1*
X1801503Y622272D1*
X1797340Y630584D1*
X1789014Y638896D1*
X1784850Y634740D1*
X1776524Y618116D1*
X1784850D1*
X1787959Y620785D1*
X1790065Y620437D1*
X1792435Y617001D1*
X1793177Y613961D1*
X1797340Y605649D1*
X1822320Y568246D1*
X1830646Y551623D1*
X1838973Y543311D1*
X1837458Y538201D1*
X1833154Y534678D1*
X1830646Y534999D1*
X1801503Y564090D1*
Y568246D1*
X1793177Y572402D1*
X1772360Y593181D1*
X1776524Y597337D1*
X1784850Y613961D1*
Y618116D1*
X1776524D1*
X1764034Y593181D1*
Y589025D1*
X1822320Y534999D1*
X1834810D1*
X1837919Y537668D1*
X1840076Y537426D1*
X1843014Y534711D1*
X1846321Y529424D1*
X1846140Y525781D1*
X1842910Y522153D1*
X1840729Y522851D1*
X1838973Y526688D1*
X1834810Y534999D1*
X1822320D1*
X1834810Y522532D1*
X1843136D1*
X1846245Y525201D1*
X1848302Y524776D1*
X1849637Y520657D1*
X1847211Y518023D1*
X1844830Y518710D1*
X1843136Y522532D1*
X1834810D1*
X1838973Y518376D1*
X1847300D1*
X1850409Y521045D1*
X1852465Y520620D1*
X1853801Y516501D1*
X1851375Y513867D1*
X1848994Y514554D1*
X1847300Y518376D1*
X1838973D1*
G37*
G36*
X3816532Y626428D2*
D1*
G37*
G36*
X1168684Y514220D2*
D1*
G37*
G36*
X3928941Y464350D2*
D1*
G37*
G36*
X1368522Y443571D2*
D1*
G37*
G36*
X532309Y602976D2*
Y602783D1*
X531501Y602590D1*
X529482Y601626D1*
Y601433D1*
X528674Y601047D1*
X528068Y600854D1*
X527462Y600468D1*
X527059Y600275D1*
X526049Y599696D1*
Y599503D1*
X525645Y599310D1*
X525039Y599117D1*
X524635Y598925D1*
X524030Y598539D1*
X523626Y598346D1*
Y598153D1*
X523222Y597960D1*
X522616Y597767D1*
X522212Y597574D1*
X521203Y596995D1*
Y596802D1*
X520395Y596416D1*
X519789Y596223D1*
X519183Y595838D1*
Y595452D1*
X518577Y595259D1*
X517770Y595066D1*
X517900Y594805D1*
X517770Y594680D1*
X516558Y594294D1*
X516492Y594060D1*
X516356Y593908D1*
X515952Y593715D1*
Y593522D1*
X515549Y593330D1*
X514943Y593137D1*
X514539Y592944D1*
X514472Y592710D1*
X514337Y592558D1*
X513731Y592365D1*
X512923Y591786D1*
X512721Y591593D1*
Y591400D1*
X512452Y591207D1*
X512183D1*
X511914Y591400D1*
X511712Y591014D1*
X511106Y590628D1*
X510904Y590436D1*
X510298Y590050D1*
X509491Y589664D1*
X509424Y589430D1*
X509289Y589278D1*
X508885Y589085D1*
X508279Y588699D1*
X507875Y588313D1*
X507824Y588086D1*
X507661Y587910D1*
X507557Y587942D1*
X507471Y588120D1*
X506865Y587735D1*
X506058Y587156D1*
X505856Y586963D1*
X505250Y586577D1*
X504846Y586384D1*
X504442Y585805D1*
X504228Y585596D1*
X504124Y585627D1*
X504038Y585805D1*
X503972Y585571D1*
X503836Y585419D1*
X503029Y585033D1*
X502423Y584455D1*
Y584262D1*
X502019Y584069D1*
X501413Y583876D1*
X501211Y583683D1*
X500404Y583104D1*
X499596Y582332D1*
X498990Y581947D1*
X498586Y581754D1*
X498520Y581520D1*
X498384Y581368D1*
X497980Y581175D1*
X497173Y580596D1*
X496365Y579824D1*
X495153Y579053D1*
X494144Y578088D1*
X493740Y577895D1*
X493538Y577702D1*
X492932Y577316D1*
X491317Y575773D1*
X490711Y575387D1*
X489701Y574615D1*
X489499Y574422D1*
X489433Y574188D1*
X489297Y574036D1*
X488894Y573844D1*
X487682Y572686D1*
X487278Y572493D1*
X484451Y569792D1*
X483845Y569406D1*
X483441Y568827D1*
X483239Y568634D1*
X483173Y568400D1*
X483037Y568249D1*
X482634Y568056D1*
X476980Y562654D1*
X476778Y562268D1*
X476374Y561882D1*
X476307Y561648D1*
X476172Y561496D1*
X475768Y561303D1*
X475702Y561069D1*
X475566Y560917D1*
X475162Y560724D1*
X474960Y560338D1*
X474152Y559374D1*
X473547Y558795D1*
X473480Y558561D1*
X473345Y558409D1*
X472941Y558216D1*
Y557830D1*
X472739Y557637D1*
X472335Y557444D1*
Y557059D1*
X472133Y556866D1*
X471729Y556673D1*
X470922Y555515D1*
X470720Y555322D1*
X470316Y554743D1*
X470114Y554165D1*
X469710Y553779D1*
Y549727D1*
X470114Y549534D1*
Y546640D1*
X470316Y543553D1*
X470720Y543168D1*
Y541431D1*
X470922Y539502D1*
X471325Y537958D1*
X471729Y534486D1*
X472133Y534293D1*
Y533135D1*
X472335Y531785D1*
X472537Y531399D1*
X472941Y529084D1*
X473143Y527733D1*
X473547Y527540D1*
Y526575D1*
X473749Y525225D1*
X474152Y524453D1*
X474354Y523296D1*
X474758Y522138D1*
X474960Y521173D1*
X475162Y520016D1*
X475566Y519244D1*
X475768Y518087D1*
X476172Y517122D1*
X476576Y515193D1*
X476980Y514421D1*
X477181Y513456D1*
X477585Y512684D1*
X477989Y510755D1*
X478393Y509983D1*
X478595Y509212D1*
X478999Y508247D1*
X479201Y507282D1*
X479605Y506511D1*
X479807Y505932D1*
X480009Y504967D1*
X480412Y504196D1*
X480614Y503424D1*
X481018Y502652D1*
X481220Y501880D1*
X481422Y500916D1*
X482028Y500337D1*
Y499565D1*
X482432Y498793D1*
X482634Y498022D1*
X483037Y497443D1*
X483239Y496671D1*
X483441Y496092D1*
X483845Y495321D1*
X484047Y494742D1*
X484451Y493970D1*
X484653Y493198D1*
X484855Y492620D1*
X485259Y492041D1*
X485461Y491076D1*
X486066Y490497D1*
Y489726D1*
X486268Y489340D1*
X486672Y488761D1*
X486874Y487989D1*
X487278Y487411D1*
X487480Y486832D1*
X487884Y486253D1*
X488086Y485481D1*
X488288Y484902D1*
X488692Y484324D1*
X488894Y483745D1*
X489499Y483166D1*
Y482780D1*
X489701Y482201D1*
X490105Y481623D1*
X490307Y481044D1*
X490711Y480465D1*
X490913Y480079D1*
X491317Y479500D1*
X491721Y478343D1*
X492124Y477764D1*
X492326Y477185D1*
X492932Y476606D1*
Y476221D1*
X493134Y475642D1*
X493538Y475449D1*
X493740Y475256D1*
Y474870D1*
X494144Y474291D1*
X494346Y473712D1*
X494548Y473327D1*
X495153Y472748D1*
Y472362D1*
X495557Y472169D1*
X495759Y471976D1*
Y471590D1*
X496163Y471011D1*
X496567Y470240D1*
X497375Y469082D1*
X497980Y467925D1*
X498182Y467732D1*
X498375Y467522D1*
X498483Y467342D1*
X498586Y467153D1*
X498990Y466960D1*
X499192Y466767D1*
Y466381D1*
X499596Y466188D1*
X499759Y465939D1*
X499798Y465802D1*
X500000Y465609D1*
X500606Y465224D1*
X502625Y464838D1*
X503433Y464645D1*
Y464452D1*
X504240Y464259D1*
X505452Y463873D1*
X507471Y463294D1*
X509894Y462908D1*
X511308Y462522D1*
X512923Y462330D1*
X514337Y462137D1*
Y461944D1*
X517568Y461558D1*
X519385Y461172D1*
X521405Y460979D1*
X523828Y460593D1*
X526453Y460400D1*
X529280Y460207D1*
X532915Y459821D1*
X537559Y459629D1*
X548060Y459243D1*
X551694D1*
X561589Y459629D1*
X566637Y459821D1*
X570272Y460207D1*
X573503Y460400D1*
X575926Y460593D1*
X578551Y460979D1*
X580571Y461172D1*
Y461365D1*
X582388Y461558D1*
X584407Y461751D1*
X586023Y461944D1*
X588850Y462522D1*
X590465Y462908D1*
X591475Y463101D1*
X592888Y463294D1*
X594302Y463680D1*
X595312Y463873D1*
X597331Y464452D1*
X598341Y464838D1*
X598946Y465031D1*
X599350Y465224D1*
X599453Y465413D1*
X599567Y465582D1*
X599754Y465802D1*
X600360Y466574D1*
X600562Y466960D1*
X600966Y467539D1*
X601168Y467732D1*
Y468117D1*
X601369Y468310D1*
X601773Y468503D1*
X601975Y469082D1*
X602379Y469661D1*
X602581Y469854D1*
X602783Y470433D1*
X603187Y470818D1*
X603793Y471783D1*
X603995Y472362D1*
X604398Y472941D1*
X604802Y473712D1*
X605206Y474291D1*
X605408Y474870D1*
Y475256D1*
X605610Y475449D1*
X606014Y475642D1*
X606216Y476413D1*
X606620Y476799D1*
X606822Y477571D1*
X607226Y478150D1*
X607427Y478729D1*
X607629Y479115D1*
X608033Y479693D1*
X608235Y480272D1*
X608639Y480851D1*
X608841Y481623D1*
X609851Y483552D1*
X610053Y483745D1*
X610254Y484710D1*
X610456Y485095D1*
X610860Y485674D1*
Y485867D1*
X610865Y486055D1*
X610901Y486195D1*
X611062Y486446D1*
X611165Y486635D1*
X611279Y486804D1*
X611466Y487025D1*
Y487796D1*
X612072Y488375D1*
Y489147D1*
X612274Y489340D1*
X612678Y490112D1*
X612880Y490690D1*
X613283Y491462D1*
X613485Y492041D1*
X613687Y492813D1*
X613889Y493391D1*
X614293Y494163D1*
X614697Y495128D1*
X614899Y495514D1*
X615101Y496285D1*
Y497057D1*
X615707Y497636D1*
Y498601D1*
X616111Y498793D1*
X616312Y498986D1*
Y499951D1*
X616514Y500144D1*
X616918Y500916D1*
X617120Y501687D1*
X617524Y502845D1*
X617726Y503231D1*
X617928Y504003D1*
X618332Y504774D1*
Y504967D1*
X618336Y505155D1*
X618372Y505295D1*
X618534Y505546D1*
X618938Y506897D1*
X619745Y509212D1*
X619947Y509983D1*
X620351Y511141D1*
X620755Y512684D1*
X621159Y513842D1*
X621361Y514614D1*
X621563Y515193D1*
X621967Y516736D1*
X622168Y517894D1*
X622572Y518665D1*
Y519823D1*
X622774Y520016D1*
X623178Y520788D1*
X623380Y522138D1*
X623582Y523103D1*
X623784Y523682D1*
X623986Y524453D1*
X624188Y525611D1*
X624390Y525997D1*
X624794Y527926D1*
X624996Y528505D1*
X625197Y529469D1*
X625399Y530627D1*
X625601Y532363D1*
X625803Y532749D1*
X626005Y533328D1*
Y535064D1*
X626207Y535257D1*
X626409Y535836D1*
X626611Y536994D1*
X626813Y539116D1*
X627015Y540852D1*
X627217Y541431D1*
X627419Y542589D1*
X627621Y545483D1*
X627823Y546447D1*
X628024Y548763D1*
Y555515D1*
X626813Y556673D1*
Y556866D1*
X626611Y557444D1*
X626005Y557830D1*
X625399Y558409D1*
Y558602D1*
X623986Y559952D1*
X623766Y560154D1*
X623683Y560338D1*
X623582Y560531D1*
X623178Y560917D1*
X622774Y561110D1*
X622535Y561327D1*
X622572Y561496D1*
X622370Y561882D1*
X621967Y562075D1*
X621563Y562461D1*
Y562654D1*
X621159Y562846D1*
X620885Y563108D1*
X621159Y563232D1*
X620553Y563425D1*
X620149Y563811D1*
Y564004D1*
X619745Y564197D1*
X619472Y564458D1*
X619745Y564583D1*
X618938Y565162D1*
X618130Y565933D1*
X617726Y566126D1*
X617486Y566343D1*
X617524Y566512D1*
X617120Y566705D1*
X616716Y567091D1*
Y567284D1*
X616312Y567477D1*
X616073Y567694D1*
X616111Y567863D1*
X615303Y568249D1*
X614899Y568634D1*
Y568827D1*
X614495Y569020D1*
X614256Y569237D1*
X614293Y569406D1*
X613687Y569985D1*
X612880Y570564D1*
X612476Y570757D1*
X612236Y570974D1*
X612274Y571142D1*
X612072Y571335D1*
X611264Y571914D1*
X610860Y572107D1*
X610587Y572368D1*
X610860Y572493D1*
X609649Y573072D1*
Y573265D1*
X608912Y573582D1*
X609316Y573968D1*
X609173Y574105D1*
X608972Y573912D1*
X608841Y573844D1*
X607427Y575194D1*
X606822Y575387D1*
X606582Y575604D1*
X606620Y575773D1*
X606014Y576159D1*
X605408Y576737D1*
X604600Y577316D1*
X604197Y577509D1*
X603957Y577726D1*
X603995Y577895D1*
X603187Y578474D1*
X602783Y578667D1*
X602544Y578884D1*
X602581Y579053D1*
X601369Y579631D1*
X600158Y580789D1*
X599552Y581175D1*
X599148Y581368D1*
X598744Y581754D1*
X597735Y582525D1*
X597129Y582718D1*
X596889Y582935D1*
X596927Y583104D1*
X596321Y583683D1*
X595513Y584069D1*
X594908Y584455D1*
X594302Y585033D1*
X593494Y585419D1*
X592888Y585805D1*
X592686Y585998D1*
X591879Y586577D1*
X591475Y586963D1*
X590263Y587735D1*
X590061Y587927D1*
X589456Y588313D1*
X588648Y588699D1*
X588042Y589085D1*
X587234Y589664D1*
X586023Y590436D1*
X585013Y591014D1*
X584609Y591207D1*
X584003Y591593D1*
X583801Y591786D1*
X583398Y591979D1*
X581580Y593137D1*
X581176Y593330D1*
X580571Y593715D1*
X580369Y593908D1*
X579763Y594294D1*
X578955Y594680D1*
X578349Y595066D1*
X577743Y595259D1*
X577340Y595452D1*
Y595645D1*
X576936Y595838D1*
X576330Y596223D1*
X575522Y596609D1*
X574916Y596995D1*
X573705Y597574D1*
X573503Y597767D1*
X573099Y597960D1*
X572493Y598346D1*
X572089Y598539D1*
X571484Y598925D1*
X570676Y599310D1*
X570070Y599696D1*
X568858Y600275D1*
X568657Y600468D1*
X568051Y600854D1*
X566839Y601240D1*
X566435Y601433D1*
Y601626D1*
X565830Y601818D1*
X565426Y602011D1*
X565224Y602204D1*
X563406Y602976D1*
X562801Y603169D1*
X562397Y603362D1*
X562195Y603555D1*
X560579Y604327D1*
X559772Y604519D1*
X559166Y604712D1*
Y604905D1*
X557752Y605484D1*
X557348Y605677D1*
X555935Y606256D1*
X555531Y606449D1*
X554925Y606835D1*
X553512Y607221D1*
X552502Y607606D1*
X551896Y607799D1*
X550887Y608185D1*
X550281Y608378D1*
X548665Y608957D1*
X546242D1*
X545232Y608571D1*
X544021Y608185D1*
X543213Y607799D1*
X542607Y607606D1*
X540588Y606835D1*
X539780Y606449D1*
X539175Y606256D1*
X537559Y605484D1*
X536953Y605098D1*
X536739Y604889D1*
X536635Y604920D1*
X536549Y605098D1*
X536146Y604905D1*
X535540Y604519D1*
X534328Y603941D1*
X533722Y603748D1*
X533318Y603555D1*
X532309Y602976D1*
X546848D1*
X547386Y603169D1*
X547925D1*
X548463Y602976D1*
X548665Y602783D1*
X550079Y602397D1*
X550685Y602011D1*
X551492Y601818D1*
X552098Y601626D1*
Y601433D1*
X552906Y601240D1*
X554117Y600854D1*
X554319Y600661D1*
X555935Y599889D1*
X556541Y599503D1*
X557146Y599310D1*
X557954Y599117D1*
X558560Y598925D1*
Y598732D1*
X559772Y598153D1*
X560781Y597767D1*
X563204Y596609D1*
X563810Y596416D1*
X564214Y596223D1*
Y596031D1*
X565426Y595452D1*
X566566Y595134D1*
X566162Y594748D1*
X566305Y594612D1*
X566507Y594805D1*
X566623Y594809D1*
X566839Y594680D1*
X568051Y594101D1*
X568657Y593908D1*
X569060Y593715D1*
Y593522D1*
X570272Y592944D1*
X570423Y593068D1*
X570525Y593051D1*
X570640Y592892D1*
X570676Y592751D1*
X571484Y592172D1*
X572291Y591786D1*
X572897Y591400D1*
X573503Y591207D1*
X573907Y591014D1*
Y590821D1*
X574311Y590628D1*
X574916Y590243D1*
X575724Y589857D1*
X576330Y589471D1*
X576532Y589278D1*
X577138Y588892D1*
X577945Y588506D1*
X578551Y587927D1*
X578702Y588051D1*
X578807Y588040D1*
X578953Y587922D1*
X579359Y587542D1*
X579763Y587349D1*
X580369Y587156D1*
X580772Y586963D1*
Y586770D1*
X582186Y585805D1*
X582792Y585419D1*
X583398Y585226D1*
X583801Y585033D1*
Y584841D1*
X584003Y584648D1*
X584609Y584262D1*
X584811Y584069D1*
X584962Y584193D1*
X585067Y584181D1*
X585215Y584069D1*
X586023Y583297D1*
X586628Y582911D1*
X587436Y582525D1*
X587599Y582276D1*
X587638Y582140D1*
X588042Y581947D1*
X588648Y581561D1*
X588850Y581368D1*
X589456Y580982D1*
X589657Y580789D1*
X590263Y580596D1*
X590426Y580347D1*
X590465Y580210D1*
X590869Y580017D1*
X591475Y579439D1*
X592081Y579246D1*
X592243Y578996D1*
X592283Y578860D1*
X592888Y578667D1*
X593051Y578418D1*
X593090Y578281D1*
X594302Y577509D1*
X595513Y576352D1*
X596321Y575966D1*
X596484Y575717D1*
X596523Y575580D1*
X596927Y575387D1*
X597090Y575138D1*
X597129Y575001D1*
X597331Y574808D1*
X597735Y574615D1*
X598341Y574229D1*
X599148Y573458D1*
X599754Y573072D1*
X599956Y572879D1*
X600360Y572686D1*
X600523Y572437D1*
X600562Y572300D1*
X600764Y572107D1*
X601369Y571721D1*
X601773Y571528D1*
X602177Y571142D1*
Y570950D1*
X603187Y570178D1*
X603995Y569599D1*
X604802Y568827D1*
X605408Y568441D1*
X605610Y568249D1*
X606216Y568056D1*
Y567477D1*
X606367Y567601D1*
X606471Y567589D1*
X606617Y567471D1*
X607024Y567091D1*
X607629Y566705D1*
X609043Y565355D1*
X609649Y564969D1*
X610456Y564390D1*
X610860Y564197D1*
X611023Y563948D1*
X611062Y563811D1*
X611466Y563425D1*
X612072Y563232D1*
X611668Y563039D1*
X612476Y562268D1*
X612627Y562392D1*
X612731Y562380D1*
X612877Y562262D1*
X613485Y561689D1*
X613889Y561303D1*
Y561110D1*
X614040Y561234D1*
X614142Y561218D1*
X614257Y561058D1*
X614293Y560917D1*
X615303Y559952D1*
Y559760D1*
X615707Y559567D1*
X615869Y559318D1*
X615909Y559181D1*
X616312Y558795D1*
X616918Y558409D1*
X617322Y558023D1*
Y557830D1*
X617928Y557444D1*
X618736Y556673D1*
Y556480D1*
X619341Y556094D1*
X619745Y555515D1*
X620149Y555322D1*
X620312Y555073D1*
X620351Y554936D1*
X620755Y554358D1*
X621159Y554165D1*
X621765Y553586D1*
X622168Y553393D1*
Y548184D1*
X621967Y547991D1*
X621765Y545676D1*
Y543553D1*
X621550Y543344D1*
X621446Y543375D1*
X621361Y543553D1*
X621159Y541238D1*
Y539502D1*
X620945Y539292D1*
X620840Y539324D1*
X620755Y539502D1*
X620351Y535643D1*
Y534486D1*
X620137Y534276D1*
X620032Y534307D1*
X619947Y534486D1*
X619745Y532749D1*
Y531592D1*
X619341Y531399D1*
X619139Y529855D1*
Y528891D1*
X618736Y528698D1*
X618534Y527540D1*
X618332Y526190D1*
Y525225D1*
X617928Y525032D1*
X617726Y523874D1*
X617322Y522717D1*
X617120Y521752D1*
X616918Y520595D1*
Y519823D1*
X616704Y519613D1*
X616600Y519645D1*
X616514Y519823D1*
X616312Y518665D1*
X615909Y517701D1*
X615707Y516543D1*
X615303Y515771D1*
X614899Y513842D1*
X614495Y513070D1*
X614293Y512106D1*
X613889Y511141D1*
X613687Y510562D1*
X613485Y509598D1*
Y508826D1*
X613271Y508616D1*
X613167Y508648D1*
X613082Y508826D1*
X612880Y507861D1*
X612476Y507282D1*
X612274Y506318D1*
X612072Y505546D1*
X611668Y504967D1*
X611466Y504003D1*
X611062Y503231D1*
X610860Y502652D1*
X610456Y501880D1*
X610254Y501109D1*
X610053Y500530D1*
X609649Y499758D1*
X609447Y498793D1*
X609043Y498215D1*
X608841Y497443D1*
X608639Y496864D1*
X608235Y496285D1*
X608033Y495514D1*
X607629Y494935D1*
X607427Y493970D1*
Y493584D1*
X607213Y493375D1*
X607109Y493406D1*
X607024Y493584D1*
X606822Y492813D1*
X606216Y491655D1*
X606014Y490883D1*
X605610Y490497D1*
X605408Y489726D1*
X605206Y489147D1*
X604802Y488568D1*
X604600Y487989D1*
X604197Y487411D1*
X603995Y486832D1*
X603793Y486060D1*
X603389Y485481D1*
X603187Y484902D1*
X602783Y484324D1*
X602581Y483745D1*
X602177Y483359D1*
X601773Y482201D1*
X601369Y481623D1*
X601168Y481044D1*
X600764Y480658D1*
X600360Y479500D1*
X599956Y478922D1*
X599754Y478536D1*
X599350Y477957D1*
X599148Y477378D1*
X598744Y476799D1*
X598542Y476413D1*
X598341Y475835D1*
X597937Y475449D1*
X597735Y474870D1*
X597331Y474291D1*
X597129Y473905D1*
X596927Y473327D1*
Y472941D1*
X596713Y472731D1*
X596608Y472763D1*
X596523Y472941D1*
X596321Y472169D1*
X595917Y471783D1*
X595715Y471204D1*
X595649Y470970D1*
X595513Y470818D1*
X593696Y470240D1*
X592686Y470047D1*
X592484Y469854D1*
X590061Y469468D1*
X588648Y469275D1*
Y469082D1*
X587234Y468889D1*
X585417Y468696D1*
X585619Y468503D1*
X584003Y468310D1*
X582186Y468117D1*
Y467925D1*
X580571Y467732D1*
X578753Y467539D1*
X576734Y467346D1*
X572291Y466767D1*
Y466574D1*
X569464Y466381D1*
X566435Y466188D1*
X562801Y465995D1*
X556945Y465609D1*
X551762Y465416D1*
X546579D1*
X541396Y465609D1*
X535540Y465995D1*
X531905Y466188D1*
X528674Y466381D1*
X526049Y466574D1*
Y466767D1*
X523626Y466960D1*
X521405Y467153D1*
Y467346D1*
X517568Y467732D1*
X515549Y468117D1*
X514135Y468310D1*
X512318Y468696D1*
X510702Y468889D1*
X509289Y469082D1*
Y469275D1*
X505048Y470047D1*
X504240Y470240D1*
X503836Y470433D1*
Y470626D1*
X503231Y471397D1*
X502827Y471976D1*
X502625Y472362D1*
X502423Y472941D1*
X501817Y473520D1*
Y473905D1*
X501413Y474098D1*
X501211Y474291D1*
Y474677D1*
X501009Y475256D1*
X500404Y476221D1*
X500000Y476606D1*
X499798Y476992D1*
X499596Y477571D1*
X499192Y478150D1*
X498990Y478536D1*
X498384Y479500D1*
X497779Y480658D1*
X497577Y481237D1*
X496971Y481816D1*
Y482201D1*
X496567Y482780D1*
X496264Y483359D1*
X496144Y483566D1*
X496163Y483745D1*
Y483938D1*
X495557Y484517D1*
Y484902D1*
X495153Y485481D1*
X494951Y486060D1*
X494548Y486639D1*
X494346Y487218D1*
X494144Y487989D1*
X493740Y488182D1*
X493538Y488375D1*
Y489147D1*
X493134Y489340D1*
X492932Y489533D1*
Y490112D1*
X492730Y490690D1*
X492326Y491269D1*
X492124Y492041D1*
X491721Y492620D1*
X491519Y493198D1*
X491317Y493970D1*
X490913Y494549D1*
X490711Y495321D1*
X490307Y495899D1*
X490105Y496671D1*
X489701Y497250D1*
X489499Y498022D1*
X489297Y498601D1*
X488894Y499179D1*
X488692Y500144D1*
X488288Y500723D1*
X488086Y501494D1*
X487884Y502459D1*
X487480Y503038D1*
X487278Y503810D1*
X486874Y504581D1*
X486672Y505353D1*
X486268Y505932D1*
X486066Y506704D1*
X485865Y507861D1*
X485461Y508440D1*
X485259Y509212D1*
Y509598D1*
X484653Y510176D1*
Y511141D1*
X484451Y511913D1*
X484047Y512684D1*
X483845Y513842D1*
X483441Y514614D1*
X483037Y516543D1*
X482634Y517315D1*
X482432Y518665D1*
X482028Y519437D1*
X481826Y520788D1*
X481422Y521752D1*
X481220Y522717D1*
X481018Y524067D1*
X480614Y525032D1*
X480412Y526383D1*
X480009Y527347D1*
X479605Y530048D1*
X479403Y530434D1*
X479201Y531399D1*
X478999Y532942D1*
X478595Y534100D1*
X478393Y535836D1*
X477989Y536222D1*
Y537573D1*
X477787Y539116D1*
X477585Y540852D1*
X477383Y541431D1*
X477181Y542975D1*
X476980Y544904D1*
X476778Y545483D1*
X476576Y547412D1*
X476374Y550113D1*
X476172Y550306D1*
Y551849D1*
X476374Y552042D1*
X476475Y552235D1*
X476585Y552411D1*
X476780Y552617D1*
X476980Y552814D1*
X477585Y553200D1*
X477787Y553586D1*
Y553972D1*
X477989Y554165D1*
X478393Y554358D1*
X479605Y555515D1*
X480614Y556866D1*
X481422Y557830D1*
X482836Y559181D1*
X483239Y559760D1*
X486066Y562461D1*
X486672Y562846D1*
X487076Y563425D1*
X487278Y563618D1*
X487682Y563811D1*
X488086Y564390D1*
X488692Y564776D1*
X489499Y565547D1*
X489903Y566126D1*
X490105Y566319D1*
X490144Y566456D1*
X490307Y566705D1*
X491115Y567091D1*
X491154Y567228D1*
X491317Y567477D1*
X491721Y567670D1*
Y567863D1*
X492124Y568249D1*
X492528Y568441D1*
X492631Y568631D1*
X492745Y568800D1*
X492932Y569020D1*
X493538Y569406D1*
X495153Y570950D1*
X496365Y571721D1*
X496404Y571858D1*
X496567Y572107D1*
X496971Y572300D1*
X497010Y572437D1*
X497173Y572686D1*
X497577Y572879D1*
X497779Y573072D1*
X498384Y573458D1*
X498586Y573651D1*
X499394Y574229D1*
X499798Y574615D1*
X500404Y575001D1*
X500443Y575138D1*
X500606Y575387D1*
X501009Y575580D1*
X501049Y575717D1*
X501211Y575966D1*
X501817Y576159D1*
X503231Y577509D1*
X504442Y578281D1*
X505250Y578860D1*
X505856Y579439D1*
X506260Y579631D1*
Y579824D1*
X506664Y580017D1*
X507269Y580210D1*
X507309Y580347D1*
X507471Y580596D1*
X507875Y580789D1*
X508077Y580982D1*
X508683Y581368D1*
X509491Y581947D1*
Y582332D1*
X510702Y582718D1*
X510904Y582911D1*
X511712Y583490D1*
Y583683D1*
X512116Y583876D1*
X512721Y584069D1*
X512923Y584262D1*
X513731Y584841D1*
X515549Y585998D1*
X515952Y586191D1*
X516760Y586963D1*
X517164Y587156D1*
X517770Y587349D1*
X517972Y587542D1*
Y587735D1*
X518376Y587927D1*
X518981Y588120D1*
X519021Y588257D1*
X519183Y588506D1*
X519789Y588699D1*
X520193Y588892D1*
X521203Y589471D1*
X521001Y589664D1*
X521405Y589857D1*
X522010Y590050D1*
X522414Y590243D1*
X523222Y590821D1*
Y591014D1*
X523626Y591207D1*
X524434Y591400D1*
X524473Y591537D1*
X524635Y591786D1*
X525241Y591979D1*
X525645Y592172D1*
Y592365D1*
X526049Y592558D1*
X526655Y592751D1*
X527261Y593137D1*
X529280Y594101D1*
X529319Y594238D1*
X529482Y594487D1*
X530693Y594873D1*
X531501Y595452D1*
X532713Y596031D1*
X533117Y596416D1*
X533267Y596540D1*
X533372Y596529D1*
X533520Y596416D1*
X534126Y596802D1*
X534328Y596995D1*
X534732Y597188D1*
X535338Y597381D1*
Y597574D1*
X535742Y597767D1*
X536953Y598153D1*
X537559Y598539D1*
X537963Y598732D1*
Y598925D1*
X538367Y599117D1*
X539175Y599310D1*
X539780Y599503D1*
X540386Y599889D1*
X540790Y600082D1*
X540992Y600275D1*
X541396Y600468D1*
X542002Y600661D1*
X542203Y600854D1*
X542607Y601047D1*
X543819Y601433D1*
X546646Y602783D1*
X546848Y602976D1*
X532309D1*
G37*
G36*
X572493Y591400D2*
D1*
G37*
G36*
X507067Y579824D2*
D1*
G37*
G36*
X546646Y576737D2*
X540790Y576545D1*
X537761Y576159D1*
Y573458D1*
X538165Y573265D1*
X539242Y573458D1*
X540319D1*
X541396Y573265D1*
Y571335D1*
X541800Y571142D1*
Y566126D1*
X542002Y560338D1*
X542405Y560145D1*
Y558988D1*
X543011D1*
X543752Y559181D1*
X544492D1*
X545232Y558988D1*
X545636Y559181D1*
Y559760D1*
X545434Y563039D1*
X545232Y569020D1*
X545031Y570757D1*
X544829Y570950D1*
Y573458D1*
X548060Y573651D1*
X548665Y574036D1*
X548463Y575001D1*
X548261Y576737D1*
X546646D1*
G37*
G36*
X552502Y571335D2*
X552300Y571142D1*
X552098Y570178D1*
X551694Y569406D1*
X551492Y568441D1*
Y567670D1*
X551278Y567460D1*
X551174Y567492D1*
X551088Y567670D1*
X550887Y566512D1*
X550685Y565547D1*
X550281Y564776D1*
X550079Y564004D1*
X549675Y562846D1*
X549271Y560917D1*
X548867Y560338D1*
X548665Y559374D1*
Y559181D1*
X549473Y558988D1*
X552098D1*
X552300Y559567D1*
X552502Y560724D1*
X552906Y561496D1*
Y561882D1*
X554319Y562075D1*
X555733D1*
X557146Y561882D1*
Y560724D1*
X557348Y558988D1*
X557550Y558795D1*
X560579Y558409D1*
X560781Y558795D1*
Y559374D1*
X560579Y560917D1*
X560377Y562654D1*
X559973Y563425D1*
X559772Y565355D1*
X559570Y565740D1*
X559368Y566512D1*
X559166Y568056D1*
X558964Y569406D1*
Y569792D1*
X558560Y570950D1*
X558358Y572493D1*
X558156Y572879D1*
X557954Y573844D1*
X557752Y575387D1*
X557550Y575966D1*
X557146Y576159D1*
X554117D1*
X553714Y575773D1*
X553512Y574808D1*
X553108Y574036D1*
X552906Y572879D1*
X552502Y572107D1*
Y571335D1*
X555329D1*
X555480Y571459D1*
X555585Y571448D1*
X555733Y571335D1*
Y569213D1*
X555935Y567091D1*
X556339Y566898D1*
Y565547D1*
X556541Y565355D1*
Y564969D1*
X555800Y564776D1*
X555060D1*
X554319Y564969D1*
Y565162D1*
X554117Y565547D1*
Y566705D1*
X554319Y566898D1*
X554521Y567670D1*
X554925Y568827D1*
X555127Y570178D1*
X555329Y570950D1*
Y571335D1*
X552502D1*
G37*
G36*
X532915Y575773D2*
Y575580D1*
X530895Y575387D1*
X530693Y575194D1*
Y574036D1*
X530895Y572300D1*
X531097Y570371D1*
X531501Y569985D1*
Y568634D1*
X531664Y568385D1*
X531703Y568249D1*
X530290Y568056D1*
X528270Y567863D1*
Y567670D1*
X528001Y567477D1*
X527732D1*
X527462Y567670D1*
Y568249D1*
X527261Y569985D1*
X527059Y570564D1*
X526857Y571528D1*
X526655Y573844D1*
X526251Y574615D1*
X525645D1*
X523828Y574422D1*
X523958Y574161D1*
X523753Y574024D1*
X523554Y574052D1*
X523424Y574229D1*
X523222Y574036D1*
Y572879D1*
X523424Y571142D1*
X523828Y570757D1*
Y569406D1*
X524030Y567477D1*
X524434Y567284D1*
Y565933D1*
X524635Y564197D1*
X524837Y562268D1*
X525241Y562075D1*
Y560724D1*
X525443Y558795D1*
X525847Y558602D1*
Y557059D1*
X527462D1*
X529280Y557444D1*
Y557637D1*
X529078Y558216D1*
X528876Y559374D1*
X528674Y561303D1*
X528472Y561882D1*
X528270Y562846D1*
X528068Y563039D1*
Y564583D1*
X529078Y564776D1*
X530895Y564969D1*
Y565162D1*
X531299Y565355D1*
X531703D1*
X532107Y565162D1*
X532309Y564969D1*
Y563232D1*
X532713Y563039D1*
Y561689D1*
X533117Y558216D1*
X534732D1*
X536347Y558409D1*
X536549Y558795D1*
X536347Y560724D1*
X536146Y561110D1*
X535944Y562268D1*
X535742Y564004D1*
X535540Y566126D1*
X535338Y566512D1*
X535136Y567670D1*
X534934Y569406D1*
Y569792D1*
X534530Y571335D1*
X534126Y574808D1*
X533924Y575194D1*
X533722Y575773D1*
X532915D1*
G37*
G36*
X565426Y575387D2*
Y574036D1*
X565224Y573844D1*
Y572300D1*
X564820Y572107D1*
X564618Y570371D1*
Y569020D1*
X564214Y568634D1*
X563810Y565162D1*
Y563618D1*
X563406Y563425D1*
X563204Y561689D1*
Y560145D1*
X562801Y559952D1*
Y558409D1*
X563406Y558216D1*
X565022Y557830D1*
X565830D1*
X566031Y558023D1*
X566233Y559567D1*
X566637Y561496D1*
X566839Y563039D1*
X567041Y564197D1*
X567243Y564776D1*
X567445Y566705D1*
X567647Y568249D1*
X567849Y569213D1*
X568051Y569599D1*
Y571528D1*
X568253Y571721D1*
Y571914D1*
X568791Y572107D1*
X569330D1*
X569868Y571914D1*
X569666Y571721D1*
X573301Y571335D1*
X573705D1*
X573907Y571528D1*
X574109Y572493D1*
X574311Y572879D1*
Y574036D1*
X573907Y574422D1*
X572089Y574615D1*
X568858Y575001D1*
Y575194D1*
X566839Y575387D1*
X565426D1*
G37*
G36*
X517770Y573265D2*
Y573072D1*
X516962Y572879D1*
X515952Y572686D1*
X514741Y572493D1*
X513731Y572107D1*
X512923Y571914D1*
X511712Y571528D1*
X510904Y571335D1*
X509692Y571142D1*
X509491Y570757D1*
Y570178D1*
X509692Y569213D1*
X510096Y568249D1*
X510298Y567091D1*
X510702Y566319D1*
X511106Y564390D1*
X511510Y563618D1*
X511712Y562268D1*
X512116Y561496D1*
X512318Y560531D1*
X512721Y559374D1*
X512923Y558602D1*
X513125Y557637D1*
X513529Y556287D1*
X513731Y555515D1*
X514135Y555322D1*
Y554358D1*
X515549D1*
X516356Y554550D1*
X517568Y554936D1*
X518577Y555129D1*
X519587Y555515D1*
X520395Y555708D1*
X521606Y556094D1*
X522616Y556287D1*
X523222Y556480D1*
Y557444D1*
X522818Y558602D1*
X522414Y559374D1*
X522010D1*
Y559181D1*
X521203Y558988D1*
X519991Y558795D1*
X519183Y558602D1*
X516962Y558023D1*
X516911Y557796D1*
X516748Y557620D1*
X516644Y557652D1*
X516514Y557864D1*
X516558Y558023D1*
X516356Y558795D1*
X516154Y560145D1*
X515750Y560917D1*
X515549Y561110D1*
Y562075D1*
X517164Y562461D1*
X518376Y562846D1*
X519183Y563039D1*
X520395Y563425D1*
Y564583D1*
X519991Y565547D1*
X519789Y566126D1*
X519183D1*
X518174Y565933D1*
X517972Y565740D1*
X517164Y565547D1*
X515145Y565162D1*
X515071Y564924D1*
X514862Y564761D1*
X514741Y564776D1*
X514337Y565162D1*
Y565933D1*
X514135Y566898D1*
X513731Y567863D1*
X513529Y568056D1*
Y568827D1*
X514337Y569020D1*
X515549Y569406D1*
X516356Y569599D1*
X517568Y569985D1*
X518376Y570178D1*
X518981Y570371D1*
Y571142D1*
X518577Y572107D1*
X518376Y572879D1*
X518174Y573265D1*
X517770D1*
G37*
G36*
X576532Y569792D2*
X576466Y569558D1*
X576330Y569406D1*
X575926Y568634D1*
X575724Y567477D1*
X575522Y566512D1*
Y565547D1*
X575118Y565355D1*
X574916Y564197D1*
X574513Y563232D1*
X574311Y561882D1*
Y558988D1*
X574513Y558216D1*
X574916Y557637D1*
X575320Y557251D1*
X575518Y557049D1*
X575684Y556808D1*
X575724Y556673D1*
X575926Y556287D1*
X576077Y556411D1*
X576182Y556399D1*
X576328Y556281D1*
X576532Y556094D1*
X577138Y555708D1*
X578955Y555129D1*
X581580D1*
X582388Y555515D1*
X582604Y555644D1*
X582693Y555729D1*
X582631Y555467D1*
X582828Y555425D1*
X582890Y555687D1*
X582792Y555901D1*
X583196Y556094D1*
X583801Y556287D1*
X583902Y556480D1*
X584013Y556656D1*
X584207Y556861D1*
X584407Y557059D1*
X585215Y558216D1*
X585417Y558988D1*
X585619Y559952D1*
X586023Y560917D1*
X586225Y562075D1*
X586628Y563039D1*
Y564197D1*
X586830Y564390D1*
X587032Y564969D1*
X587234Y565355D1*
X587436Y566898D1*
Y568634D1*
X587234Y569406D1*
Y569792D1*
X587032Y569985D1*
X586628Y570757D1*
X585417Y571914D1*
X584811Y572107D1*
X584407Y572300D1*
Y572493D1*
X583801Y572686D1*
X582590Y572879D1*
X580369D1*
X579359Y572686D1*
X578955Y572493D1*
X578349Y572107D1*
X577945Y571914D1*
X577879Y571680D1*
X577743Y571528D1*
X577340Y571335D1*
X576936Y570564D1*
X576532Y569985D1*
Y569792D1*
X580571D1*
X581311Y569985D1*
X582051D1*
X582792Y569792D1*
Y569599D1*
X583196Y569406D1*
X584003Y568634D1*
Y566319D1*
X583801Y566126D1*
X583398Y565355D1*
X583196Y564004D1*
Y563039D1*
X582792Y562846D1*
X582590Y561882D1*
X582186Y560724D1*
X581782Y559181D1*
X581176Y558602D1*
Y558409D1*
X580436Y558216D1*
X579695D1*
X578955Y558409D1*
X578735Y558611D1*
X578652Y558795D1*
X578551Y558988D1*
X578305Y558786D1*
X578147Y558795D1*
X577743Y559181D1*
Y560338D1*
X577504Y560555D1*
X577566Y560684D1*
X577743Y560917D1*
X577945Y562268D1*
X578349Y563425D1*
X578551Y564583D1*
X578753Y565162D1*
X578955Y565547D1*
X579157Y566512D1*
Y567477D1*
X579359Y567670D1*
X579763Y568249D1*
X579965Y569020D1*
X580571Y569599D1*
Y569792D1*
X576532D1*
G37*
G36*
X503836Y569213D2*
Y569020D1*
X503029Y568827D1*
X502423Y568634D1*
Y568441D1*
X501211Y568056D1*
X500404Y567863D1*
X499192Y567284D1*
X497173Y566512D1*
X496365Y566126D1*
X495759Y565933D1*
Y565740D1*
X495153Y565547D1*
X494346Y565355D1*
X494144Y565162D1*
X494346Y564583D1*
X494548Y563811D1*
X494951Y563039D1*
X495153Y562461D1*
X495759Y561882D1*
Y561303D1*
X496163Y560724D1*
X496365Y560145D1*
X496567Y559181D1*
X497173Y558602D1*
Y558023D1*
X497577Y557444D1*
X497779Y556866D1*
X497980Y556094D1*
X498384Y555515D1*
X498586Y554936D1*
X498990Y554165D1*
X499192Y553586D1*
X499596Y553007D1*
X500000Y551464D1*
X500404Y550885D1*
X500606Y550306D1*
X501009Y549727D1*
X501211Y549148D1*
X501413D1*
X502625Y549727D1*
X503433Y549920D1*
X504240Y550306D1*
Y550499D1*
X504038Y550885D1*
X503836Y551656D1*
X503433Y552235D1*
X503231Y552814D1*
X502827Y553586D1*
X502625Y554165D1*
X502423Y554936D1*
X502019Y555515D1*
X501817Y556094D1*
X501211Y557251D1*
X501009Y558216D1*
X500606Y558795D1*
X500404Y559374D1*
X500000Y559952D1*
X499798Y560724D1*
X499596Y561303D1*
X499192Y561882D1*
X498990Y562654D1*
X498586Y563232D1*
X498347Y563449D1*
X498384Y563618D1*
X499192Y563811D1*
Y564004D1*
X499798Y564197D1*
X500606Y564390D1*
X500404Y564583D1*
X501009Y564776D1*
X501817Y564969D1*
X501859Y565100D1*
X502042Y565259D1*
X502210D1*
X502423Y565162D1*
Y564776D1*
X502827Y563618D1*
X503231Y563039D1*
X503433Y562268D1*
X503836Y561689D1*
X504038Y560917D1*
X504442Y560338D1*
X504644Y559567D1*
X504846Y558988D1*
X505250Y558409D1*
X505452Y557637D1*
X505856Y557059D1*
X506260Y555901D1*
X506664Y555129D1*
X506865Y554550D1*
X507269Y553779D1*
X507471Y553200D1*
X508077Y552621D1*
Y552235D1*
X508885D1*
X509036Y552359D1*
X509140Y552348D1*
X509289Y552235D1*
X509491Y552428D1*
Y552621D1*
X510096Y552814D1*
X510904Y553007D1*
X511106Y553200D1*
Y553393D1*
X510904Y553972D1*
X510803Y554165D1*
X510683Y554372D1*
X510702Y554550D1*
Y554743D1*
X510298Y555322D1*
X510096Y555901D1*
X509692Y556480D1*
X509491Y557251D1*
X509087Y558023D1*
X508885Y558602D1*
X508481Y559374D1*
X508077Y560531D1*
X507673Y561303D1*
X507269Y562268D1*
X507067Y562654D1*
X506664Y563618D1*
X506260Y564197D1*
Y564583D1*
X506058Y564969D1*
X505856Y565547D1*
X505452Y566126D1*
X505250Y566898D1*
X504846Y567477D1*
X504644Y568056D1*
X504442Y568827D1*
X504038Y569213D1*
X503836D1*
G37*
G36*
X593696D2*
Y568634D1*
X593494Y568441D1*
X593090Y567863D1*
X592888Y566898D1*
X592484Y566512D1*
X592081Y565355D1*
X591677Y564583D1*
X591475Y563811D1*
X591071Y563425D1*
X590869Y562654D1*
Y562075D1*
X590655Y561865D1*
X590550Y561897D1*
X590465Y562075D1*
X590263Y561496D1*
X590061Y560724D1*
X589657Y560145D1*
X589456Y559374D1*
X589052Y558795D1*
X588850Y558216D1*
X588648Y557444D1*
X588244Y556866D1*
X588042Y556287D1*
X587638Y555515D1*
X587436Y554936D1*
X587234Y554165D1*
X586830Y553586D1*
Y553200D1*
X587436Y553007D1*
X588244Y552814D1*
X588850Y552621D1*
X588648Y552428D1*
X589456Y552235D1*
X589859D1*
X590061Y552428D1*
X590465Y553586D1*
X591475Y555515D1*
X591879Y556480D1*
X592081Y556866D1*
X592283Y557637D1*
X592686Y558409D1*
Y558602D1*
X592956Y558795D1*
X593225D1*
X593494Y558602D1*
Y558409D1*
X594100Y558216D1*
X594908Y557830D1*
X596119Y557444D1*
X596523Y557251D1*
Y556673D1*
X596321Y556480D1*
X595917Y555901D1*
X595715Y555322D1*
X595513Y554358D1*
X595110Y553972D1*
X594908Y553200D1*
X594504Y552621D1*
X594302Y552042D1*
X593898Y551464D1*
X593696Y550692D1*
Y550499D1*
X593898Y550306D1*
X595917Y549534D1*
X596725Y549341D1*
X596927Y549534D1*
X597331Y550692D1*
X597937Y551849D1*
X598040Y552039D1*
X598153Y552208D1*
X598341Y552428D1*
X598542Y553200D1*
X598744Y553779D1*
X599148Y554358D1*
X599350Y555129D1*
X599956Y556287D1*
X600360Y556866D1*
X600562Y557637D1*
X600966Y558602D1*
X601168Y558988D1*
X601369Y559567D1*
X601773Y560338D1*
X601975Y560917D1*
X602177Y561689D1*
X602581Y562268D1*
X603187Y563425D1*
X603591Y564390D1*
X603793Y564776D1*
Y565355D1*
X602581Y565933D1*
X601773Y566126D1*
X601168Y566319D1*
Y566512D1*
X600764D1*
X600562Y566126D1*
X600360Y565355D1*
X599956Y564776D1*
X599754Y564197D1*
X599350Y563425D1*
X599148Y562846D1*
X598744Y562268D1*
X598542Y561496D1*
X598341Y560917D1*
Y560531D1*
X598126Y560322D1*
X598022Y560353D1*
X597937Y560531D1*
Y560338D1*
X597600Y560145D1*
X597264D1*
X596927Y560338D1*
Y560531D1*
X596321Y560724D1*
X595513Y560917D1*
X594908Y561110D1*
Y561303D1*
X594100Y561496D1*
Y561882D1*
X594302Y562075D1*
X594908Y563232D1*
X595110Y563811D1*
X595513Y564390D1*
Y565162D1*
X595715Y565355D1*
X595917Y565740D1*
X596321Y566319D1*
Y566512D1*
X596326Y566700D1*
X596362Y566840D1*
X596523Y567091D1*
X596927Y567670D1*
Y568056D1*
X594504Y569213D1*
X593696D1*
G37*
G36*
X477181Y563425D2*
D1*
G37*
G36*
X626409Y558023D2*
D1*
G37*
G36*
X574513Y557444D2*
D1*
G37*
G36*
X584407Y556480D2*
D1*
G37*
G36*
X575724Y555901D2*
D1*
G37*
G36*
X478322Y553461D2*
X478120Y553268D1*
X478263Y553132D1*
X478464Y553325D1*
X478322Y553461D1*
G37*
G36*
X620351Y552621D2*
Y552428D1*
X617928Y552042D1*
X616918Y551656D1*
X615909Y551464D1*
X614697Y551271D1*
Y551078D1*
X613687Y550885D1*
X612274Y550692D1*
X612476Y550499D1*
X611466Y550306D1*
X610254Y550113D1*
X609043Y549727D1*
X608033Y549534D1*
X607819Y549325D1*
X607715Y549356D1*
X607629Y549534D1*
X606620Y549341D1*
X604197Y548763D1*
Y548570D1*
X602985Y548377D1*
X601571Y548184D1*
X600360Y547991D1*
X597331Y547412D1*
Y547219D1*
X594504Y546833D1*
X592888Y546640D1*
X593090Y546447D1*
X591475Y546254D1*
X589657Y546061D1*
X587840Y545676D1*
X586225Y545483D1*
Y545290D1*
X584205Y545097D1*
X581984Y544904D1*
X579965Y544711D1*
Y544518D1*
X577340Y544325D1*
X574513Y544132D1*
Y543939D1*
X571282Y543746D1*
X566839Y543553D1*
X559435Y543360D1*
X552031D1*
X544627Y543553D1*
X536146Y543746D1*
X530088Y543939D1*
Y544132D1*
X525039Y544325D1*
X521001Y544518D1*
Y544711D1*
X517366Y544904D1*
X514135Y545097D1*
X511106Y545290D1*
Y545483D1*
X508279Y545676D1*
X505856Y545869D1*
X505654Y546061D1*
X503433Y546254D1*
X501009Y546640D1*
X499192Y546833D1*
X496971Y547026D1*
X495153Y547219D1*
Y547412D1*
X491721Y547991D1*
X490509Y548184D1*
X487480Y548763D1*
X486268Y548955D1*
X485259Y549148D1*
Y549341D1*
X483037Y549727D1*
X481826Y550113D1*
X479605Y550692D1*
X478595D1*
Y550499D1*
X479807Y549920D1*
X481220Y549534D1*
X482028Y549148D1*
X482836Y548955D1*
X483441Y548763D1*
Y548570D1*
X484855Y548184D1*
X485663Y547798D1*
X487076Y547219D1*
X488288Y546833D1*
X489095Y546447D1*
X489701Y546254D1*
X490509Y545869D1*
X491317Y545676D1*
X491922Y545483D1*
Y545290D1*
X493134Y544904D1*
X494144Y544518D1*
X494951Y544325D1*
X495557Y544132D1*
Y543939D1*
X496769Y543553D1*
X497577Y543168D1*
X497779Y542975D1*
X497929Y543098D1*
X498034Y543087D1*
X498182Y542975D1*
X498990Y542589D1*
X500404Y542203D1*
X501211Y541817D1*
X501817Y541624D1*
X502625Y541238D1*
X504038Y540659D1*
X505250Y540274D1*
X506058Y539888D1*
X506664Y539695D1*
X507471Y539309D1*
X508077Y539116D1*
X508885Y538923D1*
X509491Y538730D1*
Y538537D1*
X510298Y538344D1*
X510904Y538151D1*
Y537958D1*
X511510Y537765D1*
X512318Y537573D1*
X512923Y537380D1*
Y537187D1*
X513731Y536994D1*
X514337Y536801D1*
Y536608D1*
X515145Y536415D1*
X515750Y536222D1*
Y536029D1*
X516558Y535836D1*
X517770Y535450D1*
X517972Y535257D1*
X518577Y535064D1*
X519385Y534679D1*
X520597Y534293D1*
X521405Y533907D1*
X522010Y533714D1*
X522818Y533328D1*
X524434Y532942D1*
X524837Y532749D1*
Y532556D1*
X525847Y532363D1*
X526251Y532170D1*
X526453Y531978D1*
X527261Y531785D1*
X527664Y531592D1*
Y531399D1*
X528674Y531206D1*
X529886Y530820D1*
Y530627D1*
X531501Y530048D1*
X532713Y529662D1*
X533520Y529277D1*
X534126Y529084D1*
X534934Y528698D1*
X536146Y528312D1*
X536953Y527926D1*
X537761Y527733D1*
X538367Y527540D1*
Y527347D1*
X539175Y527154D1*
X539780Y526961D1*
Y526768D1*
X540386Y526575D1*
X541194Y526383D1*
X541800Y526190D1*
X542002Y525997D1*
X542607Y525804D1*
X543415Y525418D1*
X544627Y525032D1*
X545434Y524646D1*
X546040Y524453D1*
X546848Y524067D1*
X548665Y523489D1*
Y523296D1*
X548261Y523103D1*
X547656Y522524D1*
X547252Y521752D1*
X547185Y521518D1*
X547050Y521366D1*
X546646Y521173D1*
X546242Y520595D1*
X546040Y520402D1*
X545636Y519823D1*
X545434Y519630D1*
X544829Y518858D1*
X544762Y518624D1*
X544627Y518472D1*
X544223Y518279D1*
X544021Y517894D1*
Y517508D1*
X543819Y517315D1*
X543415Y517122D1*
X542809Y516543D1*
Y516157D1*
X542405Y515771D1*
X542002Y515578D1*
X541800Y515000D1*
X540588Y513842D1*
Y513456D1*
X540386Y513263D1*
X539982Y513070D1*
Y512684D1*
X539780Y512492D1*
X539376Y512299D1*
X538569Y511141D1*
X537963Y510562D1*
X537761Y510176D1*
X537695Y509942D1*
X537559Y509791D1*
X537155Y509598D1*
X537054Y509405D1*
X536935Y509203D1*
X536750Y509018D1*
X536347Y508633D1*
X535944Y508054D1*
X535540Y507668D1*
X535136Y507089D1*
X535070Y506855D1*
X534934Y506704D1*
X534530Y506511D1*
X534227Y505932D1*
X534108Y505730D1*
X533923Y505545D1*
X533722Y505353D1*
X533621Y505160D1*
X533502Y504958D1*
X533317Y504774D1*
X532915Y504388D1*
X532713Y504003D1*
X532309Y503424D1*
X532107Y503231D1*
X531703Y503038D1*
X531299Y502459D1*
X530693Y501687D1*
X530290Y501109D1*
X530223Y500875D1*
X530088Y500723D1*
X529684Y500530D1*
X529482Y500337D1*
X529280Y499951D1*
X528876Y499372D1*
X528068Y498601D1*
X527664Y498022D1*
X527462Y497829D1*
X527362Y497636D1*
X527243Y497434D1*
X527057Y497249D1*
X526857Y497057D1*
X526790Y496823D1*
X526655Y496671D1*
X526251Y496478D1*
X526049Y495899D1*
X525983Y495665D1*
X525847Y495514D1*
X525443Y495321D1*
X524837Y494549D1*
X524030Y493584D1*
X523929Y493391D1*
X523810Y493190D1*
X523624Y493005D1*
X522616Y492041D1*
Y491655D1*
X522414Y491462D1*
X522010Y491269D1*
Y490883D1*
X521808Y490690D1*
X521405Y490497D1*
X521203Y490112D1*
Y489726D1*
X521001Y489533D1*
X520597Y489340D1*
X519991Y488761D1*
Y488375D1*
X519789Y488182D1*
X519385Y487989D1*
X519183Y487796D1*
X518981Y487411D1*
X518577Y486832D1*
X517770Y486060D1*
Y485674D1*
X517568Y485481D1*
X517164Y485288D1*
X517063Y485095D1*
X516944Y484894D1*
X516759Y484709D1*
X516558Y484517D1*
X516154Y483938D1*
X515750Y483552D1*
X515649Y483359D1*
X515531Y483157D1*
X515345Y482973D1*
X514539Y482201D1*
Y481816D1*
X514135Y481430D1*
X513731Y481237D1*
X513529Y480658D1*
X512721Y479886D1*
Y479500D1*
X512507Y479291D1*
X512403Y479322D1*
X512318Y479500D1*
Y479115D1*
X512116Y478922D1*
X511712Y478729D1*
X511611Y478536D1*
X511492Y478334D1*
X511306Y478149D1*
X511106Y477957D1*
X510904Y477571D1*
X510838Y477337D1*
X510702Y477185D1*
X510298Y476992D1*
X510197Y476799D1*
X510078Y476598D1*
X509893Y476413D1*
X509692Y476221D1*
Y475835D1*
X509289Y475449D1*
X508885Y475256D1*
X508481Y474677D1*
X507875Y473905D1*
X507471Y473520D1*
Y473134D1*
X507269Y472941D1*
X506865Y472748D1*
X506799Y472514D1*
X506664Y472362D1*
X506260Y472169D1*
X505856Y471397D1*
Y471011D1*
X506058D1*
X506260Y471204D1*
Y471397D1*
X506664Y471590D1*
X507269Y471783D1*
X508481Y472555D1*
X509289Y473134D1*
X509328Y473270D1*
X509491Y473520D1*
X510096Y473712D1*
X511308Y474484D1*
X512116Y475063D1*
X512721Y475449D1*
X513529Y475835D1*
X513568Y475971D1*
X513731Y476221D1*
X514337Y476413D1*
X515347Y477185D1*
X516356Y477764D1*
X516395Y477901D1*
X516558Y478150D1*
X517164Y478343D1*
X517568Y478729D1*
X518376Y479115D1*
X519183Y479693D1*
X519223Y479830D1*
X519385Y480079D1*
X519789Y480272D1*
X520395Y480465D1*
X521203Y481044D1*
X522414Y481816D1*
X524030Y482973D1*
X525847Y484131D1*
X526049Y484324D1*
X527261Y485095D1*
X528068Y485674D1*
X529280Y486446D1*
X530088Y487025D1*
X530693Y487411D1*
X530895Y487603D1*
X532713Y488761D1*
X533117Y488954D1*
X534328Y489726D1*
X535136Y490497D1*
X536347Y491076D1*
X537963Y492234D1*
X538973Y492813D1*
X539175Y493006D1*
X539216Y493136D1*
X539399Y493296D1*
X539567D1*
X539679Y493198D1*
Y493006D1*
X539881D1*
Y493584D1*
X540992Y494163D1*
X541194Y494356D1*
X541800Y494742D1*
X542002Y494935D1*
X543819Y496092D1*
X544829Y497057D1*
X545232Y497250D1*
X545838Y497443D1*
X546040Y497636D1*
X546646Y498022D1*
X547454Y498601D1*
X548665Y499372D1*
X548881Y499501D1*
X549069Y499565D1*
X549473Y499179D1*
Y498986D1*
X550281Y498601D1*
X550887Y498215D1*
X551088Y498022D1*
X551694Y497636D1*
X552502Y497250D1*
X553108Y496864D1*
X553512Y496671D1*
X554117Y496285D1*
X554319Y496092D1*
X554925Y495707D1*
X555127Y495514D1*
X556137Y494935D1*
X556945Y494356D1*
X557348Y494163D1*
X557954Y493970D1*
X558358Y493777D1*
Y493584D1*
X559368Y493006D1*
X560579Y492234D1*
X560781Y492041D1*
X561387Y491655D1*
X561791Y491462D1*
X563608Y490305D1*
X564012Y490112D1*
X565830Y488954D1*
X566637Y488375D1*
X567445Y487989D1*
X568051Y487603D1*
X569666Y486446D1*
X570272Y486253D1*
X571080Y485867D1*
Y485674D1*
X571484Y485481D1*
X572089Y485095D1*
X572291Y484902D1*
X572897Y484710D1*
X573301Y484517D1*
Y484324D1*
X574109Y483745D1*
X574916Y483359D1*
X575522Y482973D1*
X575724Y482780D1*
X576330Y482394D1*
X577138Y481816D1*
X577945Y481430D1*
X578551Y481044D1*
X579359Y480465D1*
X579763Y480272D1*
X580369Y480079D1*
X580531Y479830D1*
X580571Y479693D1*
X581580Y479115D1*
X582792Y478343D1*
X583398Y478150D1*
X583801Y477957D1*
Y477764D1*
X584003Y477571D1*
X584609Y477185D1*
X585417Y476799D1*
X586023Y476413D1*
X586225Y476221D1*
X586830Y475835D1*
X587638Y475449D1*
X588244Y474870D1*
X588395Y474994D1*
X588499Y474983D1*
X588645Y474864D1*
X589052Y474484D1*
X589657Y474098D1*
X589808Y474222D1*
X589913Y474211D1*
X590052Y474079D1*
X590160Y473902D1*
X590263Y473712D1*
X591475Y473134D1*
X591677Y472941D1*
X592283Y472555D1*
X592484Y472362D1*
X593090Y472169D1*
X593494Y471976D1*
X593696Y471783D1*
X594100D1*
X593898Y472169D1*
X592888Y473134D1*
Y473327D1*
X592484Y473520D1*
X592245Y473736D1*
X592283Y473905D1*
X592081Y474291D1*
X590869Y475642D1*
X590465Y475835D1*
X590226Y476052D1*
X590263Y476221D1*
X590061Y476606D1*
X589657Y476799D1*
X589254Y477185D1*
Y477378D1*
X588850Y477571D1*
X588648Y477764D1*
Y478150D1*
X588244Y478536D1*
X588042Y478922D1*
X587436Y479500D1*
X587234Y479886D1*
X587032Y480079D1*
X586628Y480272D1*
X586389Y480489D1*
X586427Y480658D1*
X586023Y481237D1*
X585619Y481430D1*
X585215Y481816D1*
Y482008D1*
X585013Y482201D1*
X584609Y482780D1*
X584205Y482973D1*
X583966Y483190D1*
X584003Y483359D1*
X583801Y483745D1*
X583196Y484517D1*
X582590Y484902D1*
X581782Y485674D1*
Y486060D1*
X581378Y486253D1*
X581139Y486470D1*
X581176Y486639D1*
X580369Y487411D1*
Y487796D1*
X579763Y488182D1*
X578955Y488954D1*
Y489340D1*
X578551Y489533D1*
X578312Y489750D1*
X578349Y489919D1*
X577542Y490690D1*
X577138Y491269D1*
X576128Y492234D1*
Y492427D1*
X575522Y493198D1*
X574311Y494356D1*
Y494549D1*
X573907Y494742D1*
X573667Y494959D1*
X573705Y495128D1*
X572897Y496092D1*
X572089Y496864D1*
Y497057D1*
X571887Y497250D1*
X571484Y497829D1*
X571080Y498022D1*
X570840Y498239D1*
X570878Y498408D1*
X570474Y498793D1*
X570070Y499372D1*
X569262Y500144D1*
Y500337D1*
X568858Y500530D1*
X568657Y500723D1*
Y501109D1*
X568253Y501302D1*
X568013Y501518D1*
X568051Y501687D1*
X567849Y501880D1*
X567445Y502073D1*
X567243Y502266D1*
Y502652D1*
X566435Y503424D1*
X566031Y504003D1*
X565628Y504196D1*
X565388Y504412D1*
X565426Y504581D1*
X565224Y504967D1*
X565022Y505160D1*
X564618Y505353D1*
X564345Y505614D1*
X564618Y505739D1*
X563608Y506704D1*
X563204Y507282D1*
X561791Y508633D1*
Y508826D1*
X561185Y509598D1*
X560781Y509791D1*
X560377Y510176D1*
Y510562D1*
X559772Y511141D1*
X559368Y511334D1*
X559128Y511551D1*
X559166Y511720D1*
X558762Y512299D1*
X557550Y513456D1*
Y513649D1*
X557146Y514035D1*
X556945Y514421D1*
X556541Y514614D1*
X556301Y514831D1*
X556339Y515000D1*
X556137Y515193D1*
X555733Y515771D1*
X554723Y516736D1*
Y516929D1*
X554319Y517122D1*
X554080Y517339D1*
X554117Y517508D1*
X553512Y518279D1*
X553292Y518481D1*
X553209Y518665D1*
X553108Y518858D1*
X552906Y519051D1*
X552502Y519244D1*
X552263Y519461D1*
X552300Y519630D1*
X551896Y520209D1*
X550685Y521366D1*
Y521559D1*
X550483Y521752D1*
X550079Y521945D1*
X549839Y522162D1*
X549877Y522331D1*
X549473Y522910D1*
X549271Y523103D1*
X548867Y523296D1*
Y523489D1*
X549473Y523682D1*
X550483Y523874D1*
X551694Y524453D1*
X552300Y524646D1*
X553916Y525225D1*
X554521Y525418D1*
X555329Y525804D1*
X555935Y525997D1*
X557348Y526575D1*
X557954Y526768D1*
X558964Y527154D1*
X559166Y527347D1*
X560175Y527733D1*
X560781Y527926D1*
X561589Y528312D1*
X562801Y528698D1*
X564012Y529277D1*
X564214Y529469D1*
X565426Y529855D1*
X566233Y530048D1*
X567445Y530627D1*
X570474Y531785D1*
X572089Y532556D1*
X572291Y532749D1*
X572897Y532942D1*
X573705Y533135D1*
X574311Y533328D1*
X575118Y533714D1*
X575724Y533907D1*
Y534100D1*
X576936Y534486D1*
X577743Y534679D1*
X578955Y535257D1*
X579157Y535450D1*
X579561Y535643D1*
X581176Y536029D1*
Y536222D1*
X581580Y536415D1*
X582186Y536608D1*
X582388Y536801D1*
X582994Y536994D1*
X583801Y537187D1*
X585417Y537958D1*
X585619Y538151D1*
X586225Y538344D1*
X587032Y538537D1*
Y538730D1*
X587638Y538923D1*
X588446Y539116D1*
X589657Y539695D1*
X590263Y539888D1*
X591475Y540466D1*
X591626Y540590D1*
X591730Y540579D1*
X591879Y540466D1*
X592283Y540659D1*
Y540852D1*
X592888Y541045D1*
X593696Y541238D1*
X594302Y541624D1*
X594908Y541817D1*
X595715Y542203D1*
X596927Y542589D1*
Y542782D1*
X597533Y542975D1*
X598341Y543168D1*
Y543360D1*
X598946Y543553D1*
X599754Y543746D1*
X600360Y543939D1*
Y544132D1*
X600966Y544325D1*
X601773Y544518D1*
Y544711D1*
X602379Y544904D1*
X603187Y545097D1*
X603793Y545290D1*
Y545483D1*
X604197Y545676D1*
X605004Y545869D1*
X606418Y546447D1*
X606620Y546640D1*
X607024Y546833D1*
X608639Y547219D1*
Y547412D1*
X609043Y547605D1*
X609851Y547798D1*
X609649Y547991D1*
X610254Y548184D1*
X611264Y548377D1*
X611870Y548570D1*
X613082Y549148D1*
Y549341D1*
X613687Y549534D1*
X614697Y549727D1*
X615101Y549920D1*
Y550113D1*
X615707Y550306D1*
X616514Y550499D1*
X618534Y551464D1*
X619745Y551849D1*
X620351Y552235D1*
X620755Y552428D1*
X620957Y552621D1*
X620351D1*
G37*
G36*
X575320Y533328D2*
D1*
G37*
G36*
X576532Y492427D2*
D1*
G37*
G36*
X519299Y488904D2*
X519366Y488799D1*
X519538Y488900D1*
X519471Y489004D1*
X519299Y488904D1*
G37*
G36*
X517164Y477764D2*
D1*
G37*
G36*
X589657Y477571D2*
D1*
G37*
G36*
X604398Y471783D2*
D1*
G37*
G36*
X594504Y471590D2*
D1*
G37*
G36*
X593696Y471204D2*
D1*
G37*
G36*
X601168Y466767D2*
D1*
G37*
X2213691Y518539D2*
D35*
X2199365D1*
X2197940Y505639D1*
X2199365Y507065D1*
X2203676Y508524D1*
X2207954D1*
X2212265Y507065D1*
X2215150Y504213D1*
X2216576Y499902D1*
Y497050D1*
X2215150Y492739D1*
X2212265Y489854D1*
X2207954Y488428D1*
X2203676D1*
X2199365Y489854D1*
X2197940Y491313D1*
X2196480Y494165D1*
X2225840Y512802D2*
X2228725Y514261D1*
X2233036Y518539D1*
Y488428D1*
X2243759Y511376D2*
Y512802D1*
X2245185Y515687D1*
X2246611Y517113D1*
X2249496Y518539D1*
X2255233D1*
X2258085Y517113D1*
X2259511Y515687D1*
X2260970Y512802D1*
Y509950D1*
X2259511Y507065D1*
X2256659Y502787D1*
X2242300Y488428D1*
X2262396D1*
X2294607D2*
Y518572D1*
X2283133Y488428D1*
X2271659Y518572D1*
Y488428D1*
X2303871Y518572D2*
Y488428D1*
Y504213D2*
X2306756Y507098D1*
X2309608Y508524D1*
X2313919D1*
X2316770Y507098D1*
X2319656Y504213D1*
X2321082Y499902D1*
Y497050D1*
X2319656Y492739D1*
X2316770Y489887D1*
X2313919Y488428D1*
X2309608D1*
X2306756Y489887D1*
X2303871Y492739D1*
X2359506Y499902D2*
X2376717D1*
Y502787D1*
X2375291Y505672D1*
X2373865Y507098D1*
X2370980Y508524D1*
X2366669D1*
X2363817Y507098D1*
X2360932Y504213D1*
X2359506Y499902D1*
Y497050D1*
X2360932Y492739D1*
X2363817Y489887D1*
X2366669Y488428D1*
X2370980D1*
X2373865Y489887D1*
X2376717Y492739D1*
X2385980Y508524D2*
X2401765Y488428D1*
Y508524D2*
X2385980Y488428D1*
X2415340Y518572D2*
Y494165D1*
X2416766Y489887D1*
X2419651Y488428D1*
X2422503D1*
X2411029Y508524D2*
X2421077D1*
X2472401Y518572D2*
X2469549D1*
X2466664Y517146D1*
X2465238Y512835D1*
Y488428D1*
X2460927Y508524D2*
X2470975D1*
X2488827D2*
X2485975Y507098D1*
X2483090Y504213D1*
X2481664Y499902D1*
Y497050D1*
X2483090Y492739D1*
X2485975Y489887D1*
X2488827Y488428D1*
X2493138D1*
X2496023Y489887D1*
X2498875Y492739D1*
X2500334Y497050D1*
Y499902D1*
X2498875Y504213D1*
X2496023Y507098D1*
X2493138Y508524D1*
X2488827D1*
X2509598D2*
Y488428D1*
Y499902D2*
X2511057Y504213D1*
X2513909Y507098D1*
X2516794Y508524D1*
X2521105D1*
X2559529Y502787D2*
X2572462D1*
X2576740Y504213D1*
X2578199Y505672D1*
X2579625Y508524D1*
Y512835D1*
X2578199Y515687D1*
X2576740Y517146D1*
X2572462Y518572D1*
X2559529D1*
Y488428D1*
X2588889Y499902D2*
X2606100D1*
Y502787D1*
X2604674Y505672D1*
X2603248Y507098D1*
X2600363Y508524D1*
X2596052D1*
X2593200Y507098D1*
X2590315Y504213D1*
X2588889Y499902D1*
Y497050D1*
X2590315Y492739D1*
X2593200Y489887D1*
X2596052Y488428D1*
X2600363D1*
X2603248Y489887D1*
X2606100Y492739D1*
X2615363Y508524D2*
Y488428D1*
Y502787D2*
X2619674Y507098D1*
X2622559Y508524D1*
X2626837D1*
X2629722Y507098D1*
X2631148Y502787D1*
Y488428D1*
X2644723Y518572D2*
Y494165D1*
X2646149Y489887D1*
X2649034Y488428D1*
X2651886D1*
X2640412Y508524D2*
X2650460D1*
X2678360D2*
Y488428D1*
Y504213D2*
X2675508Y507098D1*
X2672623Y508524D1*
X2668345D1*
X2665460Y507098D1*
X2662608Y504213D1*
X2661149Y499902D1*
Y497050D1*
X2662608Y492739D1*
X2665460Y489887D1*
X2668345Y488428D1*
X2672623D1*
X2675508Y489887D1*
X2678360Y492739D1*
X2704835Y507098D2*
Y484117D1*
X2703409Y479839D1*
X2701983Y478380D1*
X2699098Y476954D1*
X2694787D1*
X2691935Y478380D1*
X2704835Y502787D2*
X2701983Y505639D1*
X2699098Y507098D1*
X2694787D1*
X2691935Y505639D1*
X2689050Y502787D1*
X2687624Y498476D1*
Y495591D1*
X2689050Y491313D1*
X2691935Y488428D1*
X2694787Y487002D1*
X2699098D1*
X2701983Y488428D1*
X2704835Y491313D1*
X2721261Y508524D2*
X2718409Y507098D1*
X2715524Y504213D1*
X2714098Y499902D1*
Y497050D1*
X2715524Y492739D1*
X2718409Y489887D1*
X2721261Y488428D1*
X2725572D1*
X2728457Y489887D1*
X2731309Y492739D1*
X2732768Y497050D1*
Y499902D1*
X2731309Y504213D1*
X2728457Y507098D1*
X2725572Y508524D1*
X2721261D1*
X2742032D2*
Y488428D1*
Y502787D2*
X2746343Y507098D1*
X2749228Y508524D1*
X2753506D1*
X2756391Y507098D1*
X2757817Y502787D1*
Y488428D1*
X2797700Y511376D2*
Y512802D1*
X2799126Y515687D1*
X2800552Y517113D1*
X2803437Y518539D1*
X2809174D1*
X2812026Y517113D1*
X2813452Y515687D1*
X2814911Y512802D1*
Y509950D1*
X2813452Y507065D1*
X2810600Y502787D1*
X2796241Y488428D1*
X2816337D1*
X2834222Y518539D2*
X2829911Y517113D1*
X2827026Y512802D1*
X2825600Y505639D1*
Y501328D1*
X2827026Y494165D1*
X2829911Y489854D1*
X2834222Y488428D1*
X2837074D1*
X2841385Y489854D1*
X2844237Y494165D1*
X2845696Y501328D1*
Y505639D1*
X2844237Y512802D1*
X2841385Y517113D1*
X2837074Y518539D1*
X2834222D1*
X2844237Y512802D2*
X2827026Y494165D1*
X2856419Y511376D2*
Y512802D1*
X2857845Y515687D1*
X2859271Y517113D1*
X2862156Y518539D1*
X2867893D1*
X2870745Y517113D1*
X2872171Y515687D1*
X2873630Y512802D1*
Y509950D1*
X2872171Y507065D1*
X2869319Y502787D1*
X2854960Y488428D1*
X2875056D1*
X2887205Y518539D2*
X2902956D1*
X2894367Y507065D1*
X2898678D1*
X2901530Y505639D1*
X2902956Y504213D1*
X2904415Y499902D1*
Y497050D1*
X2902956Y492739D1*
X2900104Y489854D1*
X2895793Y488428D1*
X2891482D1*
X2887205Y489854D1*
X2885779Y491313D1*
X2884319Y494165D1*
X2942840Y518572D2*
Y488428D1*
Y504213D2*
X2945725Y507098D1*
X2948577Y508524D1*
X2952888D1*
X2955740Y507098D1*
X2958625Y504213D1*
X2960051Y499902D1*
Y497050D1*
X2958625Y492739D1*
X2955740Y489887D1*
X2952888Y488428D1*
X2948577D1*
X2945725Y489887D1*
X2942840Y492739D1*
X2970773Y508524D2*
X2979362Y488428D1*
X2976510Y482691D1*
X2973625Y479806D1*
X2970773Y478380D1*
X2969314D1*
X2987984Y508524D2*
X2979362Y488428D1*
X3043619Y507098D2*
Y484117D1*
X3042193Y479839D1*
X3040767Y478380D1*
X3037882Y476954D1*
X3033571D1*
X3030719Y478380D1*
X3043619Y502787D2*
X3040767Y505639D1*
X3037882Y507098D1*
X3033571D1*
X3030719Y505639D1*
X3027834Y502787D1*
X3026408Y498476D1*
Y495591D1*
X3027834Y491313D1*
X3030719Y488428D1*
X3033571Y487002D1*
X3037882D1*
X3040767Y488428D1*
X3043619Y491313D1*
X3070094Y518572D2*
Y488428D1*
Y504213D2*
X3067242Y507098D1*
X3064357Y508524D1*
X3060046D1*
X3057194Y507098D1*
X3054309Y504213D1*
X3052883Y499902D1*
Y497050D1*
X3054309Y492739D1*
X3057194Y489887D1*
X3060046Y488428D1*
X3064357D1*
X3067242Y489887D1*
X3070094Y492739D1*
X3079357Y508524D2*
X3087979Y488428D1*
X3096568Y508524D1*
X3107291Y511376D2*
Y512802D1*
X3108717Y515687D1*
X3110143Y517113D1*
X3113028Y518539D1*
X3118765D1*
X3121617Y517113D1*
X3123043Y515687D1*
X3124502Y512802D1*
Y509950D1*
X3123043Y507065D1*
X3120191Y502787D1*
X3105832Y488428D1*
X3125928D1*
X3143813Y518539D2*
X3139502Y517113D1*
X3136617Y512802D1*
X3135191Y505639D1*
Y501328D1*
X3136617Y494165D1*
X3139502Y489854D1*
X3143813Y488428D1*
X3146665D1*
X3150976Y489854D1*
X3153828Y494165D1*
X3155287Y501328D1*
Y505639D1*
X3153828Y512802D1*
X3150976Y517113D1*
X3146665Y518539D1*
X3143813D1*
X3153828Y512802D2*
X3136617Y494165D1*
X3173173Y518539D2*
X3168862Y517113D1*
X3165977Y512802D1*
X3164551Y505639D1*
Y501328D1*
X3165977Y494165D1*
X3168862Y489854D1*
X3173173Y488428D1*
X3176025D1*
X3180336Y489854D1*
X3183188Y494165D1*
X3184647Y501328D1*
Y505639D1*
X3183188Y512802D1*
X3180336Y517113D1*
X3176025Y518539D1*
X3173173D1*
X3183188Y512802D2*
X3165977Y494165D1*
X3195369Y511376D2*
Y512802D1*
X3196795Y515687D1*
X3198221Y517113D1*
X3201106Y518539D1*
X3206843D1*
X3209695Y517113D1*
X3211121Y515687D1*
X3212580Y512802D1*
Y509950D1*
X3211121Y507065D1*
X3208269Y502787D1*
X3193910Y488428D1*
X3214006D1*
X3262478Y526431D2*
X3259593Y523579D1*
X3256741Y519268D1*
X3253856Y513531D1*
X3252430Y506335D1*
Y500598D1*
X3253856Y493435D1*
X3256741Y487698D1*
X3259593Y483387D1*
X3262478Y480535D1*
X3276053Y518572D2*
Y494165D1*
X3277479Y489887D1*
X3280364Y488428D1*
X3283216D1*
X3271742Y508524D2*
X3281790D1*
X3293905Y491313D2*
X3292480Y489854D1*
X3293905Y488428D1*
X3295365Y489854D1*
X3293905Y491313D1*
X3304628Y508524D2*
Y488428D1*
Y502787D2*
X3308939Y507098D1*
X3311824Y508524D1*
X3316102D1*
X3318987Y507098D1*
X3320413Y502787D1*
Y488428D1*
Y502787D2*
X3324724Y507098D1*
X3327609Y508524D1*
X3331887D1*
X3334772Y507098D1*
X3336231Y502787D1*
Y488428D1*
X3345495Y499902D2*
X3362706D1*
Y502787D1*
X3361280Y505672D1*
X3359854Y507098D1*
X3356969Y508524D1*
X3352658D1*
X3349806Y507098D1*
X3346921Y504213D1*
X3345495Y499902D1*
Y497050D1*
X3346921Y492739D1*
X3349806Y489887D1*
X3352658Y488428D1*
X3356969D1*
X3359854Y489887D1*
X3362706Y492739D1*
X3371969Y488428D2*
X3392065Y518539D1*
X3401329Y502787D2*
X3414262D1*
X3418540Y504213D1*
X3419999Y505672D1*
X3421425Y508524D1*
Y512835D1*
X3419999Y515687D1*
X3418540Y517146D1*
X3414262Y518572D1*
X3401329D1*
Y488428D1*
X3430688Y499902D2*
X3447899D1*
Y502787D1*
X3446473Y505672D1*
X3445047Y507098D1*
X3442162Y508524D1*
X3437851D1*
X3434999Y507098D1*
X3432114Y504213D1*
X3430688Y499902D1*
Y497050D1*
X3432114Y492739D1*
X3434999Y489887D1*
X3437851Y488428D1*
X3442162D1*
X3445047Y489887D1*
X3447899Y492739D1*
X3457163Y508524D2*
Y488428D1*
Y502787D2*
X3461474Y507098D1*
X3464359Y508524D1*
X3468637D1*
X3471522Y507098D1*
X3472948Y502787D1*
Y488428D1*
X3486522Y518572D2*
Y494165D1*
X3487948Y489887D1*
X3490833Y488428D1*
X3493685D1*
X3482211Y508524D2*
X3492259D1*
X3520160D2*
Y488428D1*
Y504213D2*
X3517308Y507098D1*
X3514423Y508524D1*
X3510145D1*
X3507260Y507098D1*
X3504408Y504213D1*
X3502949Y499902D1*
Y497050D1*
X3504408Y492739D1*
X3507260Y489887D1*
X3510145Y488428D1*
X3514423D1*
X3517308Y489887D1*
X3520160Y492739D1*
X3546634Y507098D2*
Y484117D1*
X3545208Y479839D1*
X3543782Y478380D1*
X3540897Y476954D1*
X3536586D1*
X3533734Y478380D1*
X3546634Y502787D2*
X3543782Y505639D1*
X3540897Y507098D1*
X3536586D1*
X3533734Y505639D1*
X3530849Y502787D1*
X3529423Y498476D1*
Y495591D1*
X3530849Y491313D1*
X3533734Y488428D1*
X3536586Y487002D1*
X3540897D1*
X3543782Y488428D1*
X3546634Y491313D1*
X3563061Y508524D2*
X3560209Y507098D1*
X3557324Y504213D1*
X3555898Y499902D1*
Y497050D1*
X3557324Y492739D1*
X3560209Y489887D1*
X3563061Y488428D1*
X3567372D1*
X3570257Y489887D1*
X3573109Y492739D1*
X3574568Y497050D1*
Y499902D1*
X3573109Y504213D1*
X3570257Y507098D1*
X3567372Y508524D1*
X3563061D1*
X3583831D2*
Y488428D1*
Y502787D2*
X3588142Y507098D1*
X3591028Y508524D1*
X3595305D1*
X3598190Y507098D1*
X3599616Y502787D1*
Y488428D1*
X3608880Y483453D2*
X3636139D1*
X3645402Y518572D2*
X3665498D1*
X3645402Y488428D1*
X3665498D1*
X3674762Y518572D2*
X3694858Y488428D1*
Y518572D2*
X3674762Y488428D1*
X3704122Y483453D2*
X3731381D1*
X3762166Y511409D2*
X3760740Y514261D1*
X3757855Y517146D1*
X3755003Y518572D1*
X3749266D1*
X3746381Y517146D1*
X3743529Y514261D1*
X3742070Y511409D1*
X3740644Y507098D1*
Y499902D1*
X3742070Y495624D1*
X3743529Y492739D1*
X3746381Y489887D1*
X3749266Y488428D1*
X3755003D1*
X3757855Y489887D1*
X3760740Y492739D1*
X3762166Y495624D1*
X3771430Y518572D2*
Y488428D1*
Y502787D2*
X3775741Y507098D1*
X3778626Y508524D1*
X3782937D1*
X3785789Y507098D1*
X3787215Y502787D1*
Y488428D1*
X3813689Y508524D2*
Y488428D1*
Y504213D2*
X3810837Y507098D1*
X3807952Y508524D1*
X3803674D1*
X3800789Y507098D1*
X3797937Y504213D1*
X3796478Y499902D1*
Y497050D1*
X3797937Y492739D1*
X3800789Y489887D1*
X3803674Y488428D1*
X3807952D1*
X3810837Y489887D1*
X3813689Y492739D1*
X3827264Y518572D2*
Y494165D1*
X3828690Y489887D1*
X3831575Y488428D1*
X3834427D1*
X3822953Y508524D2*
X3833001D1*
X3843690Y526431D2*
X3846575Y523579D1*
X3849427Y519268D1*
X3852312Y513531D1*
X3853738Y506335D1*
Y500598D1*
X3852312Y493435D1*
X3849427Y487698D1*
X3846575Y483387D1*
X3843690Y480535D1*
X2196480Y463953D2*
Y433809D1*
Y448168D2*
X2200791Y452479D1*
X2203676Y453905D1*
X2207988D1*
X2210839Y452479D1*
X2212265Y448168D1*
Y433809D1*
X2225840Y463953D2*
Y439546D1*
X2227266Y435268D1*
X2230151Y433809D1*
X2233003D1*
X2221529Y453905D2*
X2231577D1*
X2246577Y463953D2*
Y439546D1*
X2248003Y435268D1*
X2250888Y433809D1*
X2253740D1*
X2242266Y453905D2*
X2252314D1*
X2263004D2*
Y423761D1*
Y449594D2*
X2265889Y452446D1*
X2268741Y453905D1*
X2273052D1*
X2275937Y452446D1*
X2278789Y449594D1*
X2280248Y445283D1*
Y442398D1*
X2278789Y438120D1*
X2275937Y435235D1*
X2273052Y433809D1*
X2268741D1*
X2265889Y435235D1*
X2263004Y438120D1*
X2305297Y449594D2*
X2303871Y452479D1*
X2299560Y453905D1*
X2295249D1*
X2290938Y452479D1*
X2289512Y449594D1*
X2290938Y446742D1*
X2293823Y445283D1*
X2300986Y443857D1*
X2303871Y442431D1*
X2305297Y439546D1*
Y438120D1*
X2303871Y435268D1*
X2299560Y433809D1*
X2295249D1*
X2290938Y435268D1*
X2289512Y438120D1*
X2316019Y453905D2*
X2314560Y452446D1*
X2316019Y451020D1*
X2317445Y452446D1*
X2316019Y453905D1*
Y436694D2*
X2314560Y435235D1*
X2316019Y433809D1*
X2317445Y435235D1*
X2316019Y436694D1*
X2326709Y433809D2*
X2346805Y463920D1*
X2356068Y433809D2*
X2376164Y463920D1*
X2402639Y452479D2*
Y429498D1*
X2401213Y425220D1*
X2399787Y423761D1*
X2396902Y422335D1*
X2392591D1*
X2389739Y423761D1*
X2402639Y448168D2*
X2399787Y451020D1*
X2396902Y452479D1*
X2392591D1*
X2389739Y451020D1*
X2386854Y448168D1*
X2385428Y443857D1*
Y440972D1*
X2386854Y436694D1*
X2389739Y433809D1*
X2392591Y432383D1*
X2396902D1*
X2399787Y433809D1*
X2402639Y436694D1*
X2411902Y463953D2*
X2413328Y462527D1*
X2414787Y463953D1*
X2413328Y465412D1*
X2411902Y463953D1*
X2413328Y453905D2*
Y433809D1*
X2428362Y463953D2*
Y439546D1*
X2429788Y435268D1*
X2432673Y433809D1*
X2435525D1*
X2424051Y453905D2*
X2434099D1*
X2444788Y463953D2*
Y433809D1*
Y448168D2*
X2449099Y452479D1*
X2451985Y453905D1*
X2456296D1*
X2459147Y452479D1*
X2460573Y448168D1*
Y433809D1*
X2469837Y453905D2*
Y439546D1*
X2471263Y435268D1*
X2474148Y433809D1*
X2478459D1*
X2481311Y435268D1*
X2485622Y439546D1*
Y453905D2*
Y433809D1*
X2494885Y463953D2*
Y433809D1*
Y449594D2*
X2497771Y452479D1*
X2500622Y453905D1*
X2504933D1*
X2507785Y452479D1*
X2510670Y449594D1*
X2512096Y445283D1*
Y442431D1*
X2510670Y438120D1*
X2507785Y435268D1*
X2504933Y433809D1*
X2500622D1*
X2497771Y435268D1*
X2494885Y438120D1*
X2522786Y436694D2*
X2521360Y435235D1*
X2522786Y433809D1*
X2524245Y435235D1*
X2522786Y436694D1*
X2550753Y449594D2*
X2547868Y452479D1*
X2544983Y453905D1*
X2540705D1*
X2537820Y452479D1*
X2534968Y449594D1*
X2533509Y445283D1*
Y442431D1*
X2534968Y438120D1*
X2537820Y435268D1*
X2540705Y433809D1*
X2544983D1*
X2547868Y435268D1*
X2550753Y438120D1*
X2567179Y453905D2*
X2564327Y452479D1*
X2561442Y449594D1*
X2560016Y445283D1*
Y442431D1*
X2561442Y438120D1*
X2564327Y435268D1*
X2567179Y433809D1*
X2571490D1*
X2574375Y435268D1*
X2577227Y438120D1*
X2578686Y442431D1*
Y445283D1*
X2577227Y449594D1*
X2574375Y452479D1*
X2571490Y453905D1*
X2567179D1*
X2587950D2*
Y433809D1*
Y448168D2*
X2592261Y452479D1*
X2595146Y453905D1*
X2599424D1*
X2602309Y452479D1*
X2603735Y448168D1*
Y433809D1*
Y448168D2*
X2608046Y452479D1*
X2610931Y453905D1*
X2615209D1*
X2618094Y452479D1*
X2619553Y448168D1*
Y433809D1*
X2628816D2*
X2648912Y463920D1*
X2673961Y449594D2*
X2672535Y452479D1*
X2668224Y453905D1*
X2663913D1*
X2659602Y452479D1*
X2658176Y449594D1*
X2659602Y446742D1*
X2662487Y445283D1*
X2669650Y443857D1*
X2672535Y442431D1*
X2673961Y439546D1*
Y438120D1*
X2672535Y435268D1*
X2668224Y433809D1*
X2663913D1*
X2659602Y435268D1*
X2658176Y438120D1*
X2683225Y463953D2*
Y433809D1*
X2697584Y453905D2*
X2683225Y439546D1*
X2688962Y445283D2*
X2699010Y433809D1*
X2725484Y453905D2*
Y433809D1*
Y449594D2*
X2722632Y452479D1*
X2719747Y453905D1*
X2715469D1*
X2712584Y452479D1*
X2709732Y449594D1*
X2708273Y445283D1*
Y442431D1*
X2709732Y438120D1*
X2712584Y435268D1*
X2715469Y433809D1*
X2719747D1*
X2722632Y435268D1*
X2725484Y438120D1*
X2734748Y453905D2*
Y423761D1*
Y449594D2*
X2737633Y452446D1*
X2740485Y453905D1*
X2744796D1*
X2747681Y452446D1*
X2750533Y449594D1*
X2751992Y445283D1*
Y442398D1*
X2750533Y438120D1*
X2747681Y435235D1*
X2744796Y433809D1*
X2740485D1*
X2737633Y435235D1*
X2734748Y438120D1*
X2778466Y453905D2*
Y433809D1*
Y449594D2*
X2775614Y452479D1*
X2772729Y453905D1*
X2768451D1*
X2765566Y452479D1*
X2762714Y449594D1*
X2761255Y445283D1*
Y442431D1*
X2762714Y438120D1*
X2765566Y435268D1*
X2768451Y433809D1*
X2772729D1*
X2775614Y435268D1*
X2778466Y438120D1*
X2787730Y453905D2*
Y433809D1*
Y445283D2*
X2789189Y449594D1*
X2792041Y452479D1*
X2794926Y453905D1*
X2799237D1*
X2808500Y463953D2*
X2809926Y462527D1*
X2811385Y463953D1*
X2809926Y465412D1*
X2808500Y463953D1*
X2809926Y453905D2*
Y433809D1*
X2836434Y449594D2*
X2835008Y452479D1*
X2830697Y453905D1*
X2826386D1*
X2822075Y452479D1*
X2820649Y449594D1*
X2822075Y446742D1*
X2824960Y445283D1*
X2832123Y443857D1*
X2835008Y442431D1*
X2836434Y439546D1*
Y438120D1*
X2835008Y435268D1*
X2830697Y433809D1*
X2826386D1*
X2822075Y435268D1*
X2820649Y438120D1*
X3665632Y1411677D2*
X3679991Y1441788D1*
X3659895D1*
X3707924Y1441821D2*
X3689254D1*
Y1411677D1*
Y1427462D2*
X3700728D1*
X3735858Y1441821D2*
X3717188D1*
Y1411677D1*
Y1427462D2*
X3728662D1*
X3745121Y1441821D2*
Y1411677D1*
X3755169D1*
X3759480Y1413136D1*
X3762365Y1415988D1*
X3763791Y1418873D1*
X3765217Y1423151D1*
Y1430347D1*
X3763791Y1434658D1*
X3762365Y1437510D1*
X3759480Y1440395D1*
X3755169Y1441821D1*
X3745121D1*
X3683517Y1544167D2*
X3696417D1*
X3700728Y1545626D1*
X3702187Y1547052D1*
X3703613Y1549904D1*
Y1552789D1*
X3702187Y1555641D1*
X3700728Y1557100D1*
X3696417Y1558526D1*
X3683517D1*
Y1528382D1*
X3693565Y1544167D2*
X3703613Y1528382D1*
X3735857D2*
X3724350Y1558526D1*
X3712876Y1528382D1*
X3717187Y1538430D2*
X3731546D1*
X3765217Y1554215D2*
X3762365Y1557100D1*
X3758054Y1558526D1*
X3752317D1*
X3748006Y1557100D1*
X3745121Y1554215D1*
Y1551363D1*
X3746580Y1548478D1*
X3748006Y1547052D1*
X3750858Y1545626D1*
X3759480Y1542741D1*
X3762365Y1541315D1*
X3763791Y1539856D1*
X3765217Y1537004D1*
Y1532693D1*
X3762365Y1529841D1*
X3758054Y1528382D1*
X3752317D1*
X3748006Y1529841D1*
X3745121Y1532693D1*
X3705039Y1651363D2*
X3703613Y1654215D1*
X3700728Y1657100D1*
X3697876Y1658526D1*
X3692139D1*
X3689254Y1657100D1*
X3686402Y1654215D1*
X3684943Y1651363D1*
X3683517Y1647052D1*
Y1639856D1*
X3684943Y1635578D1*
X3686402Y1632693D1*
X3689254Y1629841D1*
X3692139Y1628382D1*
X3697876D1*
X3700728Y1629841D1*
X3703613Y1632693D1*
X3705039Y1635578D1*
X3714302Y1642741D2*
X3727235D1*
X3731513Y1644167D1*
X3732972Y1645626D1*
X3734398Y1648478D1*
Y1652789D1*
X3732972Y1655641D1*
X3731513Y1657100D1*
X3727235Y1658526D1*
X3714302D1*
Y1628382D1*
X3743662Y1658526D2*
Y1637004D1*
X3745088Y1632693D1*
X3747973Y1629841D1*
X3752284Y1628382D1*
X3755136D1*
X3759447Y1629841D1*
X3762332Y1632693D1*
X3763758Y1637004D1*
Y1658526D1*
X3633517Y1752755D2*
X3636402Y1754215D1*
X3640713Y1758492D1*
Y1728382D1*
X3651435Y1751329D2*
Y1752755D1*
X3652861Y1755641D1*
X3654287Y1757066D1*
X3657172Y1758492D1*
X3662909D1*
X3665761Y1757066D1*
X3667187Y1755641D1*
X3668646Y1752755D1*
Y1749904D1*
X3667187Y1747018D1*
X3664335Y1742741D1*
X3649976Y1728382D1*
X3670072D1*
X3679336Y1758526D2*
Y1728382D1*
X3689384D1*
X3693695Y1729841D1*
X3696580Y1732693D1*
X3698006Y1735578D1*
X3699432Y1739856D1*
Y1747052D1*
X3698006Y1751363D1*
X3696580Y1754215D1*
X3693695Y1757100D1*
X3689384Y1758526D1*
X3679336D1*
X3708695D2*
Y1728382D1*
X3718743D1*
X3723054Y1729841D1*
X3725940Y1732693D1*
X3727365Y1735578D1*
X3728791Y1739856D1*
Y1747052D1*
X3727365Y1751363D1*
X3725940Y1754215D1*
X3723054Y1757100D1*
X3718743Y1758526D1*
X3708695D1*
X3755266Y1754215D2*
X3753840Y1757066D1*
X3749529Y1758492D1*
X3746677D1*
X3742366Y1757066D1*
X3739481Y1752755D1*
X3738055Y1745593D1*
Y1738430D1*
X3739481Y1732693D1*
X3742366Y1729808D1*
X3746677Y1728382D1*
X3748103D1*
X3752381Y1729808D1*
X3755266Y1732693D1*
X3756692Y1737004D1*
Y1738430D1*
X3755266Y1742741D1*
X3752381Y1745593D1*
X3748103Y1747018D1*
X3746677D1*
X3742366Y1745593D1*
X3739481Y1742741D1*
X3738055Y1738430D1*
X3765955Y1752755D2*
X3768840Y1754215D1*
X3773151Y1758492D1*
Y1728382D1*
X3641794Y1846928D2*
X3654693D1*
X3659005Y1848387D1*
X3660464Y1849813D1*
X3661890Y1852665D1*
Y1855550D1*
X3660464Y1858402D1*
X3659005Y1859861D1*
X3654693Y1861287D1*
X3641794D1*
Y1831143D1*
X3651842Y1846928D2*
X3661890Y1831143D1*
X3689790Y1861287D2*
X3671153D1*
Y1831143D1*
X3689790D1*
X3671153Y1846928D2*
X3682627D1*
X3719150Y1856976D2*
X3716298Y1859861D1*
X3711987Y1861287D1*
X3706250D1*
X3701939Y1859861D1*
X3699054Y1856976D1*
Y1854124D1*
X3700513Y1851239D1*
X3701939Y1849813D1*
X3704791Y1848387D1*
X3713413Y1845502D1*
X3716298Y1844076D1*
X3717724Y1842617D1*
X3719150Y1839765D1*
Y1835454D1*
X3716298Y1832602D1*
X3711987Y1831143D1*
X3706250D1*
X3701939Y1832602D1*
X3699054Y1835454D1*
X3747050Y1861287D2*
X3728413D1*
Y1831143D1*
X3747050D1*
X3728413Y1846928D2*
X3739887D1*
X3766362Y1861287D2*
Y1831143D1*
X3756314Y1861287D2*
X3776410D1*
X3641794Y1869146D2*
X3785673D1*
X686609Y488355D2*
X685183Y491206D1*
X682298Y494092D1*
X679446Y495518D1*
X673709D1*
X670824Y494092D1*
X667972Y491206D1*
X666513Y488355D1*
X665087Y484044D1*
Y476847D1*
X666513Y472570D1*
X667972Y469685D1*
X670824Y466833D1*
X673709Y465374D1*
X679446D1*
X682298Y466833D1*
X685183Y469685D1*
X686609Y472570D1*
X703035Y485470D2*
X700183Y484044D1*
X697298Y481158D1*
X695872Y476847D1*
Y473996D1*
X697298Y469685D1*
X700183Y466833D1*
X703035Y465374D1*
X707346D1*
X710231Y466833D1*
X713083Y469685D1*
X714542Y473996D1*
Y476847D1*
X713083Y481158D1*
X710231Y484044D1*
X707346Y485470D1*
X703035D1*
X739591Y481158D2*
X738165Y484044D1*
X733854Y485470D1*
X729543D1*
X725232Y484044D1*
X723806Y481158D1*
X725232Y478307D1*
X728117Y476847D1*
X735280Y475422D1*
X738165Y473996D1*
X739591Y471110D1*
Y469685D1*
X738165Y466833D1*
X733854Y465374D1*
X729543D1*
X725232Y466833D1*
X723806Y469685D1*
X748854Y485470D2*
Y465374D1*
Y479733D2*
X753165Y484044D1*
X756050Y485470D1*
X760328D1*
X763213Y484044D1*
X764639Y479733D1*
Y465374D1*
Y479733D2*
X768950Y484044D1*
X771835Y485470D1*
X776113D1*
X778998Y484044D1*
X780457Y479733D1*
Y465374D1*
X796884Y485470D2*
X794032Y484044D1*
X791147Y481158D1*
X789721Y476847D1*
Y473996D1*
X791147Y469685D1*
X794032Y466833D1*
X796884Y465374D1*
X801195D1*
X804080Y466833D1*
X806932Y469685D1*
X808391Y473996D1*
Y476847D1*
X806932Y481158D1*
X804080Y484044D1*
X801195Y485470D1*
X796884D1*
X836291Y495518D2*
X817654D1*
Y465374D1*
X836291D1*
X817654Y481158D2*
X829128D1*
X862766Y495518D2*
Y465374D1*
Y481158D2*
X859914Y484044D1*
X857029Y485470D1*
X852718D1*
X849866Y484044D1*
X846981Y481158D1*
X845555Y476847D1*
Y473996D1*
X846981Y469685D1*
X849866Y466833D1*
X852718Y465374D1*
X857029D1*
X859914Y466833D1*
X862766Y469685D1*
X872029Y495518D2*
X873455Y494092D1*
X874914Y495518D1*
X873455Y496977D1*
X872029Y495518D1*
X873455Y485470D2*
Y465374D1*
X888489Y495518D2*
Y471110D1*
X889915Y466833D1*
X892800Y465374D1*
X895652D1*
X884178Y485470D2*
X894226D1*
X904915Y495518D2*
X906341Y494092D1*
X907801Y495518D1*
X906341Y496977D1*
X904915Y495518D1*
X906341Y485470D2*
Y465374D1*
X924227Y485470D2*
X921375Y484044D1*
X918490Y481158D1*
X917064Y476847D1*
Y473996D1*
X918490Y469685D1*
X921375Y466833D1*
X924227Y465374D1*
X928538D1*
X931423Y466833D1*
X934275Y469685D1*
X935734Y473996D1*
Y476847D1*
X934275Y481158D1*
X931423Y484044D1*
X928538Y485470D1*
X924227D1*
X944998D2*
Y465374D1*
Y479733D2*
X949309Y484044D1*
X952194Y485470D1*
X956472D1*
X959357Y484044D1*
X960783Y479733D1*
Y465374D1*
X999207Y495518D2*
X1019303D1*
X999207Y465374D1*
X1019303D1*
X1028566Y495518D2*
X1048662Y465374D1*
Y495518D2*
X1028566Y465374D1*
X1080874D2*
Y495518D1*
X1069400Y465374D1*
X1057926Y495518D1*
Y465374D1*
X1090137Y495518D2*
X1110233Y465374D1*
Y495518D2*
X1090137Y465374D1*
X1136708Y495484D2*
X1122382D1*
X1120956Y482584D1*
X1122382Y484010D1*
X1126693Y485470D1*
X1130971D1*
X1135282Y484010D1*
X1138167Y481158D1*
X1139593Y476847D1*
Y473996D1*
X1138167Y469685D1*
X1135282Y466799D1*
X1130971Y465374D1*
X1126693D1*
X1122382Y466799D1*
X1120956Y468259D1*
X1119497Y471110D1*
X1148856Y489747D2*
X1151742Y491206D1*
X1156053Y495484D1*
Y465374D1*
X1166775Y488321D2*
Y489747D1*
X1168201Y492632D1*
X1169627Y494058D1*
X1172512Y495484D1*
X1178249D1*
X1181101Y494058D1*
X1182527Y492632D1*
X1183986Y489747D1*
Y486895D1*
X1182527Y484010D1*
X1179675Y479733D1*
X1165316Y465374D1*
X1185412D1*
X1214772Y491206D2*
X1211920Y494092D1*
X1207609Y495518D1*
X1201872D1*
X1197561Y494092D1*
X1194676Y491206D1*
Y488355D1*
X1196135Y485470D1*
X1197561Y484044D1*
X1200413Y482618D1*
X1209035Y479733D1*
X1211920Y478307D1*
X1213346Y476847D1*
X1214772Y473996D1*
Y469685D1*
X1211920Y466833D1*
X1207609Y465374D1*
X1201872D1*
X1197561Y466833D1*
X1194676Y469685D1*
X1031821Y1318508D2*
X1061965D1*
Y1328556D1*
X1060506Y1332867D1*
X1057654Y1335752D1*
X1054769Y1337178D1*
X1050491Y1338604D1*
X1043295D1*
X1038984Y1337178D1*
X1036132Y1335752D1*
X1033247Y1332867D1*
X1031821Y1328556D1*
Y1318508D1*
Y1347868D2*
X1061965D1*
Y1357916D1*
X1060506Y1362227D1*
X1057654Y1365112D1*
X1054769Y1366538D1*
X1050491Y1367964D1*
X1043295D1*
X1038984Y1366538D1*
X1036132Y1365112D1*
X1033247Y1362227D1*
X1031821Y1357916D1*
Y1347868D1*
X1037591Y1377227D2*
X1036132Y1380112D1*
X1031854Y1384423D1*
X1061965D1*
X1583332Y1523898D2*
Y1493754D1*
X1596265D1*
X1600576Y1495213D1*
X1602002Y1496639D1*
X1603428Y1499491D1*
Y1503802D1*
X1602002Y1506687D1*
X1600576Y1508113D1*
X1596265Y1509539D1*
X1600576Y1510998D1*
X1602002Y1512424D1*
X1603428Y1515276D1*
Y1518161D1*
X1602002Y1521013D1*
X1600576Y1522472D1*
X1596265Y1523898D1*
X1583332D1*
Y1509539D2*
X1596265D1*
X1632787Y1519587D2*
X1629935Y1522472D1*
X1625624Y1523898D1*
X1619887D1*
X1615576Y1522472D1*
X1612691Y1519587D1*
Y1516735D1*
X1614150Y1513850D1*
X1615576Y1512424D1*
X1618428Y1510998D1*
X1627050Y1508113D1*
X1629935Y1506687D1*
X1631361Y1505228D1*
X1632787Y1502376D1*
Y1498065D1*
X1629935Y1495213D1*
X1625624Y1493754D1*
X1619887D1*
X1615576Y1495213D1*
X1612691Y1498065D1*
X1659262Y1519587D2*
X1657836Y1522439D1*
X1653525Y1523865D1*
X1650673D1*
X1646362Y1522439D1*
X1643477Y1518128D1*
X1642051Y1510965D1*
Y1503802D1*
X1643477Y1498065D1*
X1646362Y1495180D1*
X1650673Y1493754D1*
X1652099D1*
X1656377Y1495180D1*
X1659262Y1498065D1*
X1660688Y1502376D1*
Y1503802D1*
X1659262Y1508113D1*
X1656377Y1510965D1*
X1652099Y1512391D1*
X1650673D1*
X1646362Y1510965D1*
X1643477Y1508113D1*
X1642051Y1503802D1*
X1671410Y1516702D2*
Y1518128D1*
X1672836Y1521013D1*
X1674262Y1522439D1*
X1677147Y1523865D1*
X1682884D1*
X1685736Y1522439D1*
X1687162Y1521013D1*
X1688621Y1518128D1*
Y1515276D1*
X1687162Y1512391D1*
X1684310Y1508113D1*
X1669951Y1493754D1*
X1690047D1*
X1699311Y1523898D2*
Y1493754D1*
X1716522D1*
X1725785Y1523898D2*
X1737259Y1493754D1*
X1748733Y1523898D1*
X1772356Y1493754D2*
Y1523865D1*
X1757997Y1503802D1*
X1779519D1*
X1797404Y1523865D2*
X1793093Y1522439D1*
X1790208Y1518128D1*
X1788782Y1510965D1*
Y1506654D1*
X1790208Y1499491D1*
X1793093Y1495180D1*
X1797404Y1493754D1*
X1800256D1*
X1804567Y1495180D1*
X1807419Y1499491D1*
X1808878Y1506654D1*
Y1510965D1*
X1807419Y1518128D1*
X1804567Y1522439D1*
X1800256Y1523865D1*
X1797404D1*
X1807419Y1518128D2*
X1790208Y1499491D1*
X1826764Y1523865D2*
X1822453Y1522439D1*
X1819568Y1518128D1*
X1818142Y1510965D1*
Y1506654D1*
X1819568Y1499491D1*
X1822453Y1495180D1*
X1826764Y1493754D1*
X1829616D1*
X1833927Y1495180D1*
X1836779Y1499491D1*
X1838238Y1506654D1*
Y1510965D1*
X1836779Y1518128D1*
X1833927Y1522439D1*
X1829616Y1523865D1*
X1826764D1*
X1836779Y1518128D2*
X1819568Y1499491D1*
X1864712Y1519587D2*
X1863286Y1522439D1*
X1858975Y1523865D1*
X1856123D1*
X1851812Y1522439D1*
X1848927Y1518128D1*
X1847501Y1510965D1*
Y1503802D1*
X1848927Y1498065D1*
X1851812Y1495180D1*
X1856123Y1493754D1*
X1857549D1*
X1861827Y1495180D1*
X1864712Y1498065D1*
X1866138Y1502376D1*
Y1503802D1*
X1864712Y1508113D1*
X1861827Y1510965D1*
X1857549Y1512391D1*
X1856123D1*
X1851812Y1510965D1*
X1848927Y1508113D1*
X1847501Y1503802D1*
X2368779Y1629884D2*
Y1599740D1*
X2378827D1*
X2383138Y1601199D1*
X2386023Y1604051D1*
X2387449Y1606936D1*
X2388875Y1611214D1*
Y1618410D1*
X2387449Y1622721D1*
X2386023Y1625573D1*
X2383138Y1628458D1*
X2378827Y1629884D1*
X2368779D1*
X2398138D2*
Y1599740D1*
X2408186D1*
X2412497Y1601199D1*
X2415382Y1604051D1*
X2416808Y1606936D1*
X2418234Y1611214D1*
Y1618410D1*
X2416808Y1622721D1*
X2415382Y1625573D1*
X2412497Y1628458D1*
X2408186Y1629884D1*
X2398138D1*
X2428957Y1622688D2*
Y1624114D1*
X2430383Y1626999D1*
X2431809Y1628425D1*
X2434694Y1629851D1*
X2440431D1*
X2443283Y1628425D1*
X2444709Y1626999D1*
X2446168Y1624114D1*
Y1621262D1*
X2444709Y1618377D1*
X2441857Y1614099D1*
X2427498Y1599740D1*
X2447594D1*
X2238800Y1093779D2*
X2253159Y1123890D1*
X2233063D1*
X2276782Y1093779D2*
Y1123890D1*
X2262423Y1103827D1*
X2283945D1*
X2293208Y1123923D2*
Y1093779D1*
X2313304Y1123923D2*
Y1093779D1*
X2293208Y1109564D2*
X2313304D1*
X2344090Y1116760D2*
X2342664Y1119612D1*
X2339779Y1122497D1*
X2336927Y1123923D1*
X2331190D1*
X2328305Y1122497D1*
X2325453Y1119612D1*
X2323994Y1116760D1*
X2322568Y1112449D1*
Y1105253D1*
X2323994Y1100975D1*
X2325453Y1098090D1*
X2328305Y1095238D1*
X2331190Y1093779D1*
X2336927D1*
X2339779Y1095238D1*
X2342664Y1098090D1*
X2344090Y1100975D1*
X2354813Y1116727D2*
Y1118153D1*
X2356239Y1121038D1*
X2357665Y1122464D1*
X2360550Y1123890D1*
X2366287D1*
X2369139Y1122464D1*
X2370564Y1121038D1*
X2372024Y1118153D1*
Y1115301D1*
X2370564Y1112416D1*
X2367713Y1108138D1*
X2353354Y1093779D1*
X2373450D1*
X2397072D2*
Y1123890D1*
X2382713Y1103827D1*
X2404235D1*
X2427858Y1093779D2*
Y1123890D1*
X2413499Y1103827D1*
X2435021D1*
X2960238Y1629883D2*
X2960239Y1599739D1*
X2970287Y1599740D1*
X2974598Y1601199D1*
X2977483Y1604051D1*
X2978909Y1606936D1*
X2980335Y1611214D1*
X2980334Y1618410D1*
X2978908Y1622721D1*
X2977482Y1625573D1*
X2974597Y1628458D1*
X2970286Y1629884D1*
X2960238Y1629883D1*
X2989597Y1629885D2*
X2989599Y1599741D1*
X2999647D1*
X3003958Y1601200D1*
X3006843Y1604052D1*
X3008268Y1606938D1*
X3009694Y1611215D1*
Y1618412D1*
X3008268Y1622723D1*
X3006842Y1625574D1*
X3003956Y1628459D1*
X2999645Y1629885D1*
X2989597D1*
X3021842Y1629853D2*
X3037594Y1629854D1*
X3029005Y1618379D1*
X3033316D1*
X3036168Y1616954D1*
X3037594Y1615528D1*
X3039054Y1611217D1*
Y1608365D1*
X3037595Y1604054D1*
X3034743Y1601169D1*
X3030432Y1599742D1*
X3026121D1*
X3021843Y1601168D1*
X3020417Y1602627D1*
X3018958Y1605479D1*
X2853367Y1093775D2*
X2867725Y1123887D1*
X2847629Y1123886D1*
X2891349Y1093777D2*
X2891347Y1123888D1*
X2876989Y1103824D1*
X2898511Y1103825D1*
X2907774Y1123922D2*
X2907775Y1093778D1*
X2927870Y1123923D2*
X2927871Y1093779D1*
X2907774Y1109563D2*
X2927870Y1109564D1*
X2958656Y1116761D2*
X2957229Y1119613D1*
X2954344Y1122498D1*
X2951492Y1123924D1*
X2945755Y1123923D1*
X2942870Y1122497D1*
X2940019Y1119612D1*
X2938560Y1116760D1*
X2937134Y1112449D1*
Y1105253D1*
X2938560Y1100975D1*
X2940019Y1098090D1*
X2942872Y1095238D1*
X2945757Y1093779D1*
X2951494Y1093780D1*
X2954345Y1095239D1*
X2957230Y1098091D1*
X2958656Y1100976D1*
X2970804Y1123891D2*
X2986556Y1123892D1*
X2977967Y1112418D1*
X2982278D1*
X2985130Y1110992D1*
X2986556Y1109566D1*
X2988016Y1105255D1*
Y1102403D1*
X2986557Y1098092D1*
X2983705Y1095207D1*
X2979394Y1093781D1*
X2975083D1*
X2970805Y1095206D1*
X2969379Y1096666D1*
X2967920Y1099517D1*
X3003017Y1093782D2*
X3017374Y1123893D1*
X2997278D1*
X3040998Y1093784D2*
X3040997Y1123894D1*
X3026639Y1103831D1*
X3048161Y1103832D1*
X3192467Y1447199D2*
X3222611Y1447201D1*
X3222610Y1457249D1*
X3221151Y1461560D1*
X3218299Y1464445D1*
X3215414Y1465871D1*
X3211136Y1467296D1*
X3203940D1*
X3199629Y1465870D1*
X3196777Y1464443D1*
X3193892Y1461558D1*
X3192466Y1457247D1*
X3192467Y1447199D1*
X3192465Y1476559D2*
X3222609Y1476561D1*
X3222608Y1486609D1*
X3221149Y1490920D1*
X3218297Y1493805D1*
X3215412Y1495230D1*
X3211134Y1496656D1*
X3203938Y1496655D1*
X3199627Y1495229D1*
X3196775Y1493803D1*
X3193890Y1490918D1*
X3192464Y1486607D1*
X3192465Y1476559D1*
X3222606Y1520279D2*
X3192495Y1520277D1*
X3212559Y1505920D1*
X3212557Y1527442D1*
X3266794Y1439284D2*
X3281151Y1469396D1*
X3261055Y1469395D1*
X3304776Y1439287D2*
X3304774Y1469398D1*
X3290416Y1449334D1*
X3311938Y1449336D1*
X3321200Y1469432D2*
X3321202Y1439288D1*
X3341296Y1469434D2*
X3341298Y1439290D1*
X3321201Y1455073D2*
X3341297Y1455075D1*
X3372082Y1462273D2*
X3370656Y1465125D1*
X3367771Y1468010D1*
X3364919Y1469435D1*
X3359182D1*
X3356297Y1468009D1*
X3353445Y1465124D1*
X3351986Y1462272D1*
X3350560Y1457960D1*
X3350561Y1450764D1*
X3351987Y1446487D1*
X3353447Y1443602D1*
X3356299Y1440750D1*
X3359184Y1439291D1*
X3364921D1*
X3367773Y1440751D1*
X3370657Y1443603D1*
X3372083Y1446488D1*
X3389967Y1469404D2*
X3385656Y1467978D1*
X3382771Y1463667D1*
X3381346Y1456504D1*
Y1452193D1*
X3382773Y1445030D1*
X3385658Y1440719D1*
X3389969Y1439293D1*
X3392821D1*
X3397132Y1440720D1*
X3399984Y1445031D1*
X3401442Y1452194D1*
Y1456505D1*
X3399982Y1463668D1*
X3397130Y1467979D1*
X3392819Y1469404D1*
X3389967D1*
X3399982Y1463668D2*
X3382773Y1445030D1*
X3417868Y1469406D2*
X3413590Y1467980D1*
X3412131Y1465128D1*
Y1462243D1*
X3413590Y1459391D1*
X3416442Y1457932D1*
X3422180Y1456507D1*
X3426491Y1455081D1*
X3429343Y1452196D1*
X3430769Y1449344D1*
Y1445033D1*
X3429344Y1442181D1*
X3427918Y1440722D1*
X3423607Y1439296D1*
X3417870Y1439295D1*
X3413592Y1440721D1*
X3412133Y1442180D1*
X3410706Y1445032D1*
Y1449343D1*
X3412132Y1452195D1*
X3415017Y1455080D1*
X3419294Y1456506D1*
X3425031Y1457933D1*
X3427916Y1459392D1*
X3429342Y1462244D1*
Y1465129D1*
X3427916Y1467981D1*
X3423605Y1469407D1*
X3417868Y1469406D1*
X3371451Y1086185D2*
X3401595Y1086188D1*
X3401594Y1096236D1*
X3400135Y1100547D1*
X3397283Y1103431D1*
X3394397Y1104857D1*
X3390119Y1106283D1*
X3382923Y1106282D1*
X3378612Y1104856D1*
X3375761Y1103429D1*
X3372876Y1100544D1*
X3371450Y1096233D1*
X3371451Y1086185D1*
X3371448Y1115544D2*
X3401592Y1115547D1*
X3401591Y1125595D1*
X3400132Y1129906D1*
X3397280Y1132791D1*
X3394394Y1134217D1*
X3390116Y1135642D1*
X3382920Y1135641D1*
X3378609Y1134215D1*
X3375758Y1132789D1*
X3372873Y1129903D1*
X3371447Y1125592D1*
X3371448Y1115544D1*
X3371477Y1162115D2*
X3371478Y1147789D1*
X3384378Y1146364D1*
X3382952Y1147790D1*
X3381493Y1152101D1*
X3381492Y1156379D1*
X3382951Y1160690D1*
X3385803Y1163575D1*
X3390113Y1165002D1*
X3392965D1*
X3397277Y1163576D1*
X3400162Y1160692D1*
X3401588Y1156381D1*
X3401589Y1152103D1*
X3400163Y1147792D1*
X3398704Y1146366D1*
X3395852Y1144906D1*
X3581809Y1126992D2*
X3596165Y1157105D1*
X3576069Y1157103D1*
X3619791Y1126996D2*
X3619788Y1157107D1*
X3605431Y1137043D1*
X3626953Y1137045D1*
X3636214Y1157142D2*
X3636217Y1126998D1*
X3656310Y1157144D2*
X3656313Y1127000D1*
X3636216Y1142783D2*
X3656312Y1142785D1*
X3687096Y1149984D2*
X3685670Y1152836D1*
X3682785Y1155721D1*
X3679933Y1157146D1*
X3674196D1*
X3671311Y1155719D1*
X3668459Y1152834D1*
X3667000Y1149982D1*
X3665575Y1145671D1*
X3665576Y1138475D1*
X3667002Y1134197D1*
X3668461Y1131312D1*
X3671314Y1128460D1*
X3674199Y1127002D1*
X3679936D1*
X3682788Y1128462D1*
X3685672Y1131314D1*
X3687098Y1134199D1*
X3702099Y1127004D2*
X3716455Y1157117D1*
X3696359Y1157115D1*
X3740081Y1127008D2*
X3740078Y1157119D1*
X3725721Y1137055D1*
X3747243Y1137057D1*
X3625095Y890313D2*
X3623669Y893165D1*
X3620784Y896050D1*
X3617932Y897475D1*
X3612195D1*
X3609310Y896049D1*
X3606458Y893163D1*
X3604999Y890311D1*
X3603573Y886000D1*
X3603574Y878804D1*
X3605000Y874526D1*
X3606460Y871641D1*
X3609312Y868790D1*
X3612197Y867331D1*
X3617934D1*
X3620786Y868791D1*
X3623671Y871643D1*
X3625096Y874528D1*
X3637243Y897444D2*
X3652995Y897445D1*
X3644407Y885970D1*
X3648718D1*
X3651570Y884545D1*
X3652996Y883119D1*
X3654456Y878808D1*
Y875956D1*
X3652997Y871645D1*
X3650145Y868760D1*
X3645834Y867333D1*
X3641523D1*
X3637245Y868759D1*
X3635819Y870218D1*
X3634360Y873069D1*
X3669457Y867335D2*
X3683814Y897447D1*
X3663718Y897445D1*
X718781Y1753417D2*
X717355Y1756268D1*
X714470Y1759153D1*
X711618Y1760579D1*
X705881D1*
X702996Y1759153D1*
X700144Y1756267D1*
X698685Y1753415D1*
X697259Y1749104D1*
X697260Y1741908D1*
X698686Y1737630D1*
X700145Y1734745D1*
X702997Y1731894D1*
X705882Y1730435D1*
X711619D1*
X714471Y1731894D1*
X717356Y1734747D1*
X718782Y1737632D1*
X730929Y1760547D2*
X746681Y1760548D1*
X738093Y1749074D1*
X742404D1*
X745256Y1747648D1*
X746682Y1746222D1*
X748141Y1741911D1*
Y1739059D1*
X746683Y1734748D1*
X743831Y1731863D1*
X739520Y1730437D1*
X735209D1*
X730931Y1731862D1*
X729505Y1733321D1*
X728046Y1736173D1*
X764567Y1760549D2*
X760289Y1759123D1*
X758830Y1756271D1*
Y1753386D1*
X760289Y1750534D1*
X763141Y1749075D1*
X768878Y1747650D1*
X773189Y1746224D1*
X776042Y1743339D1*
X777468Y1740487D1*
Y1736176D1*
X776042Y1733324D1*
X774616Y1731865D1*
X770305Y1730439D1*
X764568Y1730438D1*
X760290Y1731864D1*
X758831Y1733323D1*
X757405Y1736175D1*
Y1740486D1*
X758831Y1743338D1*
X761715Y1746223D1*
X765993Y1747649D1*
X771730Y1749076D1*
X774615Y1750535D1*
X776041Y1753387D1*
Y1756272D1*
X774615Y1759124D1*
X770303Y1760550D1*
X764567Y1760549D1*
X725737Y1246220D2*
X738636Y1246221D1*
X742947Y1247680D1*
X744406Y1249106D1*
X745832Y1251958D1*
Y1254843D1*
X744406Y1257695D1*
X742947Y1259154D1*
X738636Y1260580D1*
X725736Y1260579D1*
X725737Y1230435D1*
X735785Y1246221D2*
X745833Y1230436D1*
X772307Y1256270D2*
X770880Y1259122D1*
X766569Y1260548D1*
X763717D1*
X759407Y1259122D1*
X756522Y1254810D1*
X755096Y1247647D1*
Y1240485D1*
X756523Y1234748D1*
X759408Y1231863D1*
X763719Y1230437D1*
X765145D1*
X769423Y1231863D1*
X772308Y1234748D1*
X773733Y1239059D1*
Y1240485D1*
X772307Y1244796D1*
X769422Y1247648D1*
X765144Y1249074D1*
X763718D1*
X759407Y1247648D1*
X756522Y1244796D1*
X755096Y1240485D1*
X718764Y1853415D2*
X717338Y1856267D1*
X714453Y1859152D1*
X711601Y1860578D1*
X705864Y1860577D1*
X702979Y1859151D1*
X700127Y1856266D1*
X698668Y1853414D1*
X697243Y1849103D1*
Y1841907D1*
X698669Y1837629D1*
X700129Y1834744D1*
X702981Y1831892D1*
X705866Y1830433D1*
X711603Y1830434D1*
X714455Y1831893D1*
X717340Y1834745D1*
X718765Y1837630D1*
Y1841908D1*
X711602D1*
X748123Y1860580D2*
X748125Y1830436D1*
X728027Y1860579D1*
X728029Y1830435D1*
X757387Y1860581D2*
X757389Y1830437D1*
X767437Y1830438D1*
X771748Y1831897D1*
X774633Y1834749D1*
X776059Y1837635D1*
X777484Y1841912D1*
Y1849109D1*
X776057Y1853419D1*
X774631Y1856271D1*
X771746Y1859156D1*
X767435Y1860582D1*
X757387Y1860581D1*
X722526Y1446220D2*
X735426Y1446221D1*
X739737Y1447680D1*
X741196Y1449106D1*
X742622Y1451958D1*
Y1454843D1*
X741196Y1457695D1*
X739737Y1459154D1*
X735426Y1460580D1*
X722526Y1460579D1*
X722527Y1430435D1*
X732574Y1446221D2*
X742623Y1430436D1*
X766245Y1430437D2*
X766244Y1460548D1*
X751886Y1440484D1*
X773408Y1440485D1*
X436264Y1069344D2*
X447740Y1039201D1*
X459212Y1069346D1*
X489998Y1062185D2*
X488572Y1065036D1*
X485686Y1067921D1*
X482834Y1069347D1*
X477097D1*
X474212Y1067921D1*
X471361Y1065035D1*
X469902Y1062183D1*
X468476Y1057872D1*
Y1050676D1*
X469903Y1046398D1*
X471362Y1043513D1*
X474214Y1040662D1*
X477099Y1039203D1*
X482836D1*
X485688Y1040662D1*
X488573Y1043514D1*
X489999Y1046400D1*
X520783Y1062187D2*
X519357Y1065038D1*
X516472Y1067923D1*
X513620Y1069349D1*
X507883D1*
X504998Y1067923D1*
X502146Y1065037D1*
X500687Y1062185D1*
X499261Y1057874D1*
X499262Y1050678D1*
X500688Y1046400D1*
X502147Y1043515D1*
X505000Y1040664D1*
X507885Y1039205D1*
X513622D1*
X516474Y1040664D1*
X519358Y1043516D1*
X520784Y1046402D1*
X436264Y1446221D2*
X449164D1*
X453475Y1447681D1*
X454934Y1449107D1*
X456360Y1451958D1*
Y1454844D1*
X454934Y1457695D1*
X453475Y1459155D1*
X449164Y1460580D1*
X436264D1*
Y1430436D1*
X446312Y1446221D2*
X456360Y1430437D1*
X465624Y1454811D2*
X468509Y1456270D1*
X472820Y1460548D1*
Y1430437D1*
X432065Y1249756D2*
X444965D1*
X449276Y1251215D1*
X450735Y1252641D1*
X452161Y1255493D1*
Y1258378D1*
X450735Y1261230D1*
X449276Y1262689D1*
X444965Y1264115D1*
X432065D1*
Y1233971D1*
X442113Y1249756D2*
X452161Y1233971D1*
X462884Y1256919D2*
Y1258345D1*
X464309Y1261230D1*
X465735Y1262656D1*
X468621Y1264082D1*
X474357D1*
X477209Y1262656D1*
X478635Y1261230D1*
X480094Y1258345D1*
Y1255493D1*
X478635Y1252608D1*
X475783Y1248330D1*
X461424Y1233971D1*
X481520D1*
X723239Y1346217D2*
X736139Y1346218D1*
X740450Y1347677D1*
X741909Y1349103D1*
X743335Y1351955D1*
Y1354840D1*
X741909Y1357692D1*
X740450Y1359151D1*
X736139Y1360577D1*
X723239Y1360576D1*
X723240Y1330432D1*
X733287Y1346218D2*
X743336Y1330433D1*
X769809Y1360545D2*
X755483D1*
X754058Y1347645D1*
X755484Y1349071D1*
X759795Y1350530D1*
X764073D1*
X768384Y1349071D1*
X771269Y1346220D1*
X772695Y1341909D1*
Y1339057D1*
X771269Y1334746D1*
X768385Y1331860D1*
X764074Y1330434D1*
X759796D1*
X755485Y1331860D1*
X754059Y1333319D1*
X752599Y1336171D1*
X721472Y1546220D2*
X734372Y1546221D1*
X738682Y1547680D1*
X740142Y1549106D1*
X741567Y1551958D1*
Y1554843D1*
X740141Y1557695D1*
X738682Y1559154D1*
X734371Y1560580D1*
X721471Y1560579D1*
X721472Y1530435D1*
X731520Y1546221D2*
X741568Y1530436D1*
X756569Y1530437D2*
X770927Y1560548D1*
X750831Y1560547D1*
X725024Y1150414D2*
X737924Y1150415D1*
X742234Y1151874D1*
X743694Y1153300D1*
X745119Y1156152D1*
Y1159037D1*
X743693Y1161889D1*
X742234Y1163348D1*
X737923Y1164774D1*
X725023Y1164773D1*
X725024Y1134629D1*
X735072Y1150415D2*
X745120Y1134630D1*
X761545Y1164742D2*
X757268Y1163316D1*
X755809Y1160464D1*
Y1157579D1*
X757268Y1154727D1*
X760120Y1153268D1*
X765857Y1151842D1*
X770168Y1150416D1*
X773020Y1147532D1*
X774446Y1144680D1*
Y1140369D1*
X773021Y1137517D1*
X771595Y1136057D1*
X767284Y1134631D1*
X761547D1*
X757269Y1136057D1*
X755810Y1137516D1*
X754384Y1140368D1*
X754383Y1144679D1*
X755809Y1147531D1*
X758694Y1150416D1*
X762972Y1151842D1*
X768709Y1153268D1*
X771594Y1154728D1*
X773020Y1157580D1*
Y1160465D1*
X771593Y1163316D1*
X767282Y1164742D1*
X761545D1*
X432075Y1346221D2*
X444975D1*
X449286Y1347680D1*
X450745Y1349106D1*
X452171Y1351958D1*
Y1354843D1*
X450745Y1357695D1*
X449286Y1359154D1*
X444975Y1360580D1*
X432075D1*
X432076Y1330436D1*
X442123Y1346221D2*
X452172Y1330436D1*
X464319Y1360548D2*
X480071D1*
X471483Y1349074D1*
X475794D1*
X478646Y1347648D1*
X480072Y1346222D1*
X481531Y1341911D1*
Y1339059D1*
X480072Y1334748D1*
X477220Y1331863D1*
X472909Y1330437D1*
X468598D1*
X464320Y1331863D1*
X462894Y1333322D1*
X461435Y1336174D1*
X2518967Y1847476D2*
X2518969Y1817332D1*
X2529017D1*
X2533328Y1818792D1*
X2536213Y1821644D1*
X2537638Y1824529D1*
X2539064Y1828807D1*
Y1836003D1*
X2537637Y1840314D1*
X2536211Y1843166D1*
X2533326Y1846051D1*
X2529015Y1847476D1*
X2518967D1*
X2565537Y1847445D2*
X2551212Y1847444D1*
X2549786Y1834544D1*
X2551212Y1835970D1*
X2555523Y1837430D1*
X2559801D1*
X2564112Y1835971D1*
X2566997Y1833119D1*
X2568424Y1828809D1*
Y1825957D1*
X2566998Y1821646D1*
X2564113Y1818760D1*
X2559802Y1817334D1*
X2555524D1*
X2551213Y1818760D1*
X2549787Y1820219D1*
X2548328Y1823070D1*
X1718967Y1847476D2*
X1718969Y1817332D1*
X1729017D1*
X1733328Y1818792D1*
X1736213Y1821644D1*
X1737638Y1824529D1*
X1739064Y1828807D1*
Y1836003D1*
X1737637Y1840314D1*
X1736211Y1843166D1*
X1733326Y1846051D1*
X1729015Y1847476D1*
X1718967D1*
X1751212Y1847444D2*
X1766963Y1847445D1*
X1758375Y1835971D1*
X1762686D1*
X1765538Y1834545D1*
X1766964Y1833119D1*
X1768424Y1828809D1*
Y1825957D1*
X1766965Y1821646D1*
X1764113Y1818760D1*
X1759802Y1817334D1*
X1755491D1*
X1751213Y1818760D1*
X1749787Y1820219D1*
X1748328Y1823070D1*
X518976Y1847478D2*
X518975Y1817334D1*
X529023D1*
X533334Y1818793D1*
X536219Y1821644D1*
X537645Y1824529D1*
X539071Y1828807D1*
Y1836003D1*
X537646Y1840314D1*
X536220Y1843166D1*
X533335Y1846051D1*
X529024Y1847478D1*
X518976D1*
X556957Y1847444D2*
X552646Y1846018D1*
X549761Y1841707D1*
X548335Y1834544D1*
Y1830233D1*
X549761Y1823070D1*
X552646Y1818759D1*
X556957Y1817333D1*
X559808D1*
X564120Y1818759D1*
X566972Y1823070D1*
X568431Y1830232D1*
Y1834543D1*
X566972Y1841706D1*
X564120Y1846017D1*
X559809Y1847444D1*
X556957D1*
X566972Y1841706D2*
X549761Y1823070D1*
X925415Y1847476D2*
X925418Y1817332D1*
X935466Y1817333D1*
X939776Y1818792D1*
X942661Y1821644D1*
X944087Y1824529D1*
X945513Y1828807D1*
X945512Y1836003D1*
X944086Y1840314D1*
X942660Y1843166D1*
X939774Y1846051D1*
X935463Y1847477D1*
X925415Y1847476D1*
X954775Y1841708D2*
X957660Y1843167D1*
X961971Y1847445D1*
X961973Y1817334D1*
X2118254Y1847476D2*
X2118256Y1817332D1*
X2128304D1*
X2132615Y1818792D1*
X2135500Y1821644D1*
X2136925Y1824529D1*
X2138351Y1828807D1*
Y1836003D1*
X2136924Y1840314D1*
X2135498Y1843166D1*
X2132613Y1846051D1*
X2128302Y1847476D1*
X2118254D1*
X2161974Y1817334D2*
X2161973Y1847445D1*
X2147615Y1827381D1*
X2169137Y1827383D1*
X2923896Y1847476D2*
X2923898Y1817332D1*
X2933946D1*
X2938257Y1818792D1*
X2941142Y1821644D1*
X2942567Y1824529D1*
X2943993Y1828807D1*
Y1836003D1*
X2942566Y1840314D1*
X2941140Y1843166D1*
X2938255Y1846051D1*
X2933944Y1847476D1*
X2923896D1*
X2970467Y1843167D2*
X2969041Y1846019D1*
X2964729Y1847445D1*
X2961878D1*
X2957567Y1846019D1*
X2954682Y1841707D1*
X2953256Y1834544D1*
X2953257Y1827381D1*
X2954683Y1821645D1*
X2957568Y1818760D1*
X2961879Y1817334D1*
X2963305D1*
X2967583Y1818760D1*
X2970468Y1821645D1*
X2971894Y1825957D1*
Y1827383D1*
X2970467Y1831694D1*
X2967582Y1834545D1*
X2963304Y1835971D1*
X2961878D1*
X2957567Y1834545D1*
X2954682Y1831693D1*
X2953257Y1827381D1*
X3318967Y1847476D2*
X3318969Y1817332D1*
X3329017D1*
X3333328Y1818792D1*
X3336213Y1821644D1*
X3337638Y1824529D1*
X3339064Y1828807D1*
Y1836003D1*
X3337637Y1840314D1*
X3336211Y1843166D1*
X3333326Y1846051D1*
X3329015Y1847476D1*
X3318967D1*
X3354065Y1817334D2*
X3368422Y1847445D1*
X3348326Y1847444D1*
X1318976Y1847478D2*
X1318975Y1817334D1*
X1329023D1*
X1333334Y1818793D1*
X1336219Y1821644D1*
X1337645Y1824529D1*
X1339071Y1828807D1*
Y1836003D1*
X1337646Y1840314D1*
X1336220Y1843166D1*
X1333335Y1846051D1*
X1329024Y1847478D1*
X1318976D1*
X1349794Y1840281D2*
Y1841707D1*
X1351220Y1844592D1*
X1352646Y1846018D1*
X1355531Y1847444D1*
X1361268D1*
X1364120Y1846017D1*
X1365546Y1844592D1*
X1367005Y1841706D1*
Y1838854D1*
X1365546Y1835969D1*
X1362694Y1831692D1*
X1348335Y1817333D1*
X1368431Y1817332D1*
X2739254Y710573D2*
X2736402Y709180D1*
X2733517Y706295D1*
X2732091Y703410D1*
X2730633Y699098D1*
Y691936D1*
X2732092Y687625D1*
X2733518Y684773D1*
X2736404Y681888D1*
X2739256Y680462D1*
X2744993Y680463D1*
X2747878Y681889D1*
X2750729Y684774D1*
X2752155Y687626D1*
X2753614Y691937D1*
Y699100D1*
X2752154Y703411D1*
X2750728Y706296D1*
X2747876Y709181D1*
X2744991Y710573D1*
X2739254D1*
X2743566Y686199D2*
X2752156Y677578D1*
X2780087Y710542D2*
X2765761Y710541D1*
X2764336Y697641D1*
X2765762Y699068D1*
X2770073Y700527D1*
X2774351D1*
X2778662Y699068D1*
X2781547Y696217D1*
X2782974Y691906D1*
Y689054D1*
X2781548Y684743D1*
X2778663Y681857D1*
X2774352Y680431D1*
X2770074D1*
X2765763Y681857D1*
X2764337Y683316D1*
X2762878Y686167D1*
X1939254Y710573D2*
X1936402Y709180D1*
X1933517Y706295D1*
X1932091Y703410D1*
X1930633Y699098D1*
Y691936D1*
X1932092Y687625D1*
X1933518Y684773D1*
X1936404Y681888D1*
X1939256Y680462D1*
X1944993Y680463D1*
X1947878Y681889D1*
X1950729Y684774D1*
X1952155Y687626D1*
X1953614Y691937D1*
Y699100D1*
X1952154Y703411D1*
X1950728Y706296D1*
X1947876Y709181D1*
X1944991Y710573D1*
X1939254D1*
X1943566Y686199D2*
X1952156Y677578D1*
X1965761Y710541D2*
X1981513Y710542D1*
X1972925Y699068D1*
X1977236D1*
X1980088Y697642D1*
X1981514Y696217D1*
X1982974Y691906D1*
Y689054D1*
X1981515Y684743D1*
X1978663Y681857D1*
X1974352Y680431D1*
X1970041D1*
X1965763Y681857D1*
X1964337Y683316D1*
X1962878Y686167D1*
X743448Y714771D2*
X740596Y713378D1*
X737711Y710493D1*
X736286Y707608D1*
X734827Y703297D1*
Y696134D1*
X736287Y691823D1*
X737713Y688971D1*
X740598Y686086D1*
X743450Y684660D1*
X749187Y684661D1*
X752072Y686087D1*
X754924Y688972D1*
X756349Y691824D1*
X757808Y696135D1*
Y703298D1*
X756348Y707609D1*
X754922Y710494D1*
X752070Y713379D1*
X749185Y714772D1*
X743448Y714771D1*
X747761Y690398D2*
X756350Y681776D1*
X775693Y714740D2*
X771382Y713314D1*
X768497Y709003D1*
X767071Y701840D1*
X767072Y697529D1*
X768498Y690366D1*
X771383Y686055D1*
X775695Y684629D1*
X778546D1*
X782857Y686056D1*
X785709Y690367D1*
X787168Y697530D1*
X787167Y701841D1*
X785708Y709004D1*
X782856Y713315D1*
X778545Y714740D1*
X775693D1*
X785708Y709004D2*
X768498Y690366D1*
X1149903Y714771D2*
X1147051Y713378D1*
X1144166Y710493D1*
X1142741Y707608D1*
X1141282Y703297D1*
Y696134D1*
X1142742Y691823D1*
X1144168Y688971D1*
X1147053Y686086D1*
X1149905Y684661D1*
X1155642D1*
X1158527Y686087D1*
X1161379Y688972D1*
X1162805Y691825D1*
X1164263Y696136D1*
Y703299D1*
X1162803Y707609D1*
X1161377Y710494D1*
X1158525Y713379D1*
X1155640Y714772D1*
X1149903Y714771D1*
X1154216Y690398D2*
X1162805Y681777D1*
X1173526Y709003D2*
X1176411Y710462D1*
X1180722Y714741D1*
X1180724Y684630D1*
X2338541Y710573D2*
X2335689Y709180D1*
X2332804Y706295D1*
X2331378Y703410D1*
X2329920Y699098D1*
Y691936D1*
X2331379Y687625D1*
X2332805Y684773D1*
X2335691Y681888D1*
X2338543Y680462D1*
X2344280D1*
X2347165Y681889D1*
X2350016Y684774D1*
X2351442Y687626D1*
X2352901Y691937D1*
Y699100D1*
X2351441Y703411D1*
X2350015Y706296D1*
X2347163Y709181D1*
X2344278Y710573D1*
X2338541D1*
X2342853Y686199D2*
X2351443Y677578D1*
X2376524Y680431D2*
X2376522Y710542D1*
X2362165Y690478D1*
X2383687Y690480D1*
X3139983Y710573D2*
X3137132Y709180D1*
X3134247Y706295D1*
X3132821Y703410D1*
X3131362Y699099D1*
X3131363Y691936D1*
X3132822Y687625D1*
X3134248Y684773D1*
X3137133Y681888D1*
X3139985Y680462D1*
X3145722Y680463D1*
X3148607Y681889D1*
X3151459Y684774D1*
X3152885Y687626D1*
X3154344Y691937D1*
X3154343Y699100D1*
X3152884Y703411D1*
X3151458Y706296D1*
X3148606Y709181D1*
X3145720Y710573D1*
X3139983D1*
X3144296Y686199D2*
X3152885Y677578D1*
X3180817Y706265D2*
X3179391Y709116D1*
X3175080Y710542D1*
X3172228D1*
X3167917Y709116D1*
X3165032Y704804D1*
X3163607Y697641D1*
Y690479D1*
X3165034Y684742D1*
X3167919Y681857D1*
X3172230Y680431D1*
X3173656D1*
X3177934Y681857D1*
X3180819Y684743D1*
X3182244Y689054D1*
Y690480D1*
X3180818Y694791D1*
X3177933Y697642D1*
X3173655Y699068D1*
X3172229D1*
X3167918Y697642D1*
X3165033Y694790D1*
X3163607Y690479D1*
X3714485Y710579D2*
X3711633Y709186D1*
X3708748Y706301D1*
X3707322Y703416D1*
X3705864Y699105D1*
Y691942D1*
X3707323Y687631D1*
X3708749Y684779D1*
X3711635Y681894D1*
X3714486Y680468D1*
X3720223D1*
X3723108Y681894D1*
X3725960Y684780D1*
X3727386Y687632D1*
X3728845Y691943D1*
Y699106D1*
X3727385Y703417D1*
X3725959Y706302D1*
X3723107Y709187D1*
X3720222Y710579D1*
X3714485D1*
X3718797Y686205D2*
X3727387Y677584D1*
X3743846Y680436D2*
X3758204Y710548D1*
X3738108Y710547D1*
X1539254Y710573D2*
X1536402Y709180D1*
X1533517Y706295D1*
X1532091Y703410D1*
X1530633Y699098D1*
Y691936D1*
X1532092Y687625D1*
X1533518Y684773D1*
X1536404Y681888D1*
X1539256Y680462D1*
X1544993Y680463D1*
X1547878Y681889D1*
X1550729Y684774D1*
X1552155Y687626D1*
X1553614Y691937D1*
Y699100D1*
X1552154Y703411D1*
X1550728Y706296D1*
X1547876Y709181D1*
X1544991Y710573D1*
X1539254D1*
X1543566Y686199D2*
X1552156Y677578D1*
X1564336Y703378D2*
Y704804D1*
X1565762Y707690D1*
X1567188Y709116D1*
X1570072Y710542D1*
X1575809D1*
X1578661Y709116D1*
X1580088Y707690D1*
X1581547Y704805D1*
Y701954D1*
X1580088Y699068D1*
X1577236Y694790D1*
X1562878Y680430D1*
X1582974Y680432D1*
X449584Y703420D2*
X448158Y706272D1*
X445273Y709157D1*
X442421Y710583D1*
X436684Y710584D1*
X433799Y709158D1*
X430947Y706273D1*
X429488Y703421D1*
X428062Y699110D1*
Y691914D1*
X429487Y687636D1*
X430946Y684751D1*
X433798Y681899D1*
X436683Y680440D1*
X442420Y680439D1*
X445272Y681898D1*
X448157Y684750D1*
X449583Y687635D1*
X458848Y704813D2*
X461733Y706272D1*
X466044Y710549D1*
X466043Y680439D1*
X492518Y706271D2*
X491092Y709123D1*
X486781Y710549D1*
X483929D1*
X479618Y709123D1*
X476733Y704812D1*
X475307Y697649D1*
Y690486D1*
X476732Y684749D1*
X479617Y681864D1*
X483928Y680438D1*
X485354D1*
X489632Y681864D1*
X492517Y684749D1*
X493943Y689060D1*
X493944Y690486D1*
X492518Y694797D1*
X489633Y697649D1*
X485355Y699075D1*
X483929D1*
X479618Y697649D1*
X476733Y694797D1*
X475307Y690486D1*
X3019089Y917938D2*
X2988978Y917937D1*
X3009041Y903578D1*
Y925100D1*
X3019088Y940101D2*
X2988977Y954459D1*
X2988978Y934363D1*
X2988976Y972345D2*
X2990402Y968034D1*
X2994714Y965149D1*
X3001877Y963723D1*
X3006188D1*
X3013350Y965149D1*
X3017661Y968035D1*
X3019087Y972346D1*
Y975198D1*
X3017661Y979509D1*
X3013350Y982360D1*
X3006187Y983819D1*
X3001876D1*
X2994713Y982360D1*
X2990402Y979508D1*
X2988976Y975197D1*
Y972345D1*
X2994713Y982360D2*
X3013350Y965149D1*
X3937634Y1676661D2*
X3907490Y1656564D1*
X3937634Y1656565D2*
X3907490Y1676660D1*
X3921850Y1647301D2*
Y1634368D1*
X3923276Y1630090D1*
X3924735Y1628631D1*
X3927587Y1627205D1*
X3931898D1*
X3934750Y1628631D1*
X3936209Y1630090D1*
X3937635Y1634368D1*
Y1647301D1*
X3907491Y1647300D1*
X3931865Y1617942D2*
X3933324Y1615057D1*
X3937602Y1610746D1*
X3907491Y1610745D1*
M02*
