G04 DipTrace 5.0.0.1*
G04 mem-ext-512-sip.GTO*
%MOIN*%
G04 #@! TF.FileFunction,Legend,Top*
G04 #@! TF.Part,Single*
%ADD10C,0.009843*%
%ADD13C,0.004724*%
%ADD17C,0.003937*%
%ADD18C,0.005906*%
%ADD38C,0.004632*%
%FSLAX26Y26*%
G04*
G70*
G90*
G75*
G01*
G04 TopSilk*
%LPD*%
X1096852Y1566145D2*
D18*
X1081104D1*
X1081100Y1121264D1*
X1096848Y1121263D1*
X1890553Y1566138D2*
X1906301D1*
X1906297Y1121256D1*
X1890549D1*
G36*
X1079919Y1052760D2*
X1080003Y1054044D1*
X1080254Y1055307D1*
X1080668Y1056526D1*
X1081237Y1057681D1*
X1081953Y1058751D1*
X1082802Y1059719D1*
X1083769Y1060568D1*
X1084840Y1061283D1*
X1085995Y1061853D1*
X1087214Y1062267D1*
X1088477Y1062518D1*
X1089761Y1062602D1*
X1091046Y1062518D1*
X1092309Y1062267D1*
X1093528Y1061853D1*
X1094682Y1061283D1*
X1095753Y1060568D1*
X1096721Y1059719D1*
X1097570Y1058751D1*
X1098285Y1057681D1*
X1098854Y1056526D1*
X1099268Y1055307D1*
X1099519Y1054044D1*
X1099604Y1052759D1*
D1*
X1099519Y1051475D1*
X1099268Y1050212D1*
X1098854Y1048993D1*
X1098285Y1047838D1*
X1097570Y1046768D1*
X1096721Y1045800D1*
X1095753Y1044951D1*
X1094682Y1044236D1*
X1093528Y1043666D1*
X1092309Y1043252D1*
X1091046Y1043001D1*
X1089761Y1042917D1*
X1088476Y1043001D1*
X1087214Y1043252D1*
X1085995Y1043666D1*
X1084840Y1044236D1*
X1083769Y1044951D1*
X1082801Y1045800D1*
X1081953Y1046768D1*
X1081237Y1047838D1*
X1080668Y1048993D1*
X1080254Y1050212D1*
X1080003Y1051475D1*
X1079919Y1052760D1*
D1*
G37*
X2493311Y1562402D2*
D17*
Y1574606D1*
X2194098D1*
Y1562402D1*
X2493311Y1075000D2*
Y1062795D1*
X2194098D1*
Y1075000D1*
G36*
X2131894Y1580118D2*
X2133178Y1580034D1*
X2134441Y1579783D1*
X2135660Y1579369D1*
X2136815Y1578799D1*
X2137885Y1578084D1*
X2138853Y1577235D1*
X2139702Y1576267D1*
X2140418Y1575197D1*
X2140987Y1574042D1*
X2141401Y1572823D1*
X2141652Y1571560D1*
X2141736Y1570276D1*
X2141652Y1568991D1*
X2141401Y1567728D1*
X2140987Y1566509D1*
X2140418Y1565354D1*
X2139702Y1564284D1*
X2138853Y1563316D1*
X2137885Y1562467D1*
X2136815Y1561752D1*
X2135660Y1561182D1*
X2134441Y1560768D1*
X2133178Y1560517D1*
X2131894Y1560433D1*
D1*
X2130609Y1560517D1*
X2129346Y1560768D1*
X2128127Y1561182D1*
X2126972Y1561752D1*
X2125902Y1562467D1*
X2124934Y1563316D1*
X2124085Y1564284D1*
X2123370Y1565354D1*
X2122800Y1566509D1*
X2122387Y1567728D1*
X2122135Y1568991D1*
X2122051Y1570276D1*
X2122135Y1571560D1*
X2122387Y1572823D1*
X2122800Y1574042D1*
X2123370Y1575197D1*
X2124085Y1576267D1*
X2124934Y1577235D1*
X2125902Y1578084D1*
X2126972Y1578799D1*
X2128127Y1579369D1*
X2129346Y1579783D1*
X2130609Y1580034D1*
X2131894Y1580118D1*
D1*
G37*
X3093300Y1563589D2*
D13*
Y1570676D1*
X2794088Y1570663D1*
Y1563576D1*
X3093322Y1073825D2*
Y1066739D1*
X2794109Y1066726D1*
Y1073812D1*
G36*
X2730701Y1580896D2*
X2731986Y1580812D1*
X2733249Y1580561D1*
X2734468Y1580147D1*
X2735623Y1579578D1*
X2736693Y1578863D1*
X2737661Y1578014D1*
X2738510Y1577046D1*
X2739225Y1575975D1*
X2739795Y1574821D1*
X2740209Y1573602D1*
X2740460Y1572339D1*
X2740544Y1571054D1*
X2740460Y1569769D1*
X2740209Y1568507D1*
X2739795Y1567288D1*
X2739226Y1566133D1*
X2738511Y1565062D1*
X2737662Y1564094D1*
X2736694Y1563245D1*
X2735623Y1562530D1*
X2734469Y1561961D1*
X2733250Y1561547D1*
X2731987Y1561296D1*
X2730702Y1561211D1*
D1*
X2729417Y1561295D1*
X2728155Y1561547D1*
X2726936Y1561960D1*
X2725781Y1562530D1*
X2724710Y1563245D1*
X2723742Y1564094D1*
X2722893Y1565062D1*
X2722178Y1566132D1*
X2721609Y1567287D1*
X2721195Y1568506D1*
X2720943Y1569769D1*
X2720859Y1571053D1*
X2720943Y1572338D1*
X2721194Y1573601D1*
X2721608Y1574820D1*
X2722178Y1575975D1*
X2722893Y1577045D1*
X2723742Y1578013D1*
X2724710Y1578862D1*
X2725780Y1579577D1*
X2726935Y1580147D1*
X2728154Y1580561D1*
X2729417Y1580812D1*
X2730701Y1580896D1*
D1*
G37*
X3248620Y1572428D2*
D13*
X3246258D1*
X3246270Y1414948D1*
X3248632D1*
X3588778Y1572453D2*
X3591140Y1572454D1*
X3591151Y1414973D1*
X3588789D1*
G36*
X3231312Y1367309D2*
X3231397Y1368594D1*
X3231648Y1369857D1*
X3232061Y1371076D1*
X3232631Y1372230D1*
X3233346Y1373301D1*
X3234195Y1374269D1*
X3235163Y1375118D1*
X3236233Y1375833D1*
X3237388Y1376403D1*
X3238607Y1376817D1*
X3239870Y1377068D1*
X3241154Y1377152D1*
X3242439Y1377068D1*
X3243702Y1376817D1*
X3244921Y1376403D1*
X3246076Y1375834D1*
X3247146Y1375119D1*
X3248114Y1374270D1*
X3248963Y1373302D1*
X3249678Y1372232D1*
X3250248Y1371077D1*
X3250662Y1369858D1*
X3250913Y1368595D1*
X3250997Y1367311D1*
D1*
X3250913Y1366026D1*
X3250662Y1364763D1*
X3250249Y1363544D1*
X3249679Y1362389D1*
X3248964Y1361319D1*
X3248115Y1360351D1*
X3247147Y1359502D1*
X3246077Y1358786D1*
X3244922Y1358217D1*
X3243703Y1357803D1*
X3242440Y1357552D1*
X3241156Y1357467D1*
X3239871Y1357551D1*
X3238608Y1357802D1*
X3237389Y1358216D1*
X3236234Y1358786D1*
X3235164Y1359501D1*
X3234196Y1360350D1*
X3233347Y1361317D1*
X3232631Y1362388D1*
X3232062Y1363543D1*
X3231648Y1364762D1*
X3231397Y1366024D1*
X3231312Y1367309D1*
D1*
G37*
X3423620Y1197429D2*
D13*
X3421258D1*
X3421269Y1039949D1*
X3423631D1*
X3763778Y1197453D2*
X3766140D1*
X3766151Y1039973D1*
X3763789D1*
G36*
X3406312Y991916D2*
X3406396Y993201D1*
X3406647Y994464D1*
X3407061Y995683D1*
X3407630Y996837D1*
X3408346Y997908D1*
X3409194Y998876D1*
X3410162Y999725D1*
X3411233Y1000440D1*
X3412387Y1001010D1*
X3413606Y1001424D1*
X3414869Y1001675D1*
X3416154Y1001759D1*
X3417439Y1001675D1*
X3418701Y1001424D1*
X3419920Y1001010D1*
X3421075Y1000441D1*
X3422146Y999726D1*
X3423114Y998877D1*
X3423963Y997909D1*
X3424678Y996839D1*
X3425248Y995684D1*
X3425661Y994465D1*
X3425913Y993202D1*
X3425997Y991917D1*
D1*
X3425913Y990633D1*
X3425662Y989370D1*
X3425248Y988151D1*
X3424679Y986996D1*
X3423964Y985926D1*
X3423115Y984958D1*
X3422147Y984109D1*
X3421076Y983393D1*
X3419922Y982824D1*
X3418703Y982410D1*
X3417440Y982159D1*
X3416155Y982074D1*
X3414870Y982158D1*
X3413608Y982409D1*
X3412389Y982823D1*
X3411234Y983393D1*
X3410163Y984108D1*
X3409195Y984957D1*
X3408346Y985924D1*
X3407631Y986995D1*
X3407061Y988150D1*
X3406648Y989369D1*
X3406396Y990631D1*
X3406312Y991916D1*
D1*
G37*
X3593698Y833697D2*
D13*
X3593704Y753697D1*
X3603704Y743698D1*
X3683704Y743704D1*
X3693704Y753704D1*
X3693698Y833704D1*
X3683697Y843704D1*
X3603697Y843698D1*
X3593698Y833697D1*
X803704Y1693698D2*
X883704Y1693703D1*
X893703Y1703704D1*
X893698Y1783704D1*
X883698Y1793703D1*
X803698Y1793698D1*
X793698Y1783698D1*
X793703Y1703698D1*
X803704Y1693698D1*
X803703Y1193699D2*
X883703Y1193703D1*
X893703Y1203703D1*
X893699Y1283703D1*
X883698Y1293703D1*
X803698Y1293699D1*
X793699Y1283698D1*
X793703Y1203698D1*
X803703Y1193699D1*
X793698Y1883697D2*
X793704Y1803697D1*
X803704Y1793698D1*
X883704Y1793704D1*
X893704Y1803704D1*
X893698Y1883704D1*
X883697Y1893704D1*
X803697Y1893698D1*
X793698Y1883697D1*
X803702Y1393699D2*
X883702Y1393702D1*
X893702Y1403702D1*
X893699Y1483702D1*
X883699Y1493702D1*
X803699Y1493699D1*
X793699Y1483699D1*
X793702Y1403699D1*
X803702Y1393699D1*
X507903Y1097898D2*
X587903Y1097903D1*
X597903Y1107903D1*
X597898Y1187903D1*
X587897Y1197903D1*
X507897Y1197898D1*
X497898Y1187897D1*
X497903Y1107897D1*
X507903Y1097898D1*
X503702Y1393700D2*
X583702Y1393702D1*
X593702Y1403702D1*
X593700Y1483702D1*
X583700Y1493702D1*
X503700Y1493700D1*
X493700Y1483700D1*
X493702Y1403700D1*
X503702Y1393700D1*
X503701Y1193701D2*
X583701D1*
X593701Y1203701D1*
Y1283701D1*
X583701Y1293701D1*
X503701D1*
X493701Y1283701D1*
Y1203701D1*
X503701Y1193701D1*
X803703Y1293699D2*
X883703Y1293703D1*
X893703Y1303703D1*
X893699Y1383703D1*
X883698Y1393703D1*
X803698Y1393699D1*
X793699Y1383698D1*
X793703Y1303698D1*
X803703Y1293699D1*
X803702Y1493699D2*
X883702Y1493702D1*
X893702Y1503702D1*
X893699Y1583702D1*
X883699Y1593702D1*
X803699Y1593699D1*
X793699Y1583699D1*
X793702Y1503699D1*
X803702Y1493699D1*
X803703Y1097898D2*
X883703Y1097902D1*
X893703Y1107903D1*
X893699Y1187903D1*
X883698Y1197902D1*
X803698Y1197898D1*
X793699Y1187898D1*
X793703Y1107898D1*
X803703Y1097898D1*
X503702Y1293699D2*
X583702Y1293702D1*
X593702Y1303702D1*
X593699Y1383702D1*
X583699Y1393702D1*
X503699Y1393699D1*
X493699Y1383699D1*
X493702Y1303699D1*
X503702Y1293699D1*
X2493698Y1783698D2*
X2493703Y1703698D1*
X2503704Y1693698D1*
X2583704Y1693703D1*
X2593703Y1703704D1*
X2593698Y1783704D1*
X2583698Y1793703D1*
X2503698Y1793698D1*
X2493698Y1783698D1*
X1693698D2*
X1693703Y1703698D1*
X1703704Y1693698D1*
X1783704Y1693703D1*
X1793703Y1703704D1*
X1793698Y1783704D1*
X1783698Y1793703D1*
X1703698Y1793698D1*
X1693698Y1783698D1*
X493702Y1783702D2*
X493700Y1703702D1*
X503699Y1693702D1*
X583699Y1693700D1*
X593700Y1703699D1*
X593702Y1783699D1*
X583702Y1793700D1*
X503702Y1793702D1*
X493702Y1783702D1*
X893698Y1783697D2*
X893704Y1703697D1*
X903704Y1693698D1*
X983704Y1693704D1*
X993704Y1703704D1*
X993698Y1783704D1*
X983697Y1793704D1*
X903697Y1793698D1*
X893698Y1783697D1*
X2093698Y1783698D2*
X2093703Y1703698D1*
X2103704Y1693698D1*
X2183704Y1693703D1*
X2193703Y1703704D1*
X2193698Y1783704D1*
X2183698Y1793703D1*
X2103698Y1793698D1*
X2093698Y1783698D1*
X2897898D2*
X2897903Y1703698D1*
X2907903Y1693698D1*
X2987903Y1693703D1*
X2997903Y1703704D1*
X2997898Y1783704D1*
X2987897Y1793703D1*
X2907897Y1793698D1*
X2897898Y1783698D1*
X3293698D2*
X3293703Y1703698D1*
X3303704Y1693698D1*
X3383704Y1693703D1*
X3393703Y1703704D1*
X3393698Y1783704D1*
X3383698Y1793703D1*
X3303698Y1793698D1*
X3293698Y1783698D1*
X1293702Y1783702D2*
X1293700Y1703702D1*
X1303699Y1693702D1*
X1383699Y1693700D1*
X1393700Y1703699D1*
X1393702Y1783699D1*
X1383702Y1793700D1*
X1303702Y1793702D1*
X1293702Y1783702D1*
X2803704Y643698D2*
X2883704Y643703D1*
X2893703Y653704D1*
X2893698Y733704D1*
X2883698Y743703D1*
X2803698Y743698D1*
X2793698Y733698D1*
X2793703Y653698D1*
X2803704Y643698D1*
X2003704D2*
X2083704Y643703D1*
X2093703Y653704D1*
X2093698Y733704D1*
X2083698Y743703D1*
X2003698Y743698D1*
X1993698Y733698D1*
X1993703Y653698D1*
X2003704Y643698D1*
X807903Y647898D2*
X887903Y647903D1*
X897903Y657903D1*
X897898Y737903D1*
X887897Y747903D1*
X807897Y747898D1*
X797898Y737897D1*
X797903Y657897D1*
X807903Y647898D1*
X1207904Y647897D2*
X1287904Y647903D1*
X1297903Y657904D1*
X1297897Y737904D1*
X1287896Y747903D1*
X1207896Y747897D1*
X1197897Y737896D1*
X1197903Y657896D1*
X1207904Y647897D1*
X2403704Y643698D2*
X2483704Y643703D1*
X2493703Y653704D1*
X2493698Y733704D1*
X2483698Y743703D1*
X2403698Y743698D1*
X2393698Y733698D1*
X2393703Y653698D1*
X2403704Y643698D1*
X3203704D2*
X3283704Y643703D1*
X3293703Y653704D1*
X3293698Y733704D1*
X3283698Y743703D1*
X3203698Y743698D1*
X3193698Y733698D1*
X3193703Y653698D1*
X3203704Y643698D1*
X3603703Y643699D2*
X3683703Y643703D1*
X3693703Y653703D1*
X3693699Y733703D1*
X3683698Y743703D1*
X3603698Y743699D1*
X3593699Y733698D1*
X3593703Y653698D1*
X3603703Y643699D1*
X1603704Y643698D2*
X1683704Y643703D1*
X1693703Y653704D1*
X1693698Y733704D1*
X1683698Y743703D1*
X1603698Y743698D1*
X1593698Y733698D1*
X1593703Y653698D1*
X1603704Y643698D1*
X507898Y643702D2*
X587898Y643699D1*
X597899Y653699D1*
X597902Y733699D1*
X587902Y743699D1*
X507902Y743702D1*
X497902Y733703D1*
X497899Y653703D1*
X507898Y643702D1*
X3802367Y620275D2*
Y595865D1*
X3885045Y595867D1*
X3885044Y620276D1*
X3802365Y717125D2*
Y741535D1*
X3885042Y741536D1*
Y717127D1*
X3843708Y497441D2*
X3843706Y595866D1*
X3843703Y741535D2*
X3843702Y839961D1*
X3793705Y1393700D2*
D10*
X3893705Y1393702D1*
X3793696Y1893700D2*
X3793705Y1393700D1*
X3893696Y1893702D2*
X3893705Y1393702D1*
X3793696Y1893700D2*
X3893696Y1893702D1*
X593701Y1893701D2*
D17*
X793701D1*
Y1093701D1*
X593701D1*
Y1893701D1*
X1393701Y1693701D2*
Y1893701D1*
X1593701D1*
Y1693701D1*
X1793701D2*
Y1893701D1*
X1993701D1*
Y1093701D1*
X593701Y593701D2*
Y943701D1*
X793701D1*
Y593701D1*
X993701D2*
Y943701D1*
X1193701D1*
Y593701D1*
X2193701Y1693701D2*
Y1893701D1*
X2393701D1*
Y1693701D1*
X2593701D2*
Y1893701D1*
X2793701D1*
Y1693701D1*
X2993701D2*
Y1893701D1*
X3193701D1*
Y1693701D1*
X3393701Y1093701D2*
Y1893701D1*
X3593701D1*
Y1843701D1*
X1393701Y593701D2*
Y943701D1*
X1593701D1*
Y593701D1*
X1793701D2*
Y943701D1*
X1993701D1*
Y593701D1*
X2193701D2*
Y943701D1*
X2393701D1*
Y593701D1*
X2593701D2*
Y943701D1*
X2793701D1*
Y593701D1*
X2993701D2*
Y943701D1*
X3193701D1*
Y593701D1*
X3393701D2*
Y943701D1*
X3593701D1*
Y593701D1*
X993701Y1093701D2*
Y1893701D1*
X1193701D1*
Y1693701D1*
X1460746Y1704170D2*
D38*
Y1674026D1*
X1470794D1*
X1475105Y1675485D1*
X1477990Y1678337D1*
X1479416Y1681222D1*
X1480842Y1685500D1*
Y1692696D1*
X1479416Y1697007D1*
X1477990Y1699859D1*
X1475105Y1702744D1*
X1470794Y1704170D1*
X1460746D1*
X1490106D2*
Y1674026D1*
X1500154D1*
X1504465Y1675485D1*
X1507350Y1678337D1*
X1508776Y1681222D1*
X1510202Y1685500D1*
Y1692696D1*
X1508776Y1697007D1*
X1507350Y1699859D1*
X1504465Y1702744D1*
X1500154Y1704170D1*
X1490106D1*
X1519465Y1698400D2*
X1522351Y1699859D1*
X1526662Y1704137D1*
X1526661Y1674026D1*
X1352295Y1016991D2*
X1352294Y986847D1*
X1365227D1*
X1369538Y988306D1*
X1370964Y989732D1*
X1372390Y992584D1*
Y996895D1*
X1370964Y999780D1*
X1369539Y1001206D1*
X1365228Y1002632D1*
X1369539Y1004091D1*
X1370965Y1005517D1*
X1372391Y1008369D1*
Y1011254D1*
X1370965Y1014106D1*
X1369539Y1015565D1*
X1365228Y1016991D1*
X1352295D1*
X1352294Y1002632D2*
X1365228D1*
X1401750Y1012680D2*
X1398898Y1015565D1*
X1394587Y1016991D1*
X1388850D1*
X1384539Y1015565D1*
X1381654Y1012680D1*
Y1009828D1*
X1383113Y1006943D1*
X1384539Y1005517D1*
X1387391Y1004091D1*
X1396013Y1001206D1*
X1398898Y999780D1*
X1400324Y998321D1*
X1401750Y995469D1*
Y991158D1*
X1398898Y988306D1*
X1394587Y986847D1*
X1388850D1*
X1384539Y988306D1*
X1381654Y991158D1*
X1428225Y1012680D2*
X1426799Y1015532D1*
X1422488Y1016958D1*
X1419636D1*
X1415325Y1015532D1*
X1412440Y1011221D1*
X1411014Y1004058D1*
Y996895D1*
X1412439Y991158D1*
X1415324Y988273D1*
X1419635Y986847D1*
X1421061D1*
X1425339Y988273D1*
X1428224Y991158D1*
X1429650Y995469D1*
Y996895D1*
X1428224Y1001206D1*
X1425339Y1004058D1*
X1421062Y1005484D1*
X1419636D1*
X1415325Y1004058D1*
X1412440Y1001206D1*
X1411014Y996895D1*
X1440373Y1009795D2*
Y1011220D1*
X1441799Y1014106D1*
X1443225Y1015531D1*
X1446110Y1016957D1*
X1451847D1*
X1454699Y1015531D1*
X1456125Y1014105D1*
X1457584Y1011220D1*
Y1008368D1*
X1456125Y1005483D1*
X1453273Y1001206D1*
X1438914Y986847D1*
X1459010Y986846D1*
X1468274Y1016990D2*
X1468273Y986846D1*
X1485484D1*
X1494748Y1016990D2*
X1506222Y986846D1*
X1517696Y1016990D1*
X1541318Y986846D2*
X1541319Y1016957D1*
X1526959Y996894D1*
X1548481D1*
X1566367Y1016956D2*
X1562056Y1015530D1*
X1559171Y1011219D1*
X1557745Y1004056D1*
Y999745D1*
X1559171Y992583D1*
X1562056Y988271D1*
X1566367Y986845D1*
X1569219D1*
X1573530Y988271D1*
X1576382Y992582D1*
X1577841Y999745D1*
Y1004056D1*
X1576382Y1011219D1*
X1573530Y1015530D1*
X1569219Y1016956D1*
X1566367D1*
X1576382Y1011219D2*
X1559171Y992583D1*
X1595727Y1016956D2*
X1591416Y1015530D1*
X1588531Y1011219D1*
X1587105Y1004056D1*
Y999745D1*
X1588530Y992582D1*
X1591415Y988271D1*
X1595726Y986845D1*
X1598578D1*
X1602889Y988271D1*
X1605741Y992582D1*
X1607201Y999745D1*
Y1004056D1*
X1605742Y1011219D1*
X1602890Y1015530D1*
X1598579Y1016956D1*
X1595727D1*
X1605742Y1011219D2*
X1588530Y992582D1*
X1633675Y1012678D2*
X1632249Y1015530D1*
X1627938Y1016956D1*
X1625086D1*
X1620775Y1015530D1*
X1617890Y1011219D1*
X1616464Y1004056D1*
Y996893D1*
X1617890Y991156D1*
X1620775Y988271D1*
X1625086Y986845D1*
X1626512D1*
X1630790Y988271D1*
X1633675Y991156D1*
X1635101Y995467D1*
Y996893D1*
X1633675Y1001204D1*
X1630790Y1004056D1*
X1626512Y1005482D1*
X1625086D1*
X1620775Y1004056D1*
X1617890Y1001204D1*
X1616464Y996893D1*
X2583085Y1414730D2*
X2613196Y1400371D1*
Y1420467D1*
X2583085Y1376748D2*
X2613196D1*
X2593133Y1391107D1*
Y1369585D1*
X2613229Y1360322D2*
X2583085D1*
X2613229Y1340226D2*
X2583085D1*
X2598870Y1360322D2*
Y1340226D1*
X2606066Y1309440D2*
X2608918Y1310866D1*
X2611803Y1313751D1*
X2613229Y1316603D1*
Y1322340D1*
X2611803Y1325225D1*
X2608918Y1328077D1*
X2606066Y1329536D1*
X2601755Y1330962D1*
X2594559D1*
X2590281Y1329536D1*
X2587396Y1328077D1*
X2584544Y1325225D1*
X2583085Y1322340D1*
Y1316603D1*
X2584544Y1313751D1*
X2587396Y1310866D1*
X2590281Y1309440D1*
X2606033Y1298718D2*
X2607459D1*
X2610344Y1297292D1*
X2611770Y1295866D1*
X2613196Y1292981D1*
Y1287244D1*
X2611770Y1284392D1*
X2610344Y1282966D1*
X2607459Y1281507D1*
X2604607D1*
X2601722Y1282966D1*
X2597444Y1285818D1*
X2583085Y1300177D1*
Y1280081D1*
Y1256458D2*
X2613196D1*
X2593133Y1270817D1*
Y1249295D1*
X2583085Y1225673D2*
X2613196D1*
X2593133Y1240032D1*
Y1218510D1*
X3625095Y890313D2*
X3623669Y893165D1*
X3620784Y896050D1*
X3617932Y897475D1*
X3612195D1*
X3609310Y896049D1*
X3606458Y893163D1*
X3604999Y890311D1*
X3603573Y886000D1*
X3603574Y878804D1*
X3605000Y874526D1*
X3606460Y871641D1*
X3609312Y868790D1*
X3612197Y867331D1*
X3617934D1*
X3620786Y868791D1*
X3623671Y871643D1*
X3625096Y874528D1*
X3637243Y897444D2*
X3652995Y897445D1*
X3644407Y885970D1*
X3648718D1*
X3651570Y884545D1*
X3652996Y883119D1*
X3654456Y878808D1*
Y875956D1*
X3652997Y871645D1*
X3650145Y868760D1*
X3645834Y867333D1*
X3641523D1*
X3637245Y868759D1*
X3635819Y870218D1*
X3634360Y873069D1*
X3669457Y867335D2*
X3683814Y897447D1*
X3663718Y897445D1*
X747089Y1725113D2*
X744237Y1723687D1*
X741352Y1720801D1*
X739926Y1717949D1*
Y1712212D1*
X741353Y1709327D1*
X744238Y1706476D1*
X747090Y1705017D1*
X751401Y1703591D1*
X758597Y1703592D1*
X762875Y1705018D1*
X765760Y1706477D1*
X768611Y1709329D1*
X770070Y1712214D1*
Y1717951D1*
X768611Y1720803D1*
X765759Y1723688D1*
X762873Y1725114D1*
X739958Y1737261D2*
X739957Y1753013D1*
X751431Y1744425D1*
Y1748736D1*
X752857Y1751588D1*
X754283Y1753014D1*
X758594Y1754473D1*
X761446D1*
X765757Y1753014D1*
X768642Y1750163D1*
X770068Y1745852D1*
X770069Y1741541D1*
X768643Y1737263D1*
X767184Y1735837D1*
X764332Y1734377D1*
X739956Y1770898D2*
X741382Y1766621D1*
X744234Y1765162D1*
X747119D1*
X749971Y1766621D1*
X751430Y1769473D1*
X752856Y1775210D1*
X754281Y1779521D1*
X757166Y1782373D1*
X760018Y1783800D1*
X764329D1*
X767181Y1782374D1*
X768640Y1780948D1*
X770066Y1776637D1*
X770067Y1770900D1*
X768641Y1766622D1*
X767182Y1765163D1*
X764330Y1763737D1*
X760019D1*
X757167Y1765162D1*
X754282Y1768047D1*
X752856Y1772325D1*
X751429Y1778062D1*
X749970Y1780947D1*
X747118Y1782373D1*
X744233D1*
X741381Y1780946D1*
X739956Y1776635D1*
Y1770898D1*
X754285Y1219698D2*
X754284Y1232598D1*
X752825Y1236909D1*
X751399Y1238368D1*
X748547Y1239794D1*
X745662D1*
X742810Y1238368D1*
X741351Y1236909D1*
X739925Y1232598D1*
X739926Y1219698D1*
X770070Y1219699D1*
X754284Y1229746D2*
X770069Y1239795D1*
X744234Y1266268D2*
X741383Y1264842D1*
X739957Y1260531D1*
Y1257679D1*
X741383Y1253368D1*
X745694Y1250483D1*
X752857Y1249058D1*
X760020D1*
X765757Y1250484D1*
X768642Y1253370D1*
X770068Y1257681D1*
Y1259107D1*
X768642Y1263384D1*
X765756Y1266269D1*
X761445Y1267695D1*
X760019D1*
X755708Y1266269D1*
X752857Y1263384D1*
X751431Y1259106D1*
Y1257680D1*
X752857Y1253369D1*
X755709Y1250484D1*
X760020Y1249058D1*
X825095Y1940313D2*
X823669Y1943165D1*
X820784Y1946050D1*
X817932Y1947475D1*
X812195D1*
X809310Y1946049D1*
X806458Y1943163D1*
X804999Y1940311D1*
X803573Y1936000D1*
X803574Y1928804D1*
X805000Y1924526D1*
X806460Y1921641D1*
X809312Y1918790D1*
X812197Y1917331D1*
X817934D1*
X820786Y1918791D1*
X823671Y1921643D1*
X825096Y1924528D1*
Y1928806D1*
X817933Y1928805D1*
X854454Y1947478D2*
X854456Y1917334D1*
X834358Y1947476D1*
X834360Y1917332D1*
X863718Y1947479D2*
X863720Y1917335D1*
X873768D1*
X878079Y1918795D1*
X880964Y1921647D1*
X882389Y1924532D1*
X883815Y1928810D1*
Y1936006D1*
X882388Y1940317D1*
X880962Y1943169D1*
X878077Y1946054D1*
X873766Y1947479D1*
X863718D1*
X754284Y1418257D2*
Y1431157D1*
X752825Y1435468D1*
X751399Y1436927D1*
X748547Y1438353D1*
X745662D1*
X742810Y1436927D1*
X741351Y1435468D1*
X739925Y1431157D1*
Y1418257D1*
X770069Y1418258D1*
X754284Y1428305D2*
X770069Y1438354D1*
X770068Y1461976D2*
X739957Y1461975D1*
X760020Y1447617D1*
Y1469139D1*
X444127Y1105634D2*
X474270Y1117110D1*
X444125Y1128582D1*
X451286Y1159368D2*
X448434Y1157942D1*
X445549Y1155057D1*
X444124Y1152205D1*
Y1146468D1*
X445550Y1143583D1*
X448435Y1140731D1*
X451287Y1139272D1*
X455598Y1137846D1*
X462795Y1137847D1*
X467072Y1139273D1*
X469957Y1140732D1*
X472809Y1143585D1*
X474268Y1146470D1*
Y1152207D1*
X472808Y1155059D1*
X469956Y1157943D1*
X467071Y1159369D1*
X451284Y1190154D2*
X448432Y1188728D1*
X445547Y1185842D1*
X444122Y1182990D1*
Y1177253D1*
X445548Y1174368D1*
X448433Y1171517D1*
X451285Y1170058D1*
X455597Y1168632D1*
X462793D1*
X467070Y1170059D1*
X469955Y1171518D1*
X472807Y1174370D1*
X474266Y1177255D1*
Y1182992D1*
X472806Y1185844D1*
X469954Y1188729D1*
X467069Y1190155D1*
X454284Y1425421D2*
Y1438321D1*
X452824Y1442632D1*
X451398Y1444091D1*
X448546Y1445517D1*
X445661D1*
X442809Y1444091D1*
X441350Y1442632D1*
X439925Y1438321D1*
Y1425421D1*
X470069Y1425422D1*
X454284Y1435469D2*
X470068Y1445518D1*
X445694Y1454781D2*
X444235Y1457666D1*
X439957Y1461977D1*
X470068D1*
X454283Y1218973D2*
Y1231873D1*
X452824Y1236184D1*
X451398Y1237643D1*
X448546Y1239069D1*
X445661D1*
X442809Y1237643D1*
X441350Y1236184D1*
X439924Y1231873D1*
Y1218973D1*
X470068D1*
X454283Y1229021D2*
X470068Y1239069D1*
X447121Y1249792D2*
X445695D1*
X442809Y1251218D1*
X441384Y1252644D1*
X439958Y1255529D1*
Y1261266D1*
X441384Y1264118D1*
X442809Y1265543D1*
X445695Y1267003D1*
X448546D1*
X451432Y1265543D1*
X455709Y1262692D1*
X470068Y1248333D1*
Y1268429D1*
X754285Y1318969D2*
X754284Y1331869D1*
X752825Y1336180D1*
X751399Y1337639D1*
X748547Y1339064D1*
X745662D1*
X742810Y1337638D1*
X741351Y1336179D1*
X739925Y1331868D1*
X739926Y1318968D1*
X770070Y1318969D1*
X754284Y1329017D2*
X770069Y1339065D1*
X739957Y1365539D2*
Y1351213D1*
X752857Y1349787D1*
X751431Y1351213D1*
X749972Y1355524D1*
Y1359802D1*
X751431Y1364113D1*
X754282Y1366998D1*
X758593Y1368424D1*
X761445Y1368425D1*
X765756Y1366999D1*
X768641Y1364114D1*
X770068Y1359803D1*
Y1355525D1*
X768642Y1351214D1*
X767183Y1349788D1*
X764331Y1348329D1*
X754284Y1518970D2*
Y1531870D1*
X752825Y1536181D1*
X751399Y1537640D1*
X748547Y1539066D1*
X745662D1*
X742810Y1537640D1*
X741351Y1536181D1*
X739925Y1531869D1*
Y1518970D1*
X770069Y1518971D1*
X754284Y1529018D2*
X770069Y1539067D1*
X770068Y1554067D2*
X739957Y1568425D1*
Y1548329D1*
X754285Y1123185D2*
X754284Y1136085D1*
X752825Y1140396D1*
X751399Y1141855D1*
X748547Y1143281D1*
X745662Y1143280D1*
X742810Y1141854D1*
X741351Y1140395D1*
X739925Y1136084D1*
X739926Y1123184D1*
X770070Y1123186D1*
X754284Y1133233D2*
X770069Y1143282D1*
X739957Y1159707D2*
X741383Y1155429D1*
X744235Y1153970D1*
X747120D1*
X749972Y1155429D1*
X751431Y1158281D1*
X752857Y1164018D1*
X754282Y1168329D1*
X757167Y1171181D1*
X760019Y1172607D1*
X764330Y1172608D1*
X767182Y1171182D1*
X768641Y1169756D1*
X770068Y1165445D1*
Y1159708D1*
X768642Y1155430D1*
X767183Y1153971D1*
X764331Y1152545D1*
X760020D1*
X757168Y1153970D1*
X754283Y1156855D1*
X752857Y1161133D1*
X751431Y1166870D1*
X749971Y1169755D1*
X747119Y1171181D1*
X744234D1*
X741382Y1169755D1*
X739957Y1165444D1*
Y1159707D1*
X454284Y1318970D2*
Y1331870D1*
X452825Y1336181D1*
X451399Y1337640D1*
X448547Y1339066D1*
X445662D1*
X442810Y1337640D1*
X441351Y1336181D1*
X439925Y1331869D1*
Y1318970D1*
X470069Y1318971D1*
X454284Y1329018D2*
X470069Y1339067D1*
X439957Y1351214D2*
Y1366966D1*
X451431Y1358378D1*
Y1362689D1*
X452857Y1365540D1*
X454283Y1366966D1*
X458594Y1368426D1*
X461446D1*
X465757Y1366967D1*
X468642Y1364115D1*
X470068Y1359804D1*
Y1355493D1*
X468642Y1351215D1*
X467183Y1349789D1*
X464331Y1348330D1*
X2518967Y1847476D2*
X2518969Y1817332D1*
X2529017D1*
X2533328Y1818792D1*
X2536213Y1821644D1*
X2537638Y1824529D1*
X2539064Y1828807D1*
Y1836003D1*
X2537637Y1840314D1*
X2536211Y1843166D1*
X2533326Y1846051D1*
X2529015Y1847476D1*
X2518967D1*
X2565537Y1847445D2*
X2551212Y1847444D1*
X2549786Y1834544D1*
X2551212Y1835970D1*
X2555523Y1837430D1*
X2559801D1*
X2564112Y1835971D1*
X2566997Y1833119D1*
X2568424Y1828809D1*
Y1825957D1*
X2566998Y1821646D1*
X2564113Y1818760D1*
X2559802Y1817334D1*
X2555524D1*
X2551213Y1818760D1*
X2549787Y1820219D1*
X2548328Y1823070D1*
X1718967Y1847476D2*
X1718969Y1817332D1*
X1729017D1*
X1733328Y1818792D1*
X1736213Y1821644D1*
X1737638Y1824529D1*
X1739064Y1828807D1*
Y1836003D1*
X1737637Y1840314D1*
X1736211Y1843166D1*
X1733326Y1846051D1*
X1729015Y1847476D1*
X1718967D1*
X1751212Y1847444D2*
X1766963Y1847445D1*
X1758375Y1835971D1*
X1762686D1*
X1765538Y1834545D1*
X1766964Y1833119D1*
X1768424Y1828809D1*
Y1825957D1*
X1766965Y1821646D1*
X1764113Y1818760D1*
X1759802Y1817334D1*
X1755491D1*
X1751213Y1818760D1*
X1749787Y1820219D1*
X1748328Y1823070D1*
X518976Y1847478D2*
X518975Y1817334D1*
X529023D1*
X533334Y1818793D1*
X536219Y1821644D1*
X537645Y1824529D1*
X539071Y1828807D1*
Y1836003D1*
X537646Y1840314D1*
X536220Y1843166D1*
X533335Y1846051D1*
X529024Y1847478D1*
X518976D1*
X556957Y1847444D2*
X552646Y1846018D1*
X549761Y1841707D1*
X548335Y1834544D1*
Y1830233D1*
X549761Y1823070D1*
X552646Y1818759D1*
X556957Y1817333D1*
X559808D1*
X564120Y1818759D1*
X566972Y1823070D1*
X568431Y1830232D1*
Y1834543D1*
X566972Y1841706D1*
X564120Y1846017D1*
X559809Y1847444D1*
X556957D1*
X566972Y1841706D2*
X549761Y1823070D1*
X925415Y1847476D2*
X925418Y1817332D1*
X935466Y1817333D1*
X939776Y1818792D1*
X942661Y1821644D1*
X944087Y1824529D1*
X945513Y1828807D1*
X945512Y1836003D1*
X944086Y1840314D1*
X942660Y1843166D1*
X939774Y1846051D1*
X935463Y1847477D1*
X925415Y1847476D1*
X954775Y1841708D2*
X957660Y1843167D1*
X961971Y1847445D1*
X961973Y1817334D1*
X2118254Y1847476D2*
X2118256Y1817332D1*
X2128304D1*
X2132615Y1818792D1*
X2135500Y1821644D1*
X2136925Y1824529D1*
X2138351Y1828807D1*
Y1836003D1*
X2136924Y1840314D1*
X2135498Y1843166D1*
X2132613Y1846051D1*
X2128302Y1847476D1*
X2118254D1*
X2161974Y1817334D2*
X2161973Y1847445D1*
X2147615Y1827381D1*
X2169137Y1827383D1*
X2923896Y1847476D2*
X2923898Y1817332D1*
X2933946D1*
X2938257Y1818792D1*
X2941142Y1821644D1*
X2942567Y1824529D1*
X2943993Y1828807D1*
Y1836003D1*
X2942566Y1840314D1*
X2941140Y1843166D1*
X2938255Y1846051D1*
X2933944Y1847476D1*
X2923896D1*
X2970467Y1843167D2*
X2969041Y1846019D1*
X2964729Y1847445D1*
X2961878D1*
X2957567Y1846019D1*
X2954682Y1841707D1*
X2953256Y1834544D1*
X2953257Y1827381D1*
X2954683Y1821645D1*
X2957568Y1818760D1*
X2961879Y1817334D1*
X2963305D1*
X2967583Y1818760D1*
X2970468Y1821645D1*
X2971894Y1825957D1*
Y1827383D1*
X2970467Y1831694D1*
X2967582Y1834545D1*
X2963304Y1835971D1*
X2961878D1*
X2957567Y1834545D1*
X2954682Y1831693D1*
X2953257Y1827381D1*
X3318967Y1847476D2*
X3318969Y1817332D1*
X3329017D1*
X3333328Y1818792D1*
X3336213Y1821644D1*
X3337638Y1824529D1*
X3339064Y1828807D1*
Y1836003D1*
X3337637Y1840314D1*
X3336211Y1843166D1*
X3333326Y1846051D1*
X3329015Y1847476D1*
X3318967D1*
X3354065Y1817334D2*
X3368422Y1847445D1*
X3348326Y1847444D1*
X1318976Y1847478D2*
X1318975Y1817334D1*
X1329023D1*
X1333334Y1818793D1*
X1336219Y1821644D1*
X1337645Y1824529D1*
X1339071Y1828807D1*
Y1836003D1*
X1337646Y1840314D1*
X1336220Y1843166D1*
X1333335Y1846051D1*
X1329024Y1847478D1*
X1318976D1*
X1349794Y1840281D2*
Y1841707D1*
X1351220Y1844592D1*
X1352646Y1846018D1*
X1355531Y1847444D1*
X1361268D1*
X1364120Y1846017D1*
X1365546Y1844592D1*
X1367005Y1841706D1*
Y1838854D1*
X1365546Y1835969D1*
X1362694Y1831692D1*
X1348335Y1817333D1*
X1368431Y1817332D1*
X2739926Y676146D2*
X2741318Y673294D1*
X2744204Y670409D1*
X2747089Y668984D1*
X2751400Y667525D1*
X2758563D1*
X2762874Y668985D1*
X2765726Y670411D1*
X2768611Y673296D1*
X2770036Y676148D1*
Y681885D1*
X2768610Y684770D1*
X2765725Y687622D1*
X2762873Y689047D1*
X2758562Y690506D1*
X2751399D1*
X2747088Y689046D1*
X2744203Y687620D1*
X2741318Y684768D1*
X2739925Y681883D1*
X2739926Y676146D1*
X2764299Y680459D2*
X2772921Y689048D1*
X2739956Y716980D2*
X2739957Y702654D1*
X2752857Y701229D1*
X2751431Y702654D1*
X2749972Y706965D1*
X2749971Y711243D1*
X2751430Y715554D1*
X2754282Y718440D1*
X2758593Y719866D1*
X2761445D1*
X2765756Y718440D1*
X2768641Y715555D1*
X2770067Y711244D1*
X2770068Y706967D1*
X2768642Y702655D1*
X2767183Y701229D1*
X2764331Y699770D1*
X1939926Y676146D2*
X1941318Y673294D1*
X1944204Y670409D1*
X1947089Y668984D1*
X1951400Y667525D1*
X1958563D1*
X1962874Y668985D1*
X1965726Y670411D1*
X1968611Y673296D1*
X1970036Y676148D1*
Y681885D1*
X1968610Y684770D1*
X1965725Y687622D1*
X1962873Y689047D1*
X1958562Y690506D1*
X1951399D1*
X1947088Y689046D1*
X1944203Y687620D1*
X1941318Y684768D1*
X1939925Y681883D1*
X1939926Y676146D1*
X1964299Y680459D2*
X1972921Y689048D1*
X1939957Y702654D2*
X1939956Y718406D1*
X1951431Y709817D1*
X1951430Y714128D1*
X1952856Y716980D1*
X1954282Y718406D1*
X1958593Y719866D1*
X1961445D1*
X1965756Y718407D1*
X1968641Y715555D1*
X1970067Y711244D1*
X1970068Y706933D1*
X1968642Y702655D1*
X1967183Y701229D1*
X1964331Y699770D1*
X744125Y680346D2*
X745518Y677494D1*
X748403Y674609D1*
X751288Y673183D1*
X755599Y671724D1*
X762762Y671725D1*
X767073Y673184D1*
X769925Y674610D1*
X772810Y677495D1*
X774236Y680347D1*
X774235Y686084D1*
X772809Y688969D1*
X769924Y691821D1*
X767072Y693247D1*
X762761Y694706D1*
X755598Y694705D1*
X751287Y693246D1*
X748402Y691820D1*
X745517Y688968D1*
X744125Y686082D1*
Y680346D1*
X768499Y684658D2*
X777120Y693247D1*
X744156Y712590D2*
X745582Y708279D1*
X749894Y705394D1*
X757057Y703969D1*
X761368D1*
X768530Y705396D1*
X772841Y708281D1*
X774267Y712592D1*
Y715444D1*
X772841Y719755D1*
X768529Y722607D1*
X761366Y724065D1*
X757055D1*
X749892Y722605D1*
X745582Y719753D1*
X744156Y715442D1*
Y712590D1*
X749892Y722605D2*
X768530Y705396D1*
X1144125Y686794D2*
X1145518Y683942D1*
X1148403Y681057D1*
X1151288Y679632D1*
X1155599Y678173D1*
X1162762D1*
X1167073Y679633D1*
X1169925Y681059D1*
X1172810Y683944D1*
X1174236Y686796D1*
X1174235Y692533D1*
X1172809Y695418D1*
X1169924Y698270D1*
X1167072Y699696D1*
X1162761Y701154D1*
X1155598D1*
X1151287Y699694D1*
X1148402Y698268D1*
X1145517Y695416D1*
X1144124Y692531D1*
X1144125Y686794D1*
X1168498Y691107D2*
X1177120Y699696D1*
X1149893Y710417D2*
X1148434Y713302D1*
X1144156Y717613D1*
X1174266Y717615D1*
X2339926Y675433D2*
X2341319Y672581D1*
X2344204Y669696D1*
X2347089Y668271D1*
X2351400Y666812D1*
X2358563D1*
X2362874Y668272D1*
X2365726Y669698D1*
X2368611Y672583D1*
X2370036Y675435D1*
Y681172D1*
X2368610Y684057D1*
X2365725Y686909D1*
X2362873Y688334D1*
X2358562Y689793D1*
X2351399D1*
X2347088Y688333D1*
X2344203Y686907D1*
X2341318Y684055D1*
X2339925Y681170D1*
X2339926Y675433D1*
X2364299Y679746D2*
X2372921Y688335D1*
X2370067Y713417D2*
X2339956Y713415D1*
X2360020Y699057D1*
X2360019Y720579D1*
X3139925Y676876D2*
X3141318Y674024D1*
X3144204Y671139D1*
X3147089Y669713D1*
X3151400Y668254D1*
X3158563Y668255D1*
X3162874Y669714D1*
X3165726Y671140D1*
X3168611Y674025D1*
X3170036Y676877D1*
Y682614D1*
X3168610Y685499D1*
X3165725Y688351D1*
X3162873Y689777D1*
X3158561Y691236D1*
X3151399Y691235D1*
X3147088Y689776D1*
X3144203Y688350D1*
X3141318Y685498D1*
X3139925Y682613D1*
Y676876D1*
X3164299Y681188D2*
X3172921Y689778D1*
X3144234Y717709D2*
X3141382Y716283D1*
X3139956Y711972D1*
X3139957Y709120D1*
X3141383Y704809D1*
X3145694Y701924D1*
X3152857Y700499D1*
X3160020D1*
X3165757Y701926D1*
X3168642Y704811D1*
X3170067Y709122D1*
Y710548D1*
X3168641Y714826D1*
X3165756Y717711D1*
X3161445Y719136D1*
X3160019D1*
X3155708Y717710D1*
X3152856Y714825D1*
X3151430Y710547D1*
X3151431Y709121D1*
X3152857Y704810D1*
X3155709Y701925D1*
X3160020Y700499D1*
X3539925Y676148D2*
X3541318Y673296D1*
X3544203Y670411D1*
X3547089Y668985D1*
X3551400Y667526D1*
X3558563D1*
X3562874Y668986D1*
X3565725Y670412D1*
X3568610Y673297D1*
X3570036Y676149D1*
Y681886D1*
X3568610Y684771D1*
X3565725Y687623D1*
X3562873Y689049D1*
X3558561Y690507D1*
X3551399D1*
X3547088Y689048D1*
X3544203Y687622D1*
X3541318Y684770D1*
X3539925Y681885D1*
Y676148D1*
X3564299Y680460D2*
X3572921Y689049D1*
X3570068Y705509D2*
X3539956Y719866D1*
X3539957Y699770D1*
X1539926Y676146D2*
X1541318Y673294D1*
X1544204Y670409D1*
X1547089Y668984D1*
X1551400Y667525D1*
X1558563D1*
X1562874Y668985D1*
X1565726Y670411D1*
X1568611Y673296D1*
X1570036Y676148D1*
Y681885D1*
X1568610Y684770D1*
X1565725Y687622D1*
X1562873Y689047D1*
X1558562Y690506D1*
X1551399D1*
X1547088Y689046D1*
X1544203Y687620D1*
X1541318Y684768D1*
X1539925Y681883D1*
X1539926Y676146D1*
X1564299Y680459D2*
X1572921Y689048D1*
X1547120Y701228D2*
X1545694D1*
X1542809Y702654D1*
X1541383Y704080D1*
X1539957Y706965D1*
X1539956Y712702D1*
X1541382Y715554D1*
X1542808Y716980D1*
X1545693Y718439D1*
X1548545D1*
X1551430Y716980D1*
X1555708Y714129D1*
X1570068Y699770D1*
X1570067Y719867D1*
X451286Y682285D2*
X448434Y680860D1*
X445549Y677975D1*
X444123Y675123D1*
Y669386D1*
X445549Y666501D1*
X448434Y663649D1*
X451286Y662189D1*
X455597Y660763D1*
X462793D1*
X467071Y662189D1*
X469956Y663648D1*
X472808Y666500D1*
X474267Y669385D1*
Y675122D1*
X472808Y677974D1*
X469956Y680859D1*
X467071Y682285D1*
X449894Y691549D2*
X448435Y694434D1*
X444157Y698745D1*
X474268Y698744D1*
X448436Y725220D2*
X445584Y723794D1*
X444158Y719483D1*
Y716631D1*
X445584Y712320D1*
X449895Y709435D1*
X457058Y708008D1*
X464220D1*
X469957Y709434D1*
X472843Y712319D1*
X474269Y716630D1*
Y718056D1*
X472843Y722334D1*
X469958Y725219D1*
X465647Y726645D1*
X464221D1*
X459910Y725219D1*
X457058Y722334D1*
X455632Y718056D1*
Y716630D1*
X457058Y712319D1*
X459909Y709434D1*
X464220Y708008D1*
X3778734Y642938D2*
X3748623D1*
X3768687Y628579D1*
X3768686Y650101D1*
X3778734Y665102D2*
X3748623Y679460D1*
Y659364D1*
X3748622Y697346D2*
X3750048Y693035D1*
X3754360Y690150D1*
X3761522Y688724D1*
X3765834D1*
X3772996Y690150D1*
X3777307Y693035D1*
X3778733Y697346D1*
Y700198D1*
X3777307Y704509D1*
X3772996Y707361D1*
X3765833Y708820D1*
X3761522D1*
X3754359Y707361D1*
X3750048Y704509D1*
X3748622Y700198D1*
Y697346D1*
X3754359Y707361D2*
X3772996Y690150D1*
X3937634Y1676660D2*
X3907490Y1656564D1*
X3937634D2*
X3907490Y1676660D1*
X3921850Y1647300D2*
Y1634367D1*
X3923276Y1630089D1*
X3924735Y1628630D1*
X3927587Y1627204D1*
X3931898D1*
X3934750Y1628630D1*
X3936209Y1630090D1*
X3937635Y1634367D1*
Y1647301D1*
X3907491Y1647300D1*
X3931865Y1617941D2*
X3933324Y1615056D1*
X3937602Y1610745D1*
X3907491Y1610744D1*
M02*
