G04 DipTrace 5.0.0.1*
G04 mem-ext-512-sip.GBS*
%MOIN*%
G04 #@! TF.FileFunction,Soldermask,Bot*
G04 #@! TF.Part,Single*
%AMOUTLINE1*
4,1,28,
0.030906,0.012136,
0.030905,-0.012137,
0.030519,-0.01507,
0.029338,-0.017922,
0.027458,-0.020372,
0.025008,-0.022252,
0.022155,-0.023433,
0.019223,-0.023819,
-0.019224,-0.023819,
-0.022156,-0.023433,
-0.025009,-0.022251,
-0.027458,-0.020371,
-0.029338,-0.017921,
-0.03052,-0.015069,
-0.030906,-0.012136,
-0.030905,0.012137,
-0.030519,0.01507,
-0.029338,0.017922,
-0.027458,0.020372,
-0.025008,0.022252,
-0.022155,0.023433,
-0.019223,0.023819,
0.019224,0.023819,
0.022156,0.023433,
0.025009,0.022251,
0.027458,0.020371,
0.029338,0.017921,
0.03052,0.015069,
0.030906,0.012136,
0*%
%AMOUTLINE4*
4,1,28,
-0.030906,-0.012136,
-0.030905,0.012137,
-0.030519,0.01507,
-0.029338,0.017922,
-0.027458,0.020372,
-0.025008,0.022252,
-0.022155,0.023433,
-0.019223,0.023819,
0.019224,0.023819,
0.022156,0.023433,
0.025009,0.022251,
0.027458,0.020371,
0.029338,0.017921,
0.03052,0.015069,
0.030906,0.012136,
0.030905,-0.012137,
0.030519,-0.01507,
0.029338,-0.017922,
0.027458,-0.020372,
0.025008,-0.022252,
0.022155,-0.023433,
0.019223,-0.023819,
-0.019224,-0.023819,
-0.022156,-0.023433,
-0.025009,-0.022251,
-0.027458,-0.020371,
-0.029338,-0.017921,
-0.03052,-0.015069,
-0.030906,-0.012136,
0*%
%AMOUTLINE7*
4,1,28,
0.012139,-0.030905,
-0.012134,-0.030906,
-0.015067,-0.030521,
-0.01792,-0.029339,
-0.020369,-0.02746,
-0.022249,-0.02501,
-0.023431,-0.022158,
-0.023817,-0.019225,
-0.02382,0.019222,
-0.023435,0.022154,
-0.022253,0.025007,
-0.020374,0.027457,
-0.017924,0.029336,
-0.015072,0.030518,
-0.012139,0.030905,
0.012134,0.030906,
0.015067,0.030521,
0.01792,0.029339,
0.020369,0.02746,
0.022249,0.02501,
0.023431,0.022158,
0.023817,0.019225,
0.02382,-0.019222,
0.023435,-0.022154,
0.022253,-0.025007,
0.020374,-0.027457,
0.017924,-0.029336,
0.015072,-0.030518,
0.012139,-0.030905,
0*%
%AMOUTLINE10*
4,1,28,
-0.012139,0.030905,
0.012134,0.030906,
0.015067,0.030521,
0.01792,0.029339,
0.020369,0.02746,
0.022249,0.02501,
0.023431,0.022158,
0.023817,0.019225,
0.02382,-0.019222,
0.023435,-0.022154,
0.022253,-0.025007,
0.020374,-0.027457,
0.017924,-0.029336,
0.015072,-0.030518,
0.012139,-0.030905,
-0.012134,-0.030906,
-0.015067,-0.030521,
-0.01792,-0.029339,
-0.020369,-0.02746,
-0.022249,-0.02501,
-0.023431,-0.022158,
-0.023817,-0.019225,
-0.02382,0.019222,
-0.023435,0.022154,
-0.022253,0.025007,
-0.020374,0.027457,
-0.017924,0.029336,
-0.015072,0.030518,
-0.012139,0.030905,
0*%
%AMOUTLINE13*
4,1,28,
0.012137,-0.030906,
-0.012137,-0.030906,
-0.015069,-0.030519,
-0.017922,-0.029338,
-0.020372,-0.027458,
-0.022251,-0.025008,
-0.023433,-0.022156,
-0.023819,-0.019224,
-0.023819,0.019224,
-0.023433,0.022156,
-0.022251,0.025008,
-0.020372,0.027458,
-0.017922,0.029338,
-0.015069,0.030519,
-0.012137,0.030906,
0.012137,0.030906,
0.015069,0.030519,
0.017922,0.029338,
0.020372,0.027458,
0.022251,0.025008,
0.023433,0.022156,
0.023819,0.019224,
0.023819,-0.019224,
0.023433,-0.022156,
0.022251,-0.025008,
0.020372,-0.027458,
0.017922,-0.029338,
0.015069,-0.030519,
0.012137,-0.030906,
0*%
%AMOUTLINE16*
4,1,28,
-0.012137,0.030906,
0.012137,0.030906,
0.015069,0.030519,
0.017922,0.029338,
0.020372,0.027458,
0.022251,0.025008,
0.023433,0.022156,
0.023819,0.019224,
0.023819,-0.019224,
0.023433,-0.022156,
0.022251,-0.025008,
0.020372,-0.027458,
0.017922,-0.029338,
0.015069,-0.030519,
0.012137,-0.030906,
-0.012137,-0.030906,
-0.015069,-0.030519,
-0.017922,-0.029338,
-0.020372,-0.027458,
-0.022251,-0.025008,
-0.023433,-0.022156,
-0.023819,-0.019224,
-0.023819,0.019224,
-0.023433,0.022156,
-0.022251,0.025008,
-0.020372,0.027458,
-0.017922,0.029338,
-0.015069,0.030519,
-0.012137,0.030906,
0*%
%ADD29C,0.062992*%
%ADD31R,0.062992X0.062992*%
%ADD33C,0.063937*%
%ADD37OUTLINE1*%
%ADD40OUTLINE4*%
%ADD43OUTLINE7*%
%ADD46OUTLINE10*%
%ADD49OUTLINE13*%
%ADD52OUTLINE16*%
%FSLAX26Y26*%
G04*
G70*
G90*
G75*
G01*
G04 BotMask*
%LPD*%
D37*
X2758052Y1012913D3*
D40*
X2758053Y1079843D3*
D43*
X1038508Y1600782D3*
D46*
X1105437Y1600787D3*
D43*
X1889892Y1079906D3*
D46*
X1956822Y1079910D3*
D49*
X3588609Y1389429D3*
D52*
X3655538D3*
D33*
X3643701Y793701D3*
X843701Y1743701D3*
Y1243701D3*
Y1843701D3*
Y1443701D3*
X547900Y1147900D3*
X543701Y1443701D3*
Y1243701D3*
X843701Y1343701D3*
Y1543701D3*
Y1147900D3*
X543701Y1343701D3*
X2543701Y1743701D3*
X1743701D3*
X543701D3*
X943701D3*
X2143701D3*
X2947900D3*
X3343701D3*
X1343701D3*
X2843701Y693701D3*
X2043701D3*
X847900Y697900D3*
X1247900D3*
X2443701Y693701D3*
X3243701D3*
X3643701D3*
X1643701D3*
X547900D3*
D31*
X3843696Y1843701D3*
D29*
X3843698Y1743701D3*
X3843701Y1643701D3*
X3843703Y1543701D3*
X3843706Y1443701D3*
M02*
