G04 DipTrace 5.0.0.1*
G04 mem-ext-512-sip.GBO*
%MOIN*%
G04 #@! TF.FileFunction,Legend,Bot*
G04 #@! TF.Part,Single*
%ADD13C,0.004724*%
%ADD38C,0.004632*%
%FSLAX26Y26*%
G04*
G70*
G90*
G75*
G01*
G04 BotSilk*
%LPD*%
X2925988Y1327756D2*
D13*
Y1309646D1*
X2961421Y1327756D2*
Y1309646D1*
X1400988Y1327755D2*
X1400989Y1309645D1*
X1436421Y1327757D2*
X1436422Y1309646D1*
X2325988Y1327756D2*
Y1309646D1*
X2361421Y1327756D2*
Y1309646D1*
X1348425Y1346952D2*
D38*
X1349851Y1351263D1*
X1354162Y1354149D1*
X1361325Y1355575D1*
X1365636D1*
X1372799Y1354149D1*
X1377110Y1351264D1*
X1378536Y1346954D1*
Y1344102D1*
X1377110Y1339791D1*
X1372799Y1336938D1*
X1365636Y1335479D1*
X1361325D1*
X1354162Y1336938D1*
X1349851Y1339789D1*
X1348425Y1344100D1*
Y1346952D1*
X1354162Y1336938D2*
X1372799Y1354149D1*
X1375652Y1324790D2*
X1377111Y1326216D1*
X1378537Y1324790D1*
X1377111Y1323331D1*
X1375652Y1324790D1*
X1354163Y1314066D2*
X1352704Y1311181D1*
X1348427Y1306870D1*
X1378537Y1306871D1*
X1358442Y1297607D2*
X1372801Y1297608D1*
X1377079Y1296182D1*
X1378538Y1293297D1*
Y1288986D1*
X1377079Y1286134D1*
X1372801Y1281823D1*
X1358442Y1281822D2*
X1378538Y1281823D1*
X2273426Y1346955D2*
X2274852Y1351266D1*
X2279163Y1354151D1*
X2286326Y1355577D1*
X2290637D1*
X2297800Y1354151D1*
X2302111Y1351266D1*
X2303537Y1346955D1*
Y1344103D1*
X2302111Y1339792D1*
X2297800Y1336940D1*
X2290637Y1335481D1*
X2286326D1*
X2279163Y1336940D1*
X2274852Y1339792D1*
X2273426Y1344103D1*
Y1346955D1*
X2279163Y1336940D2*
X2297800Y1354151D1*
X2302111Y1323333D2*
X2303537Y1324792D1*
X2302111Y1326218D1*
X2300652Y1324792D1*
X2302111Y1323333D1*
X2304963D1*
X2307848Y1324792D1*
X2309274Y1326218D1*
X2279163Y1314069D2*
X2277704Y1311184D1*
X2273426Y1306873D1*
X2303537D1*
X2283441Y1297609D2*
X2297800D1*
X2302078Y1296183D1*
X2303537Y1293298D1*
Y1288987D1*
X2302078Y1286135D1*
X2297800Y1281824D1*
X2283441D2*
X2303537D1*
M02*
